{
.appVersion = "1356";
DisplayStrings = (
"LOST/space HOHHOH/space NOONHNOONON\012CH/Adotbelow Y",
"WAYFARER\012TAYLOR/space SWIFT\012V/acircumflexdotbelow y",
"TAT/space T/Acircumflexacute T/space T/Abrevegrave NG"
);
classes = (
{
automatic = 1;

glyphs = (
{
glyphname = onehalf;
lastChange = "2021-04-18 10:29:33 +0000";
layers = (
{
components = (
{
name = two;
transform = "{0.76075, 0, 0, 0.76075, 551, -2}";
},
{
name = one;
transform = "{0.90909, 0, 0, 0.90909, 10, 161}";
}
);
layerId = "C7668D88-AC50-4107-9C4B-DB5D26A8FA6C";
paths = (
{
closed = 1;
nodes = (
"764 600 OFFCURVE",
"728 600 OFFCURVE",
"692 600 CURVE",
"541 400 OFFCURVE",
"390 200 OFFCURVE",
"239 0 CURVE",
"274 0 OFFCURVE",
"311 0 OFFCURVE",
"346 0 CURVE",
"497 200 OFFCURVE",
"649 400 OFFCURVE",
"800 600 CURVE"
);
}
);
width = 1032;
},
{
background = {
components = (
{
name = two;
transform = "{0.76075, 0, 0, 0.76075, 450, -2}";
},
{
name = one;
transform = "{0.90909, 0, 0, 0.90909, 62, 161}";
}
);
paths = (
{
closed = 1;
nodes = (
"578 600 OFFCURVE",
"570 600 OFFCURVE",
"563 600 CURVE",
"442 400 OFFCURVE",
"321 200 OFFCURVE",
"200 0 CURVE",
"207 0 OFFCURVE",
"214 0 OFFCURVE",
"221 0 CURVE",
"342 200 OFFCURVE",
"464 400 OFFCURVE",
"585 600 CURVE"
);
}
);
};
components = (
{
name = two;
transform = "{0.76075, 0, 0, 0.76075, 450, -2}";
},
{
name = one;
transform = "{0.90909, 0, 0, 0.90909, 62, 161}";
}
);
layerId = "B4E8C596-9C01-4F8A-BDA4-90320E25C0E6";
paths = (
{
closed = 1;
nodes = (
"578 600 OFFCURVE",
"570 600 OFFCURVE",
"563 600 CURVE",
"442 400 OFFCURVE",
"321 200 OFFCURVE",
"200 0 CURVE",
"207 0 OFFCURVE",
"214 0 OFFCURVE",
"221 0 CURVE",
"342 200 OFFCURVE",
"464 400 OFFCURVE",
"585 600 CURVE"
);
}
);
width = 850;
}
);
note = onehalf;
unicode = 00BD;
},
{
glyphname = onequarter;
lastChange = "2021-04-18 10:29:33 +0000";
layers = (
{
components = (
{
name = one;
transform = "{0.90909, 0, 0, 0.90909, 10, 161}";
},
{
name = four;
transform = "{0.90909, 0, 0, 0.90909, 508, 0}";
}
);
layerId = "C7668D88-AC50-4107-9C4B-DB5D26A8FA6C";
paths = (
{
closed = 1;
nodes = (
"764 600 OFFCURVE",
"728 600 OFFCURVE",
"692 600 CURVE",
"541 400 OFFCURVE",
"390 200 OFFCURVE",
"239 0 CURVE",
"274 0 OFFCURVE",
"311 0 OFFCURVE",
"346 0 CURVE",
"497 200 OFFCURVE",
"649 400 OFFCURVE",
"800 600 CURVE"
);
}
);
width = 1093;
},
{
background = {
components = (
{
name = one;
transform = "{0.90909, 0, 0, 0.90909, 42, 161}";
},
{
name = four;
transform = "{0.90909, 0, 0, 0.90909, 386, 0}";
}
);
paths = (
{
closed = 1;
nodes = (
"559 600 OFFCURVE",
"551 600 OFFCURVE",
"544 600 CURVE",
"423 400 OFFCURVE",
"302 200 OFFCURVE",
"181 0 CURVE",
"188 0 OFFCURVE",
"195 0 OFFCURVE",
"202 0 CURVE",
"323 200 OFFCURVE",
"445 400 OFFCURVE",
"566 600 CURVE"
);
}
);
};
components = (
{
name = one;
transform = "{0.90909, 0, 0, 0.90909, 42, 161}";
},
{
name = four;
transform = "{0.90909, 0, 0, 0.90909, 386, 0}";
}
);
layerId = "B4E8C596-9C01-4F8A-BDA4-90320E25C0E6";
paths = (
{
closed = 1;
nodes = (
"559 600 OFFCURVE",
"551 600 OFFCURVE",
"544 600 CURVE",
"423 400 OFFCURVE",
"302 200 OFFCURVE",
"181 0 CURVE",
"188 0 OFFCURVE",
"195 0 OFFCURVE",
"202 0 CURVE",
"323 200 OFFCURVE",
"445 400 OFFCURVE",
"566 600 CURVE"
);
}
);
width = 819;
}
);
note = onequarter;
unicode = 00BC;
},
{
glyphname = threequarters;
lastChange = "2021-04-18 10:29:33 +0000";
layers = (
{
components = (
{
name = three;
transform = "{0.82645, 0, 0, 0.82645, -9, 211}";
},
{
name = four;
transform = "{1, 0, 0, 1, 580, 0}";
}
);
layerId = "C7668D88-AC50-4107-9C4B-DB5D26A8FA6C";
paths = (
{
closed = 1;
nodes = (
"751 600 LINE",
"298 0 LINE",
"404 0 LINE",
"858 600 LINE"
);
}
);
width = 1252;
},
{
background = {
components = (
{
name = three;
transform = "{0.82645, 0, 0, 0.82645, 51, 211}";
},
{
name = four;
transform = "{1, 0, 0, 1, 510, 0}";
}
);
paths = (
{
closed = 1;
nodes = (
"680 600 LINE",
"317 0 LINE",
"338 0 LINE",
"702 600 LINE"
);
}
);
};
components = (
{
name = three;
transform = "{0.82645, 0, 0, 0.82645, 51, 211}";
},
{
name = four;
transform = "{1, 0, 0, 1, 510, 0}";
}
);
layerId = "B4E8C596-9C01-4F8A-BDA4-90320E25C0E6";
paths = (
{
closed = 1;
nodes = (
"680 600 LINE",
"317 0 LINE",
"338 0 LINE",
"702 600 LINE"
);
}
);
width = 978;
}
);
note = threequarters;
unicode = 00BE;
},
{
glyphname = brokenbar;
lastChange = "2021-04-18 10:29:33 +0000";
layers = (
{
layerId = "C7668D88-AC50-4107-9C4B-DB5D26A8FA6C";
paths = (
{
closed = 1;
nodes = (
"35 108 LINE",
"35 -159 LINE",
"227 -159 LINE",
"227 108 LINE"
);
},
{
closed = 1;
nodes = (
"35 460 LINE",
"35 208 LINE",
"227 208 LINE",
"227 460 LINE"
);
}
);
width = 262;
},
{
background = {
paths = (
{
closed = 1;
nodes = (
"48 88 LINE",
"48 -159 LINE",
"68 -159 LINE",
"68 88 LINE"
);
},
{
closed = 1;
nodes = (
"48 460 LINE",
"48 208 LINE",
"68 208 LINE",
"68 460 LINE"
);
}
);
};
layerId = "B4E8C596-9C01-4F8A-BDA4-90320E25C0E6";
paths = (
{
closed = 1;
nodes = (
"48 88 LINE",
"48 -159 LINE",
"68 -159 LINE",
"68 88 LINE"
);
},
{
closed = 1;
nodes = (
"48 460 LINE",
"48 208 LINE",
"68 208 LINE",
"68 460 LINE"
);
}
);
width = 148;
}
);
note = brokenbar;
unicode = 00A6;
},
{
glyphname = minus;
lastChange = "2021-04-18 10:29:33 +0000";
layers = (
{
layerId = "C7668D88-AC50-4107-9C4B-DB5D26A8FA6C";
paths = (
{
closed = 1;
nodes = (
"47 118 LINE",
"502 118 LINE",
"502 224 LINE",
"47 224 LINE"
);
}
);
width = 602;
},
{
background = {
paths = (
{
closed = 1;
nodes = (
"52 181 LINE",
"346 181 LINE",
"346 201 LINE",
"52 201 LINE"
);
}
);
};
layerId = "B4E8C596-9C01-4F8A-BDA4-90320E25C0E6";
paths = (
{
closed = 1;
nodes = (
"52 181 LINE",
"346 181 LINE",
"346 201 LINE",
"52 201 LINE"
);
}
);
width = 398;
}
);
note = minus;
unicode = 2212;
},
{
glyphname = multiply;
lastChange = "2021-04-18 10:29:33 +0000";
layers = (
{
background = {
paths = (
{
closed = 1;
nodes = (
"39 72 LINE",
"141 10 LINE",
"225 113 LINE",
"308 11 LINE",
"469 100 LINE",
"385 198 LINE",
"486 350 LINE",
"389 399 LINE",
"301 281 LINE",
"215 399 LINE",
"49 314 LINE",
"134 198 LINE"
);
}
);
};
layerId = "C7668D88-AC50-4107-9C4B-DB5D26A8FA6C";
paths = (
{
closed = 1;
nodes = (
"35 86 LINE",
"126 21 LINE",
"220 123 LINE",
"311 22 LINE",
"405 96 LINE",
"305 200 LINE",
"399 311 LINE",
"308 378 LINE",
"215 273 LINE",
"122 379 LINE",
"32 311 LINE",
"137 194 LINE"
);
}
);
width = 429;
},
{
background = {
paths = (
{
closed = 1;
nodes = (
"44 57 LINE",
"57 45 LINE",
"184 184 LINE",
"306 47 LINE",
"321 61 LINE",
"197 198 LINE",
"337 348 LINE",
"323 361 LINE",
"185 212 LINE",
"52 362 LINE",
"38 350 LINE",
"173 198 LINE"
);
}
);
};
layerId = "B4E8C596-9C01-4F8A-BDA4-90320E25C0E6";
paths = (
{
closed = 1;
nodes = (
"44 57 LINE",
"57 45 LINE",
"184 184 LINE",
"306 47 LINE",
"321 61 LINE",
"197 198 LINE",
"337 348 LINE",
"323 361 LINE",
"185 212 LINE",
"52 362 LINE",
"38 350 LINE",
"173 198 LINE"
);
}
);
width = 372;
}
);
note = multiply;
unicode = 00D7;
},
{
glyphname = Zcaron;
lastChange = "2021-06-15 08:38:33 +0000";
layers = (
{
components = (
{
name = Z;
},
{
name = caroncomb.case;
transform = "{1, 0, 0, 1, 170, 61}";
}
);
layerId = "C7668D88-AC50-4107-9C4B-DB5D26A8FA6C";
width = 630;
},
{
background = {
components = (
{
name = z;
}
);
paths = (
{
closed = 1;
nodes = (
"147 572 LINE",
"127 572 LINE",
"201 460 LINE",
"221 460 LINE",
"295 572 LINE",
"275 572 LINE",
"211 489 LINE"
);
}
);
};
components = (
{
name = Z;
},
{
name = caroncomb.case;
transform = "{1, 0, 0, 1, 126, 61}";
}
);
layerId = "B4E8C596-9C01-4F8A-BDA4-90320E25C0E6";
width = 424;
}
);
note = Zcaron;
unicode = 017D;
},
{
glyphname = exclam;
lastChange = "2021-04-18 10:29:33 +0000";
layers = (
{
layerId = "C7668D88-AC50-4107-9C4B-DB5D26A8FA6C";
paths = (
{
closed = 1;
nodes = (
"193 167 LINE",
"243 427 LINE",
"247 505 LINE",
"99 505 LINE SMOOTH",
"64 505 OFFCURVE",
"35 479 OFFCURVE",
"35 436 CURVE",
"86 167 LINE"
);
},
{
closed = 1;
nodes = (
"40 -1 OFFCURVE",
"80 -4 OFFCURVE",
"138 -4 CURVE SMOOTH",
"197 -4 OFFCURVE",
"235 -1 OFFCURVE",
"235 59 CURVE SMOOTH",
"235 113 OFFCURVE",
"199 122 OFFCURVE",
"142 122 CURVE SMOOTH",
"85 122 OFFCURVE",
"40 115 OFFCURVE",
"40 59 CURVE SMOOTH"
);
}
);
width = 282;
},
{
background = {
paths = (
{
closed = 1;
nodes = (
"92 149 LINE",
"100 407 LINE",
"100 506 LINE",
"97 506 LINE SMOOTH",
"75 506 OFFCURVE",
"76 497 OFFCURVE",
"77 475 CURVE SMOOTH",
"81 149 LINE"
);
},
{
closed = 1;
nodes = (
"69 1 OFFCURVE",
"80 0 OFFCURVE",
"87 0 CURVE SMOOTH",
"94 0 OFFCURVE",
"104 1 OFFCURVE",
"104 15 CURVE SMOOTH",
"104 30 OFFCURVE",
"95 31 OFFCURVE",
"86 31 CURVE SMOOTH",
"77 31 OFFCURVE",
"69 29 OFFCURVE",
"69 15 CURVE SMOOTH"
);
}
);
};
layerId = "B4E8C596-9C01-4F8A-BDA4-90320E25C0E6";
paths = (
{
closed = 1;
nodes = (
"92 149 LINE",
"100 407 LINE",
"100 506 LINE",
"97 506 LINE SMOOTH",
"75 506 OFFCURVE",
"76 497 OFFCURVE",
"77 475 CURVE SMOOTH",
"81 149 LINE"
);
},
{
closed = 1;
nodes = (
"69 1 OFFCURVE",
"80 0 OFFCURVE",
"87 0 CURVE SMOOTH",
"94 0 OFFCURVE",
"104 1 OFFCURVE",
"104 15 CURVE SMOOTH",
"104 30 OFFCURVE",
"95 31 OFFCURVE",
"86 31 CURVE SMOOTH",
"77 31 OFFCURVE",
"69 29 OFFCURVE",
"69 15 CURVE SMOOTH"
);
}
);
width = 150;
}
);
note = exclam;
unicode = 0021;
},
{
glyphname = quotedbl;
lastChange = "2021-04-18 10:29:33 +0000";
layers = (
{
layerId = "C7668D88-AC50-4107-9C4B-DB5D26A8FA6C";
paths = (
{
closed = 1;
nodes = (
"124 343 LINE",
"186 485 LINE",
"73 485 LINE",
"35 343 LINE"
);
},
{
closed = 1;
nodes = (
"283 343 LINE",
"346 485 LINE",
"233 485 LINE",
"194 343 LINE"
);
}
);
width = 381;
},
{
background = {
paths = (
{
closed = 1;
nodes = (
"62 343 LINE",
"105 485 LINE",
"91 485 LINE",
"42 343 LINE"
);
},
{
closed = 1;
nodes = (
"149 343 LINE",
"198 485 LINE",
"178 485 LINE",
"135 343 LINE"
);
}
);
};
layerId = "B4E8C596-9C01-4F8A-BDA4-90320E25C0E6";
paths = (
{
closed = 1;
nodes = (
"62 343 LINE",
"105 485 LINE",
"91 485 LINE",
"42 343 LINE"
);
},
{
closed = 1;
nodes = (
"149 343 LINE",
"198 485 LINE",
"178 485 LINE",
"135 343 LINE"
);
}
);
width = 273;
}
);
note = quotedbl;
unicode = 0022;
},
{
glyphname = numbersign;
lastChange = "2021-04-18 10:29:33 +0000";
layers = (
{
layerId = "C7668D88-AC50-4107-9C4B-DB5D26A8FA6C";
paths = (
{
closed = 1;
nodes = (
"314 -14 LINE",
"402 -14 LINE",
"413 86 LINE",
"511 86 LINE",
"521 173 LINE",
"422 174 LINE",
"433 266 LINE",
"532 266 LINE",
"541 353 LINE",
"441 354 LINE",
"453 460 LINE",
"365 460 LINE",
"354 354 LINE",
"261 354 LINE",
"272 460 LINE",
"184 460 LINE",
"173 355 LINE",
"65 356 LINE",
"56 269 LINE",
"163 268 LINE",
"153 174 LINE",
"45 175 LINE",
"35 88 LINE",
"143 87 LINE",
"133 -14 LINE",
"221 -14 LINE",
"231 87 LINE",
"325 86 LINE"
);
},
{
closed = 1;
nodes = (
"251 267 LINE",
"345 266 LINE",
"334 174 LINE",
"241 174 LINE"
);
}
);
width = 576;
},
{
background = {
paths = (
{
closed = 1;
nodes = (
"271 -15 LINE",
"290 -15 LINE",
"302 121 LINE",
"408 121 LINE",
"408 140 LINE",
"304 140 LINE",
"319 310 LINE",
"432 310 LINE",
"432 329 LINE",
"320 329 LINE",
"332 460 LINE",
"312 460 LINE",
"301 329 LINE",
"192 329 LINE",
"203 459 LINE",
"183 459 LINE",
"172 330 LINE",
"76 330 LINE",
"76 310 LINE",
"171 310 LINE",
"155 140 LINE",
"53 140 LINE",
"53 121 LINE",
"154 121 LINE",
"142 -16 LINE",
"162 -16 LINE",
"175 121 LINE",
"282 121 LINE"
);
},
{
closed = 1;
nodes = (
"191 310 LINE",
"300 310 LINE",
"284 140 LINE",
"175 140 LINE"
);
}
);
};
layerId = "B4E8C596-9C01-4F8A-BDA4-90320E25C0E6";
paths = (
{
closed = 1;
nodes = (
"271 -15 LINE",
"290 -15 LINE",
"302 121 LINE",
"408 121 LINE",
"408 140 LINE",
"304 140 LINE",
"319 310 LINE",
"432 310 LINE",
"432 329 LINE",
"320 329 LINE",
"332 460 LINE",
"312 460 LINE",
"301 329 LINE",
"192 329 LINE",
"203 459 LINE",
"183 459 LINE",
"172 330 LINE",
"76 330 LINE",
"76 310 LINE",
"171 310 LINE",
"155 140 LINE",
"53 140 LINE",
"53 121 LINE",
"154 121 LINE",
"142 -16 LINE",
"162 -16 LINE",
"175 121 LINE",
"282 121 LINE"
);
},
{
closed = 1;
nodes = (
"191 310 LINE",
"300 310 LINE",
"284 140 LINE",
"175 140 LINE"
);
}
);
width = 460;
}
);
note = numbersign;
unicode = 0023;
},
{
glyphname = dollar;
lastChange = "2021-04-18 10:29:33 +0000";
layers = (
{
layerId = "C7668D88-AC50-4107-9C4B-DB5D26A8FA6C";
paths = (
{
closed = 1;
nodes = (
"154 -83 LINE",
"232 58 LINE",
"337 58 OFFCURVE",
"390 59 OFFCURVE",
"438 65 CURVE SMOOTH",
"513 73 OFFCURVE",
"588 101 OFFCURVE",
"588 196 CURVE SMOOTH",
"588 305 OFFCURVE",
"510 319 OFFCURVE",
"416 319 CURVE SMOOTH",
"372 319 OFFCURVE",
"329 319 OFFCURVE",
"285 319 CURVE SMOOTH",
"268 319 OFFCURVE",
"258 320 OFFCURVE",
"258 336 CURVE SMOOTH",
"258 355 OFFCURVE",
"295 364 OFFCURVE",
"333 363 CURVE SMOOTH",
"370 363 OFFCURVE",
"407 352 OFFCURVE",
"410 330 CURVE",
"466 330 OFFCURVE",
"521 330 OFFCURVE",
"577 330 CURVE",
"577 423 OFFCURVE",
"555 453 OFFCURVE",
"446 460 CURVE",
"467 500 OFFCURVE",
"486 536 OFFCURVE",
"507 576 CURVE",
"441 576 LINE",
"420 538 OFFCURVE",
"403 502 OFFCURVE",
"382 464 CURVE",
"365 464 OFFCURVE",
"347 465 OFFCURVE",
"329 465 CURVE SMOOTH",
"150 465 OFFCURVE",
"45 450 OFFCURVE",
"45 323 CURVE SMOOTH",
"45 207 OFFCURVE",
"112 207 OFFCURVE",
"221 207 CURVE SMOOTH",
"264 207 OFFCURVE",
"307 207 OFFCURVE",
"350 207 CURVE SMOOTH",
"361 207 OFFCURVE",
"368 202 OFFCURVE",
"368 190 CURVE SMOOTH",
"368 168 OFFCURVE",
"331 159 OFFCURVE",
"294 159 CURVE SMOOTH",
"253 160 OFFCURVE",
"211 172 OFFCURVE",
"217 194 CURVE",
"160 194 OFFCURVE",
"102 194 OFFCURVE",
"45 194 CURVE",
"45 96 OFFCURVE",
"74 72 OFFCURVE",
"168 62 CURVE",
"142 14 OFFCURVE",
"115 -35 OFFCURVE",
"89 -83 CURVE"
);
}
);
width = 633;
},
{
background = {
paths = (
{
closed = 1;
nodes = (
"73 -83 LINE",
"143 60 LINE",
"155 58 OFFCURVE",
"181 56 OFFCURVE",
"210 56 CURVE SMOOTH",
"309 56 OFFCURVE",
"390 61 OFFCURVE",
"390 177 CURVE SMOOTH",
"390 277 OFFCURVE",
"332 277 OFFCURVE",
"276 277 CURVE",
"235 277 OFFCURVE",
"195 277 OFFCURVE",
"154 277 CURVE",
"100 277 OFFCURVE",
"67 291 OFFCURVE",
"67 351 CURVE SMOOTH",
"67 440 OFFCURVE",
"131 450 OFFCURVE",
"221 450 CURVE SMOOTH",
"333 450 OFFCURVE",
"364 426 OFFCURVE",
"364 345 CURVE",
"370 345 OFFCURVE",
"375 345 OFFCURVE",
"381 345 CURVE",
"381 412 OFFCURVE",
"360 450 OFFCURVE",
"302 459 CURVE",
"321 497 OFFCURVE",
"341 537 OFFCURVE",
"360 575 CURVE",
"342 575 LINE",
"324 538 OFFCURVE",
"303 498 OFFCURVE",
"285 461 CURVE",
"265 464 OFFCURVE",
"244 465 OFFCURVE",
"221 465 CURVE SMOOTH",
"129 465 OFFCURVE",
"49 457 OFFCURVE",
"49 351 CURVE SMOOTH",
"49 259 OFFCURVE",
"115 259 OFFCURVE",
"155 259 CURVE",
"196 259 OFFCURVE",
"237 259 OFFCURVE",
"278 259 CURVE",
"345 259 OFFCURVE",
"372 244 OFFCURVE",
"372 178 CURVE SMOOTH",
"372 73 OFFCURVE",
"291 71 OFFCURVE",
"211 71 CURVE SMOOTH",
"111 71 OFFCURVE",
"65 87 OFFCURVE",
"65 177 CURVE",
"59 177 OFFCURVE",
"54 177 OFFCURVE",
"48 177 CURVE",
"48 111 OFFCURVE",
"69 79 OFFCURVE",
"126 64 CURVE",
"109 29 OFFCURVE",
"71 -48 OFFCURVE",
"54 -83 CURVE"
);
}
);
};
layerId = "B4E8C596-9C01-4F8A-BDA4-90320E25C0E6";
paths = (
{
closed = 1;
nodes = (
"73 -83 LINE",
"143 60 LINE",
"155 58 OFFCURVE",
"181 56 OFFCURVE",
"210 56 CURVE SMOOTH",
"309 56 OFFCURVE",
"390 61 OFFCURVE",
"390 177 CURVE SMOOTH",
"390 277 OFFCURVE",
"332 277 OFFCURVE",
"276 277 CURVE",
"235 277 OFFCURVE",
"195 277 OFFCURVE",
"154 277 CURVE",
"100 277 OFFCURVE",
"67 291 OFFCURVE",
"67 351 CURVE SMOOTH",
"67 440 OFFCURVE",
"131 450 OFFCURVE",
"221 450 CURVE SMOOTH",
"333 450 OFFCURVE",
"364 426 OFFCURVE",
"364 345 CURVE",
"370 345 OFFCURVE",
"375 345 OFFCURVE",
"381 345 CURVE",
"381 412 OFFCURVE",
"360 450 OFFCURVE",
"302 459 CURVE",
"321 497 OFFCURVE",
"341 537 OFFCURVE",
"360 575 CURVE",
"342 575 LINE",
"324 538 OFFCURVE",
"303 498 OFFCURVE",
"285 461 CURVE",
"265 464 OFFCURVE",
"244 465 OFFCURVE",
"221 465 CURVE SMOOTH",
"129 465 OFFCURVE",
"49 457 OFFCURVE",
"49 351 CURVE SMOOTH",
"49 259 OFFCURVE",
"115 259 OFFCURVE",
"155 259 CURVE",
"196 259 OFFCURVE",
"237 259 OFFCURVE",
"278 259 CURVE",
"345 259 OFFCURVE",
"372 244 OFFCURVE",
"372 178 CURVE SMOOTH",
"372 73 OFFCURVE",
"291 71 OFFCURVE",
"211 71 CURVE SMOOTH",
"111 71 OFFCURVE",
"65 87 OFFCURVE",
"65 177 CURVE",
"59 177 OFFCURVE",
"54 177 OFFCURVE",
"48 177 CURVE",
"48 111 OFFCURVE",
"69 79 OFFCURVE",
"126 64 CURVE",
"109 29 OFFCURVE",
"71 -48 OFFCURVE",
"54 -83 CURVE"
);
}
);
width = 410;
}
);
note = dollar;
unicode = 0024;
},
{
glyphname = percent;
lastChange = "2021-04-18 10:29:33 +0000";
layers = (
{
layerId = "C7668D88-AC50-4107-9C4B-DB5D26A8FA6C";
paths = (
{
closed = 1;
nodes = (
"421 460 LINE",
"206 -20 LINE",
"349 -20 LINE",
"564 460 LINE"
);
},
{
closed = 1;
nodes = (
"708 190 OFFCURVE",
"660 202 OFFCURVE",
"585 203 CURVE SMOOTH",
"509 203 OFFCURVE",
"450 193 OFFCURVE",
"450 100 CURVE SMOOTH",
"450 2 OFFCURVE",
"502 1 OFFCURVE",
"579 1 CURVE SMOOTH",
"656 1 OFFCURVE",
"708 2 OFFCURVE",
"708 100 CURVE SMOOTH"
);
},
{
closed = 1;
nodes = (
"601 50 OFFCURVE",
"601 43 OFFCURVE",
"579 43 CURVE SMOOTH",
"557 43 OFFCURVE",
"557 50 OFFCURVE",
"557 101 CURVE SMOOTH",
"557 151 OFFCURVE",
"557 158 OFFCURVE",
"579 158 CURVE SMOOTH",
"601 158 OFFCURVE",
"601 151 OFFCURVE",
"601 101 CURVE SMOOTH"
);
},
{
closed = 1;
nodes = (
"293 446 OFFCURVE",
"245 459 OFFCURVE",
"169 460 CURVE SMOOTH",
"94 460 OFFCURVE",
"35 450 OFFCURVE",
"35 357 CURVE SMOOTH",
"35 259 OFFCURVE",
"87 258 OFFCURVE",
"164 258 CURVE SMOOTH",
"241 258 OFFCURVE",
"293 258 OFFCURVE",
"293 357 CURVE SMOOTH"
);
},
{
closed = 1;
nodes = (
"186 307 OFFCURVE",
"186 300 OFFCURVE",
"164 300 CURVE SMOOTH",
"142 300 OFFCURVE",
"142 307 OFFCURVE",
"142 358 CURVE SMOOTH",
"142 408 OFFCURVE",
"142 414 OFFCURVE",
"164 414 CURVE SMOOTH",
"186 414 OFFCURVE",
"186 408 OFFCURVE",
"186 358 CURVE SMOOTH"
);
}
);
width = 743;
},
{
background = {
paths = (
{
closed = 1;
nodes = (
"332 460 LINE",
"161 0 LINE",
"176 0 LINE",
"347 460 LINE"
);
},
{
closed = 1;
nodes = (
"470 195 OFFCURVE",
"441 210 OFFCURVE",
"394 210 CURVE SMOOTH",
"348 210 OFFCURVE",
"312 198 OFFCURVE",
"312 105 CURVE SMOOTH",
"312 14 OFFCURVE",
"341 0 OFFCURVE",
"387 0 CURVE SMOOTH",
"434 0 OFFCURVE",
"470 11 OFFCURVE",
"470 105 CURVE SMOOTH"
);
},
{
closed = 1;
nodes = (
"454 21 OFFCURVE",
"428 10 OFFCURVE",
"391 10 CURVE SMOOTH",
"354 10 OFFCURVE",
"329 21 OFFCURVE",
"329 105 CURVE SMOOTH",
"329 189 OFFCURVE",
"355 201 OFFCURVE",
"391 201 CURVE SMOOTH",
"428 201 OFFCURVE",
"454 189 OFFCURVE",
"454 105 CURVE SMOOTH"
);
},
{
closed = 1;
nodes = (
"223 445 OFFCURVE",
"194 460 OFFCURVE",
"147 460 CURVE SMOOTH",
"101 460 OFFCURVE",
"65 448 OFFCURVE",
"65 355 CURVE SMOOTH",
"65 264 OFFCURVE",
"94 250 OFFCURVE",
"140 250 CURVE SMOOTH",
"187 250 OFFCURVE",
"223 261 OFFCURVE",
"223 355 CURVE SMOOTH"
);
},
{
closed = 1;
nodes = (
"207 271 OFFCURVE",
"181 260 OFFCURVE",
"144 260 CURVE SMOOTH",
"107 260 OFFCURVE",
"82 271 OFFCURVE",
"82 355 CURVE SMOOTH",
"82 439 OFFCURVE",
"108 451 OFFCURVE",
"144 451 CURVE SMOOTH",
"181 451 OFFCURVE",
"207 439 OFFCURVE",
"207 355 CURVE SMOOTH"
);
}
);
};
layerId = "B4E8C596-9C01-4F8A-BDA4-90320E25C0E6";
paths = (
{
closed = 1;
nodes = (
"332 460 LINE",
"161 0 LINE",
"176 0 LINE",
"347 460 LINE"
);
},
{
closed = 1;
nodes = (
"470 195 OFFCURVE",
"441 210 OFFCURVE",
"394 210 CURVE SMOOTH",
"348 210 OFFCURVE",
"312 198 OFFCURVE",
"312 105 CURVE SMOOTH",
"312 14 OFFCURVE",
"341 0 OFFCURVE",
"387 0 CURVE SMOOTH",
"434 0 OFFCURVE",
"470 11 OFFCURVE",
"470 105 CURVE SMOOTH"
);
},
{
closed = 1;
nodes = (
"454 21 OFFCURVE",
"428 10 OFFCURVE",
"391 10 CURVE SMOOTH",
"354 10 OFFCURVE",
"329 21 OFFCURVE",
"329 105 CURVE SMOOTH",
"329 189 OFFCURVE",
"355 201 OFFCURVE",
"391 201 CURVE SMOOTH",
"428 201 OFFCURVE",
"454 189 OFFCURVE",
"454 105 CURVE SMOOTH"
);
},
{
closed = 1;
nodes = (
"223 445 OFFCURVE",
"194 460 OFFCURVE",
"147 460 CURVE SMOOTH",
"101 460 OFFCURVE",
"65 448 OFFCURVE",
"65 355 CURVE SMOOTH",
"65 264 OFFCURVE",
"94 250 OFFCURVE",
"140 250 CURVE SMOOTH",
"187 250 OFFCURVE",
"223 261 OFFCURVE",
"223 355 CURVE SMOOTH"
);
},
{
closed = 1;
nodes = (
"207 271 OFFCURVE",
"181 260 OFFCURVE",
"144 260 CURVE SMOOTH",
"107 260 OFFCURVE",
"82 271 OFFCURVE",
"82 355 CURVE SMOOTH",
"82 439 OFFCURVE",
"108 451 OFFCURVE",
"144 451 CURVE SMOOTH",
"181 451 OFFCURVE",
"207 439 OFFCURVE",
"207 355 CURVE SMOOTH"
);
}
);
width = 535;
}
);
note = percent;
unicode = 0025;
},
{
glyphname = ampersand;
lastChange = "2021-04-18 10:29:33 +0000";
layers = (
{
layerId = "C7668D88-AC50-4107-9C4B-DB5D26A8FA6C";
paths = (
{
closed = 1;
nodes = (
"697 84 LINE",
"610 124 LINE",
"610 155 OFFCURVE",
"607 188 OFFCURVE",
"603 205 CURVE SMOOTH",
"583 275 OFFCURVE",
"495 276 OFFCURVE",
"389 276 CURVE",
"389 227 LINE",
"352 244 LINE SMOOTH",
"293 272 OFFCURVE",
"277 291 OFFCURVE",
"277 316 CURVE SMOOTH",
"277 364 OFFCURVE",
"392 362 OFFCURVE",
"433 362 CURVE SMOOTH",
"469 362 OFFCURVE",
"548 362 OFFCURVE",
"591 345 CURVE",
"591 447 OFFCURVE",
"544 456 OFFCURVE",
"457 460 CURVE SMOOTH",
"376 464 OFFCURVE",
"244 469 OFFCURVE",
"155 456 CURVE SMOOTH",
"95 447 OFFCURVE",
"67 424 OFFCURVE",
"67 360 CURVE SMOOTH",
"67 300 OFFCURVE",
"80 271 OFFCURVE",
"116 264 CURVE",
"56 255 OFFCURVE",
"36 195 OFFCURVE",
"36 132 CURVE SMOOTH",
"36 38 OFFCURVE",
"71 9 OFFCURVE",
"157 1 CURVE SMOOTH",
"237 -6 OFFCURVE",
"360 -6 OFFCURVE",
"478 1 CURVE SMOOTH",
"533 4 OFFCURVE",
"568 12 OFFCURVE",
"588 33 CURVE",
"624 15 OFFCURVE",
"661 -3 OFFCURVE",
"697 -21 CURVE"
);
},
{
closed = 1;
nodes = (
"316 172 OFFCURVE",
"352 153 OFFCURVE",
"388 135 CURVE",
"382 99 OFFCURVE",
"348 98 OFFCURVE",
"333 98 CURVE SMOOTH",
"327 98 OFFCURVE",
"321 98 OFFCURVE",
"316 99 CURVE SMOOTH",
"288 104 OFFCURVE",
"280 120 OFFCURVE",
"280 149 CURVE SMOOTH",
"280 163 OFFCURVE",
"280 176 OFFCURVE",
"280 190 CURVE"
);
}
);
width = 732;
},
{
background = {
paths = (
{
closed = 1;
nodes = (
"472 23 LINE",
"401 75 LINE",
"404 111 OFFCURVE",
"404 187 OFFCURVE",
"404 242 CURVE SMOOTH",
"404 254 OFFCURVE",
"404 261 OFFCURVE",
"384 261 CURVE",
"384 88 LINE",
"136 271 LINE SMOOTH",
"106 295 OFFCURVE",
"86 320 OFFCURVE",
"86 358 CURVE SMOOTH",
"86 444 OFFCURVE",
"176 448 OFFCURVE",
"238 448 CURVE SMOOTH",
"282 448 OFFCURVE",
"367 442 OFFCURVE",
"393 423 CURVE",
"393 451 OFFCURVE",
"360 455 OFFCURVE",
"333 459 CURVE SMOOTH",
"304 462 OFFCURVE",
"270 464 OFFCURVE",
"238 464 CURVE SMOOTH",
"163 464 OFFCURVE",
"66 460 OFFCURVE",
"66 358 CURVE SMOOTH",
"66 313 OFFCURVE",
"82 293 OFFCURVE",
"105 274 CURVE",
"64 265 OFFCURVE",
"41 204 OFFCURVE",
"41 148 CURVE SMOOTH",
"41 37 OFFCURVE",
"72 10 OFFCURVE",
"126 0 CURVE SMOOTH",
"182 -10 OFFCURVE",
"279 -12 OFFCURVE",
"332 2 CURVE SMOOTH",
"361 10 OFFCURVE",
"385 24 OFFCURVE",
"396 54 CURVE",
"432 27 OFFCURVE",
"460 7 OFFCURVE",
"472 0 CURVE"
);
},
{
closed = 1;
nodes = (
"205 195 OFFCURVE",
"293 129 OFFCURVE",
"382 64 CURVE",
"376 36 OFFCURVE",
"352 23 OFFCURVE",
"324 16 CURVE SMOOTH",
"272 3 OFFCURVE",
"184 4 OFFCURVE",
"134 15 CURVE SMOOTH",
"86 26 OFFCURVE",
"61 54 OFFCURVE",
"61 150 CURVE SMOOTH",
"61 182 OFFCURVE",
"73 253 OFFCURVE",
"116 260 CURVE"
);
}
);
};
layerId = "B4E8C596-9C01-4F8A-BDA4-90320E25C0E6";
paths = (
{
closed = 1;
nodes = (
"472 23 LINE",
"401 75 LINE",
"404 111 OFFCURVE",
"404 187 OFFCURVE",
"404 242 CURVE SMOOTH",
"404 254 OFFCURVE",
"404 261 OFFCURVE",
"384 261 CURVE",
"384 88 LINE",
"136 271 LINE SMOOTH",
"106 295 OFFCURVE",
"86 320 OFFCURVE",
"86 358 CURVE SMOOTH",
"86 444 OFFCURVE",
"176 448 OFFCURVE",
"238 448 CURVE SMOOTH",
"282 448 OFFCURVE",
"367 442 OFFCURVE",
"393 423 CURVE",
"393 451 OFFCURVE",
"360 455 OFFCURVE",
"333 459 CURVE SMOOTH",
"304 462 OFFCURVE",
"270 464 OFFCURVE",
"238 464 CURVE SMOOTH",
"163 464 OFFCURVE",
"66 460 OFFCURVE",
"66 358 CURVE SMOOTH",
"66 313 OFFCURVE",
"82 293 OFFCURVE",
"105 274 CURVE",
"64 265 OFFCURVE",
"41 204 OFFCURVE",
"41 148 CURVE SMOOTH",
"41 37 OFFCURVE",
"72 10 OFFCURVE",
"126 0 CURVE SMOOTH",
"182 -10 OFFCURVE",
"279 -12 OFFCURVE",
"332 2 CURVE SMOOTH",
"361 10 OFFCURVE",
"385 24 OFFCURVE",
"396 54 CURVE",
"432 27 OFFCURVE",
"460 7 OFFCURVE",
"472 0 CURVE"
);
},
{
closed = 1;
nodes = (
"205 195 OFFCURVE",
"293 129 OFFCURVE",
"382 64 CURVE",
"376 36 OFFCURVE",
"352 23 OFFCURVE",
"324 16 CURVE SMOOTH",
"272 3 OFFCURVE",
"184 4 OFFCURVE",
"134 15 CURVE SMOOTH",
"86 26 OFFCURVE",
"61 54 OFFCURVE",
"61 150 CURVE SMOOTH",
"61 182 OFFCURVE",
"73 253 OFFCURVE",
"116 260 CURVE"
);
}
);
width = 497;
}
);
note = ampersand;
unicode = 0026;
},
{
glyphname = parenleft;
lastChange = "2021-04-18 10:29:33 +0000";
layers = (
{
layerId = "C7668D88-AC50-4107-9C4B-DB5D26A8FA6C";
paths = (
{
closed = 1;
nodes = (
"372 535 LINE",
"142 535 OFFCURVE",
"35 491 OFFCURVE",
"35 212 CURVE SMOOTH",
"35 -81 OFFCURVE",
"142 -98 OFFCURVE",
"371 -98 CURVE",
"371 -22 LINE",
"294 -22 OFFCURVE",
"258 7 OFFCURVE",
"258 215 CURVE SMOOTH",
"258 423 OFFCURVE",
"295 450 OFFCURVE",
"372 450 CURVE"
);
}
);
width = 407;
},
{
background = {
paths = (
{
closed = 1;
nodes = (
"187 522 LINE",
"94 522 OFFCURVE",
"22 478 OFFCURVE",
"22 242 CURVE SMOOTH",
"22 6 OFFCURVE",
"92 -38 OFFCURVE",
"187 -38 CURVE",
"187 -27 LINE",
"105 -27 OFFCURVE",
"42 19 OFFCURVE",
"42 242 CURVE SMOOTH",
"42 465 OFFCURVE",
"105 509 OFFCURVE",
"187 509 CURVE"
);
}
);
};
layerId = "B4E8C596-9C01-4F8A-BDA4-90320E25C0E6";
paths = (
{
closed = 1;
nodes = (
"187 522 LINE",
"94 522 OFFCURVE",
"22 478 OFFCURVE",
"22 242 CURVE SMOOTH",
"22 6 OFFCURVE",
"92 -38 OFFCURVE",
"187 -38 CURVE",
"187 -27 LINE",
"105 -27 OFFCURVE",
"42 19 OFFCURVE",
"42 242 CURVE SMOOTH",
"42 465 OFFCURVE",
"105 509 OFFCURVE",
"187 509 CURVE"
);
}
);
width = 228;
}
);
leftKerningGroup = parenleft;
note = parenleft;
unicode = 0028;
},
{
glyphname = parenright;
lastChange = "2021-04-18 10:29:33 +0000";
layers = (
{
layerId = "C7668D88-AC50-4107-9C4B-DB5D26A8FA6C";
paths = (
{
closed = 1;
nodes = (
"35 450 LINE",
"112 450 OFFCURVE",
"149 423 OFFCURVE",
"149 215 CURVE SMOOTH",
"149 7 OFFCURVE",
"113 -22 OFFCURVE",
"36 -22 CURVE",
"36 -98 LINE",
"265 -98 OFFCURVE",
"372 -81 OFFCURVE",
"372 212 CURVE SMOOTH",
"372 491 OFFCURVE",
"265 535 OFFCURVE",
"35 535 CURVE"
);
}
);
width = 407;
},
{
background = {
paths = (
{
closed = 1;
nodes = (
"22 509 LINE",
"104 509 OFFCURVE",
"167 465 OFFCURVE",
"167 242 CURVE SMOOTH",
"167 19 OFFCURVE",
"104 -27 OFFCURVE",
"22 -27 CURVE",
"22 -38 LINE",
"117 -38 OFFCURVE",
"187 6 OFFCURVE",
"187 242 CURVE SMOOTH",
"187 478 OFFCURVE",
"115 522 OFFCURVE",
"22 522 CURVE"
);
}
);
};
layerId = "B4E8C596-9C01-4F8A-BDA4-90320E25C0E6";
paths = (
{
closed = 1;
nodes = (
"22 509 LINE",
"104 509 OFFCURVE",
"167 465 OFFCURVE",
"167 242 CURVE SMOOTH",
"167 19 OFFCURVE",
"104 -27 OFFCURVE",
"22 -27 CURVE",
"22 -38 LINE",
"117 -38 OFFCURVE",
"187 6 OFFCURVE",
"187 242 CURVE SMOOTH",
"187 478 OFFCURVE",
"115 522 OFFCURVE",
"22 522 CURVE"
);
}
);
width = 228;
}
);
note = parenright;
unicode = 0029;
},
{
glyphname = asterisk;
lastChange = "2021-04-18 10:29:33 +0000";
layers = (
{
layerId = "C7668D88-AC50-4107-9C4B-DB5D26A8FA6C";
paths = (
{
closed = 1;
nodes = (
"426 171 LINE",
"317 291 LINE",
"476 324 LINE",
"443 430 LINE",
"293 363 LINE",
"311 525 LINE",
"201 525 LINE",
"218 362 LINE",
"69 430 LINE",
"35 324 LINE",
"194 291 LINE",
"85 171 LINE",
"174 106 LINE",
"256 247 LINE",
"337 106 LINE"
);
}
);
width = 511;
},
{
background = {
paths = (
{
closed = 1;
nodes = (
"412 94 LINE",
"285 249 LINE",
"478 300 LINE",
"467 335 LINE",
"280 262 LINE",
"291 462 LINE",
"254 462 LINE",
"266 262 LINE",
"79 334 LINE",
"68 299 LINE",
"262 249 LINE",
"135 93 LINE",
"165 72 LINE",
"273 241 LINE",
"382 72 LINE"
);
}
);
};
layerId = "B4E8C596-9C01-4F8A-BDA4-90320E25C0E6";
paths = (
{
closed = 1;
nodes = (
"412 94 LINE",
"285 249 LINE",
"478 300 LINE",
"467 335 LINE",
"280 262 LINE",
"291 462 LINE",
"254 462 LINE",
"266 262 LINE",
"79 334 LINE",
"68 299 LINE",
"262 249 LINE",
"135 93 LINE",
"165 72 LINE",
"273 241 LINE",
"382 72 LINE"
);
}
);
width = 514;
}
);
note = asterisk;
unicode = 002A;
},
{
glyphname = plus;
lastChange = "2021-04-18 10:29:33 +0000";
layers = (
{
layerId = "C7668D88-AC50-4107-9C4B-DB5D26A8FA6C";
paths = (
{
closed = 1;
nodes = (
"417 -42 LINE",
"417 132 LINE",
"611 132 LINE",
"611 245 LINE",
"417 245 LINE",
"417 418 LINE",
"220 418 LINE",
"220 245 LINE",
"35 245 LINE",
"35 132 LINE",
"220 132 LINE",
"220 -42 LINE"
);
}
);
width = 646;
},
{
background = {
paths = (
{
closed = 1;
nodes = (
"207 0 LINE",
"207 176 LINE",
"346 176 LINE",
"346 193 LINE",
"207 193 LINE",
"207 354 LINE",
"190 354 LINE",
"190 193 LINE",
"52 193 LINE",
"52 176 LINE",
"190 176 LINE",
"190 0 LINE"
);
}
);
};
layerId = "B4E8C596-9C01-4F8A-BDA4-90320E25C0E6";
paths = (
{
closed = 1;
nodes = (
"207 0 LINE",
"207 176 LINE",
"346 176 LINE",
"346 193 LINE",
"207 193 LINE",
"207 354 LINE",
"190 354 LINE",
"190 193 LINE",
"52 193 LINE",
"52 176 LINE",
"190 176 LINE",
"190 0 LINE"
);
}
);
width = 398;
}
);
note = plus;
unicode = 002B;
},
{
glyphname = comma;
lastChange = "2021-04-18 10:29:33 +0000";
layers = (
{
layerId = "C7668D88-AC50-4107-9C4B-DB5D26A8FA6C";
paths = (
{
closed = 1;
nodes = (
"152 -142 LINE",
"192 -92 OFFCURVE",
"247 3 OFFCURVE",
"247 60 CURVE SMOOTH",
"247 114 OFFCURVE",
"211 122 OFFCURVE",
"152 122 CURVE SMOOTH",
"94 122 OFFCURVE",
"47 115 OFFCURVE",
"47 60 CURVE SMOOTH",
"47 17 OFFCURVE",
"68 5 OFFCURVE",
"100 1 CURVE SMOOTH",
"106 1 OFFCURVE",
"112 0 OFFCURVE",
"118 0 CURVE",
"93 -47 OFFCURVE",
"63 -95 OFFCURVE",
"35 -142 CURVE"
);
}
);
width = 282;
},
{
background = {
paths = (
{
closed = 1;
nodes = (
"76 -67 LINE",
"79 -61 OFFCURVE",
"100 -12 OFFCURVE",
"100 13 CURVE SMOOTH",
"100 27 OFFCURVE",
"95 31 OFFCURVE",
"82 31 CURVE SMOOTH",
"68 31 OFFCURVE",
"60 29 OFFCURVE",
"60 15 CURVE SMOOTH",
"60 1 OFFCURVE",
"71 0 OFFCURVE",
"78 0 CURVE SMOOTH",
"79 0 OFFCURVE",
"80 0 OFFCURVE",
"81 0 CURVE",
"81 -10 OFFCURVE",
"74 -43 OFFCURVE",
"65 -67 CURVE"
);
}
);
};
layerId = "B4E8C596-9C01-4F8A-BDA4-90320E25C0E6";
paths = (
{
closed = 1;
nodes = (
"76 -67 LINE",
"79 -61 OFFCURVE",
"100 -12 OFFCURVE",
"100 13 CURVE SMOOTH",
"100 27 OFFCURVE",
"95 31 OFFCURVE",
"82 31 CURVE SMOOTH",
"68 31 OFFCURVE",
"60 29 OFFCURVE",
"60 15 CURVE SMOOTH",
"60 1 OFFCURVE",
"71 0 OFFCURVE",
"78 0 CURVE SMOOTH",
"79 0 OFFCURVE",
"80 0 OFFCURVE",
"81 0 CURVE",
"81 -10 OFFCURVE",
"74 -43 OFFCURVE",
"65 -67 CURVE"
);
}
);
width = 160;
}
);
leftKerningGroup = comma;
note = comma;
rightKerningGroup = comma;
unicode = 002C;
},
{
glyphname = hyphen;
lastChange = "2021-04-18 10:29:33 +0000";
layers = (
{
layerId = "C7668D88-AC50-4107-9C4B-DB5D26A8FA6C";
paths = (
{
closed = 1;
nodes = (
"35 122 LINE",
"352 122 LINE",
"352 228 LINE",
"35 228 LINE"
);
}
);
width = 387;
},
{
background = {
paths = (
{
closed = 1;
nodes = (
"52 196 LINE",
"248 196 LINE",
"248 210 LINE",
"52 210 LINE"
);
}
);
};
layerId = "B4E8C596-9C01-4F8A-BDA4-90320E25C0E6";
paths = (
{
closed = 1;
nodes = (
"52 196 LINE",
"248 196 LINE",
"248 210 LINE",
"52 210 LINE"
);
}
);
width = 300;
}
);
note = hyphen;
unicode = 002D;
},
{
glyphname = period;
lastChange = "2021-04-18 10:29:33 +0000";
layers = (
{
layerId = "C7668D88-AC50-4107-9C4B-DB5D26A8FA6C";
paths = (
{
closed = 1;
nodes = (
"35 -1 OFFCURVE",
"75 -4 OFFCURVE",
"133 -4 CURVE SMOOTH",
"192 -4 OFFCURVE",
"230 -1 OFFCURVE",
"230 59 CURVE SMOOTH",
"230 113 OFFCURVE",
"194 122 OFFCURVE",
"137 122 CURVE SMOOTH",
"80 122 OFFCURVE",
"35 115 OFFCURVE",
"35 59 CURVE SMOOTH"
);
}
);
width = 265;
},
{
background = {
paths = (
{
closed = 1;
nodes = (
"105 1 OFFCURVE",
"116 0 OFFCURVE",
"123 0 CURVE SMOOTH",
"130 0 OFFCURVE",
"140 1 OFFCURVE",
"140 15 CURVE SMOOTH",
"140 30 OFFCURVE",
"131 31 OFFCURVE",
"122 31 CURVE SMOOTH",
"113 31 OFFCURVE",
"105 29 OFFCURVE",
"105 15 CURVE SMOOTH"
);
}
);
};
layerId = "B4E8C596-9C01-4F8A-BDA4-90320E25C0E6";
paths = (
{
closed = 1;
nodes = (
"105 1 OFFCURVE",
"116 0 OFFCURVE",
"123 0 CURVE SMOOTH",
"130 0 OFFCURVE",
"140 1 OFFCURVE",
"140 15 CURVE SMOOTH",
"140 30 OFFCURVE",
"131 31 OFFCURVE",
"122 31 CURVE SMOOTH",
"113 31 OFFCURVE",
"105 29 OFFCURVE",
"105 15 CURVE SMOOTH"
);
}
);
width = 203;
}
);
leftKerningGroup = comma;
note = period;
rightKerningGroup = comma;
unicode = 002E;
},
{
glyphname = slash;
lastChange = "2021-04-18 10:29:33 +0000";
layers = (
{
layerId = "C7668D88-AC50-4107-9C4B-DB5D26A8FA6C";
paths = (
{
closed = 1;
nodes = (
"177 -38 LINE",
"445 559 LINE",
"302 559 LINE",
"35 -38 LINE"
);
}
);
width = 480;
},
{
background = {
paths = (
{
closed = 1;
nodes = (
"67 -38 LINE",
"298 581 LINE",
"278 581 LINE",
"47 -38 LINE"
);
}
);
};
layerId = "B4E8C596-9C01-4F8A-BDA4-90320E25C0E6";
paths = (
{
closed = 1;
nodes = (
"67 -38 LINE",
"298 581 LINE",
"278 581 LINE",
"47 -38 LINE"
);
}
);
width = 345;
}
);
note = slash;
unicode = 002F;
},
{
glyphname = zero;
lastChange = "2021-04-18 10:29:33 +0000";
layers = (
{
layerId = "C7668D88-AC50-4107-9C4B-DB5D26A8FA6C";
paths = (
{
closed = 1;
nodes = (
"37 28 OFFCURVE",
"138 -8 OFFCURVE",
"296 -8 CURVE SMOOTH",
"453 -8 OFFCURVE",
"576 20 OFFCURVE",
"576 231 CURVE SMOOTH",
"576 435 OFFCURVE",
"474 470 OFFCURVE",
"316 470 CURVE SMOOTH",
"160 470 OFFCURVE",
"37 442 OFFCURVE",
"37 231 CURVE SMOOTH"
);
},
{
closed = 1;
nodes = (
"235 373 OFFCURVE",
"264 394 OFFCURVE",
"308 394 CURVE SMOOTH",
"352 394 OFFCURVE",
"380 373 OFFCURVE",
"380 231 CURVE SMOOTH",
"380 91 OFFCURVE",
"352 69 OFFCURVE",
"308 69 CURVE SMOOTH",
"263 69 OFFCURVE",
"235 91 OFFCURVE",
"235 231 CURVE SMOOTH"
);
}
);
width = 612;
},
{
background = {
paths = (
{
closed = 1;
nodes = (
"41 15 OFFCURVE",
"118 -7 OFFCURVE",
"216 -7 CURVE SMOOTH",
"314 -7 OFFCURVE",
"402 9 OFFCURVE",
"402 231 CURVE SMOOTH",
"402 447 OFFCURVE",
"324 469 OFFCURVE",
"226 469 CURVE SMOOTH",
"129 469 OFFCURVE",
"41 453 OFFCURVE",
"41 231 CURVE SMOOTH"
);
},
{
closed = 1;
nodes = (
"62 426 OFFCURVE",
"120 453 OFFCURVE",
"220 453 CURVE SMOOTH",
"321 453 OFFCURVE",
"381 426 OFFCURVE",
"381 230 CURVE SMOOTH",
"381 35 OFFCURVE",
"321 9 OFFCURVE",
"220 9 CURVE SMOOTH",
"120 9 OFFCURVE",
"62 35 OFFCURVE",
"62 230 CURVE SMOOTH"
);
}
);
};
layerId = "B4E8C596-9C01-4F8A-BDA4-90320E25C0E6";
paths = (
{
closed = 1;
nodes = (
"41 15 OFFCURVE",
"118 -7 OFFCURVE",
"216 -7 CURVE SMOOTH",
"314 -7 OFFCURVE",
"402 9 OFFCURVE",
"402 231 CURVE SMOOTH",
"402 447 OFFCURVE",
"324 469 OFFCURVE",
"226 469 CURVE SMOOTH",
"129 469 OFFCURVE",
"41 453 OFFCURVE",
"41 231 CURVE SMOOTH"
);
},
{
closed = 1;
nodes = (
"62 426 OFFCURVE",
"120 453 OFFCURVE",
"220 453 CURVE SMOOTH",
"321 453 OFFCURVE",
"381 426 OFFCURVE",
"381 230 CURVE SMOOTH",
"381 35 OFFCURVE",
"321 9 OFFCURVE",
"220 9 CURVE SMOOTH",
"120 9 OFFCURVE",
"62 35 OFFCURVE",
"62 230 CURVE SMOOTH"
);
}
);
width = 444;
}
);
leftKerningGroup = zero;
note = zero;
rightKerningGroup = zero;
unicode = 0030;
},
{
glyphname = one;
lastChange = "2021-04-18 10:29:33 +0000";
layers = (
{
background = {
hints = (
{
horizontal = 1;
place = "{0, 21}";
target = up;
type = BottomGhost;
},
{
horizontal = 1;
place = "{360, 98}";
type = Stem;
},
{
place = "{139, 227}";
type = Stem;
}
);
paths = (
{
closed = 1;
nodes = (
"366 0 LINE",
"366 375 LINE SMOOTH",
"366 431 OFFCURVE",
"335 458 OFFCURVE",
"197 458 CURVE SMOOTH",
"145 458 OFFCURVE",
"80 455 OFFCURVE",
"0 446 CURVE",
"0 349 LINE",
"101 368 OFFCURVE",
"139 365 OFFCURVE",
"139 324 CURVE SMOOTH",
"138 0 LINE"
);
}
);
};
layerId = "C7668D88-AC50-4107-9C4B-DB5D26A8FA6C";
paths = (
{
closed = 1;
nodes = (
"366 0 LINE",
"366 57 OFFCURVE",
"370 289 OFFCURVE",
"368 372 CURVE SMOOTH",
"366 431 OFFCURVE",
"329 459 OFFCURVE",
"201 459 CURVE SMOOTH",
"147 459 OFFCURVE",
"80 455 OFFCURVE",
"0 446 CURVE",
"0 349 LINE",
"61 360 OFFCURVE",
"107 364 OFFCURVE",
"120 356 CURVE SMOOTH",
"131 349 OFFCURVE",
"139 338 OFFCURVE",
"139 274 CURVE SMOOTH",
"139 248 OFFCURVE",
"138 131 OFFCURVE",
"138 0 CURVE"
);
}
);
width = 405;
},
{
background = {
paths = (
{
closed = 1;
nodes = (
"155 0 LINE",
"155 57 OFFCURVE",
"156 289 OFFCURVE",
"156 395 CURVE SMOOTH",
"156 421 OFFCURVE",
"159 462 OFFCURVE",
"110 462 CURVE SMOOTH",
"92 462 OFFCURVE",
"50 451 OFFCURVE",
"42 448 CURVE",
"42 432 LINE",
"48 436 OFFCURVE",
"76 446 OFFCURVE",
"97 446 CURVE SMOOTH",
"122 446 OFFCURVE",
"135 439 OFFCURVE",
"135 394 CURVE SMOOTH",
"135 263 OFFCURVE",
"135 131 OFFCURVE",
"135 0 CURVE"
);
}
);
};
layerId = "B4E8C596-9C01-4F8A-BDA4-90320E25C0E6";
paths = (
{
closed = 1;
nodes = (
"155 0 LINE",
"155 57 OFFCURVE",
"156 289 OFFCURVE",
"156 395 CURVE SMOOTH",
"156 421 OFFCURVE",
"159 462 OFFCURVE",
"110 462 CURVE SMOOTH",
"92 462 OFFCURVE",
"50 451 OFFCURVE",
"42 448 CURVE",
"42 432 LINE",
"48 436 OFFCURVE",
"76 446 OFFCURVE",
"97 446 CURVE SMOOTH",
"122 446 OFFCURVE",
"135 439 OFFCURVE",
"135 394 CURVE SMOOTH",
"135 263 OFFCURVE",
"135 131 OFFCURVE",
"135 0 CURVE"
);
}
);
width = 236;
}
);
note = one;
rightKerningGroup = one;
unicode = 0031;
},
{
glyphname = two;
lastChange = "2021-04-18 10:29:33 +0000";
layers = (
{
background = {
hints = (
{
horizontal = 1;
place = "{-1, 139}";
type = Stem;
},
{
horizontal = 1;
place = "{139, 142}";
type = Stem;
},
{
horizontal = 1;
place = "{285, 141}";
type = Stem;
},
{
place = "{-27, 211}";
type = Stem;
},
{
place = "{341, 214}";
type = Stem;
}
);
paths = (
{
closed = 1;
nodes = (
"619 0 LINE",
"619 118 LINE",
"235 118 LINE",
"235 139 LINE SMOOTH",
"235 151 OFFCURVE",
"242 160 OFFCURVE",
"261 160 CURVE SMOOTH",
"297 160 OFFCURVE",
"334 160 OFFCURVE",
"370 160 CURVE SMOOTH",
"529 160 OFFCURVE",
"609 170 OFFCURVE",
"609 307 CURVE SMOOTH",
"609 465 OFFCURVE",
"463 461 OFFCURVE",
"320 461 CURVE SMOOTH",
"231 461 OFFCURVE",
"155 455 OFFCURVE",
"123 448 CURVE SMOOTH",
"73 437 OFFCURVE",
"57 422 OFFCURVE",
"57 394 CURVE SMOOTH",
"57 394 OFFCURVE",
"57 321 OFFCURVE",
"57 321 CURVE",
"73 329 OFFCURVE",
"113 333 OFFCURVE",
"160 336 CURVE SMOOTH",
"215 339 OFFCURVE",
"275 340 OFFCURVE",
"312 340 CURVE SMOOTH",
"375 340 OFFCURVE",
"427 344 OFFCURVE",
"427 315 CURVE SMOOTH",
"427 288 OFFCURVE",
"415 287 OFFCURVE",
"370 287 CURVE SMOOTH",
"321 287 OFFCURVE",
"273 287 OFFCURVE",
"224 287 CURVE SMOOTH",
"123 287 OFFCURVE",
"55 241 OFFCURVE",
"55 125 CURVE SMOOTH",
"55 83 OFFCURVE",
"55 42 OFFCURVE",
"55 0 CURVE"
);
}
);
};
layerId = "C7668D88-AC50-4107-9C4B-DB5D26A8FA6C";
paths = (
{
closed = 1;
nodes = (
"619 0 LINE",
"619 118 LINE",
"265 118 LINE",
"265 126 LINE SMOOTH",
"265 145 OFFCURVE",
"270 160 OFFCURVE",
"321 160 CURVE SMOOTH",
"367 160 OFFCURVE",
"389 160 OFFCURVE",
"407 160 CURVE SMOOTH",
"529 160 OFFCURVE",
"609 174 OFFCURVE",
"609 312 CURVE SMOOTH",
"609 449 OFFCURVE",
"498 461 OFFCURVE",
"320 461 CURVE SMOOTH",
"134 461 OFFCURVE",
"57 448 OFFCURVE",
"57 394 CURVE SMOOTH",
"57 394 OFFCURVE",
"57 345 OFFCURVE",
"57 319 CURVE",
"75 331 OFFCURVE",
"146 335 OFFCURVE",
"160 336 CURVE SMOOTH",
"177 337 OFFCURVE",
"213 340 OFFCURVE",
"270 340 CURVE SMOOTH",
"315 340 OFFCURVE",
"333 340 OFFCURVE",
"365 340 CURVE SMOOTH",
"393 340 OFFCURVE",
"417 339 OFFCURVE",
"417 313 CURVE SMOOTH",
"417 286 OFFCURVE",
"386 287 OFFCURVE",
"354 287 CURVE SMOOTH",
"313 287 OFFCURVE",
"299 287 OFFCURVE",
"258 287 CURVE SMOOTH",
"66 287 OFFCURVE",
"55 247 OFFCURVE",
"55 95 CURVE SMOOTH",
"55 63 OFFCURVE",
"55 32 OFFCURVE",
"55 0 CURVE"
);
}
);
width = 670;
},
{
background = {
paths = (
{
closed = 1;
nodes = (
"395 0 LINE",
"395 18 LINE",
"78 18 LINE",
"78 99 LINE SMOOTH",
"78 191 OFFCURVE",
"120 208 OFFCURVE",
"194 208 CURVE SMOOTH",
"221 208 OFFCURVE",
"249 208 OFFCURVE",
"276 208 CURVE SMOOTH",
"331 208 OFFCURVE",
"395 231 OFFCURVE",
"395 334 CURVE SMOOTH",
"395 455 OFFCURVE",
"313 463 OFFCURVE",
"212 463 CURVE SMOOTH",
"162 463 OFFCURVE",
"63 450 OFFCURVE",
"63 423 CURVE SMOOTH",
"63 423 OFFCURVE",
"63 406 OFFCURVE",
"63 406 CURVE",
"69 418 OFFCURVE",
"88 427 OFFCURVE",
"112 433 CURVE SMOOTH",
"147 443 OFFCURVE",
"193 447 OFFCURVE",
"227 447 CURVE SMOOTH",
"254 447 OFFCURVE",
"278 446 OFFCURVE",
"298 441 CURVE SMOOTH",
"346 431 OFFCURVE",
"373 403 OFFCURVE",
"373 334 CURVE SMOOTH",
"373 253 OFFCURVE",
"332 226 OFFCURVE",
"275 226 CURVE SMOOTH",
"250 226 OFFCURVE",
"225 226 OFFCURVE",
"200 226 CURVE SMOOTH",
"119 226 OFFCURVE",
"58 215 OFFCURVE",
"58 95 CURVE SMOOTH",
"58 63 OFFCURVE",
"58 32 OFFCURVE",
"58 0 CURVE"
);
}
);
};
layerId = "B4E8C596-9C01-4F8A-BDA4-90320E25C0E6";
paths = (
{
closed = 1;
nodes = (
"395 0 LINE",
"395 18 LINE",
"78 18 LINE",
"78 99 LINE SMOOTH",
"78 191 OFFCURVE",
"120 208 OFFCURVE",
"194 208 CURVE SMOOTH",
"221 208 OFFCURVE",
"249 208 OFFCURVE",
"276 208 CURVE SMOOTH",
"331 208 OFFCURVE",
"395 231 OFFCURVE",
"395 334 CURVE SMOOTH",
"395 455 OFFCURVE",
"313 463 OFFCURVE",
"212 463 CURVE SMOOTH",
"162 463 OFFCURVE",
"63 450 OFFCURVE",
"63 423 CURVE SMOOTH",
"63 423 OFFCURVE",
"63 406 OFFCURVE",
"63 406 CURVE",
"69 418 OFFCURVE",
"88 427 OFFCURVE",
"112 433 CURVE SMOOTH",
"147 443 OFFCURVE",
"193 447 OFFCURVE",
"227 447 CURVE SMOOTH",
"254 447 OFFCURVE",
"278 446 OFFCURVE",
"298 441 CURVE SMOOTH",
"346 431 OFFCURVE",
"373 403 OFFCURVE",
"373 334 CURVE SMOOTH",
"373 253 OFFCURVE",
"332 226 OFFCURVE",
"275 226 CURVE SMOOTH",
"250 226 OFFCURVE",
"225 226 OFFCURVE",
"200 226 CURVE SMOOTH",
"119 226 OFFCURVE",
"58 215 OFFCURVE",
"58 95 CURVE SMOOTH",
"58 63 OFFCURVE",
"58 32 OFFCURVE",
"58 0 CURVE"
);
}
);
width = 444;
}
);
note = two;
unicode = 0032;
},
{
glyphname = three;
lastChange = "2021-04-18 10:29:33 +0000";
layers = (
{
layerId = "C7668D88-AC50-4107-9C4B-DB5D26A8FA6C";
paths = (
{
closed = 1;
nodes = (
"108 329 OFFCURVE",
"208 339 OFFCURVE",
"256 339 CURVE SMOOTH",
"270 339 OFFCURVE",
"283 339 OFFCURVE",
"297 339 CURVE SMOOTH",
"343 339 OFFCURVE",
"370 334 OFFCURVE",
"370 313 CURVE SMOOTH",
"370 294 OFFCURVE",
"352 292 OFFCURVE",
"346 292 CURVE SMOOTH",
"112 292 LINE",
"112 176 LINE",
"341 176 LINE SMOOTH",
"352 176 OFFCURVE",
"374 176 OFFCURVE",
"374 150 CURVE SMOOTH",
"374 124 OFFCURVE",
"338 118 OFFCURVE",
"280 118 CURVE SMOOTH",
"216 118 OFFCURVE",
"120 124 OFFCURVE",
"38 145 CURVE",
"38 122 OFFCURVE",
"38 100 OFFCURVE",
"38 77 CURVE SMOOTH",
"38 55 OFFCURVE",
"47 27 OFFCURVE",
"88 14 CURVE SMOOTH",
"152 -2 OFFCURVE",
"220 -4 OFFCURVE",
"311 -4 CURVE SMOOTH",
"516 -4 OFFCURVE",
"595 19 OFFCURVE",
"595 145 CURVE SMOOTH",
"595 206 OFFCURVE",
"581 243 OFFCURVE",
"521 243 CURVE",
"521 244 LINE",
"565 248 OFFCURVE",
"581 282 OFFCURVE",
"581 322 CURVE SMOOTH",
"581 447 OFFCURVE",
"513 461 OFFCURVE",
"314 461 CURVE SMOOTH",
"221 461 OFFCURVE",
"139 454 OFFCURVE",
"112 449 CURVE SMOOTH",
"58 437 OFFCURVE",
"51 400 OFFCURVE",
"51 379 CURVE SMOOTH",
"51 357 OFFCURVE",
"51 334 OFFCURVE",
"51 312 CURVE"
);
}
);
width = 645;
},
{
background = {
paths = (
{
closed = 1;
nodes = (
"67 433 OFFCURVE",
"136 448 OFFCURVE",
"197 448 CURVE SMOOTH",
"207 448 OFFCURVE",
"216 448 OFFCURVE",
"224 448 CURVE SMOOTH",
"310 445 OFFCURVE",
"355 429 OFFCURVE",
"355 337 CURVE SMOOTH",
"355 268 OFFCURVE",
"327 242 OFFCURVE",
"285 242 CURVE SMOOTH",
"96 242 LINE",
"96 224 LINE",
"285 224 LINE SMOOTH",
"330 224 OFFCURVE",
"367 212 OFFCURVE",
"367 125 CURVE SMOOTH",
"367 28 OFFCURVE",
"303 8 OFFCURVE",
"200 8 CURVE SMOOTH",
"118 8 OFFCURVE",
"65 19 OFFCURVE",
"36 34 CURVE",
"33 21 OFFCURVE",
"36 14 OFFCURVE",
"47 10 CURVE SMOOTH",
"56 6 OFFCURVE",
"70 3 OFFCURVE",
"87 0 CURVE SMOOTH",
"117 -4 OFFCURVE",
"157 -7 OFFCURVE",
"201 -7 CURVE SMOOTH",
"332 -7 OFFCURVE",
"386 21 OFFCURVE",
"386 125 CURVE SMOOTH",
"386 211 OFFCURVE",
"354 234 OFFCURVE",
"320 235 CURVE",
"320 235 LINE",
"353 240 OFFCURVE",
"376 276 OFFCURVE",
"376 335 CURVE SMOOTH",
"376 423 OFFCURVE",
"351 463 OFFCURVE",
"212 463 CURVE SMOOTH",
"147 463 OFFCURVE",
"89 456 OFFCURVE",
"70 449 CURVE SMOOTH",
"55 444 OFFCURVE",
"51 442 OFFCURVE",
"51 432 CURVE SMOOTH",
"51 430 OFFCURVE",
"51 427 OFFCURVE",
"51 424 CURVE"
);
}
);
};
layerId = "B4E8C596-9C01-4F8A-BDA4-90320E25C0E6";
paths = (
{
closed = 1;
nodes = (
"67 433 OFFCURVE",
"136 448 OFFCURVE",
"197 448 CURVE SMOOTH",
"207 448 OFFCURVE",
"216 448 OFFCURVE",
"224 448 CURVE SMOOTH",
"310 445 OFFCURVE",
"355 429 OFFCURVE",
"355 337 CURVE SMOOTH",
"355 268 OFFCURVE",
"327 242 OFFCURVE",
"285 242 CURVE SMOOTH",
"96 242 LINE",
"96 224 LINE",
"285 224 LINE SMOOTH",
"330 224 OFFCURVE",
"367 212 OFFCURVE",
"367 125 CURVE SMOOTH",
"367 28 OFFCURVE",
"303 8 OFFCURVE",
"200 8 CURVE SMOOTH",
"118 8 OFFCURVE",
"65 19 OFFCURVE",
"36 34 CURVE",
"33 21 OFFCURVE",
"36 14 OFFCURVE",
"47 10 CURVE SMOOTH",
"56 6 OFFCURVE",
"70 3 OFFCURVE",
"87 0 CURVE SMOOTH",
"117 -4 OFFCURVE",
"157 -7 OFFCURVE",
"201 -7 CURVE SMOOTH",
"332 -7 OFFCURVE",
"386 21 OFFCURVE",
"386 125 CURVE SMOOTH",
"386 211 OFFCURVE",
"354 234 OFFCURVE",
"320 235 CURVE",
"320 235 LINE",
"353 240 OFFCURVE",
"376 276 OFFCURVE",
"376 335 CURVE SMOOTH",
"376 423 OFFCURVE",
"351 463 OFFCURVE",
"212 463 CURVE SMOOTH",
"147 463 OFFCURVE",
"89 456 OFFCURVE",
"70 449 CURVE SMOOTH",
"55 444 OFFCURVE",
"51 442 OFFCURVE",
"51 432 CURVE SMOOTH",
"51 430 OFFCURVE",
"51 427 OFFCURVE",
"51 424 CURVE"
);
}
);
width = 428;
}
);
note = three;
unicode = 0033;
},
{
glyphname = four;
lastChange = "2021-04-18 10:29:33 +0000";
layers = (
{
layerId = "C7668D88-AC50-4107-9C4B-DB5D26A8FA6C";
paths = (
{
closed = 1;
nodes = (
"562 0 LINE",
"562 76 LINE",
"652 76 LINE",
"652 192 LINE",
"562 192 LINE",
"562 398 LINE SMOOTH",
"562 404 OFFCURVE",
"563 455 OFFCURVE",
"565 460 CURVE",
"489 460 OFFCURVE",
"382 443 OFFCURVE",
"337 412 CURVE SMOOTH",
"25 186 LINE",
"25 76 LINE",
"358 76 LINE",
"358 0 LINE"
);
},
{
closed = 1;
nodes = (
"258 195 LINE",
"355 266 LINE",
"357 271 LINE",
"357 192 LINE",
"250 192 LINE"
);
}
);
width = 677;
},
{
background = {
paths = (
{
closed = 1;
nodes = (
"330 0 LINE",
"330 115 LINE",
"388 115 LINE",
"388 130 LINE",
"330 130 LINE",
"330 432 LINE SMOOTH",
"330 439 OFFCURVE",
"330 457 OFFCURVE",
"331 460 CURVE",
"312 460 OFFCURVE",
"301 457 OFFCURVE",
"286 440 CURVE SMOOTH",
"14 130 LINE",
"14 115 LINE",
"310 115 LINE",
"310 0 LINE"
);
},
{
closed = 1;
nodes = (
"44 135 LINE",
"307 436 LINE",
"310 440 LINE",
"310 130 LINE",
"40 130 LINE"
);
}
);
};
layerId = "B4E8C596-9C01-4F8A-BDA4-90320E25C0E6";
paths = (
{
closed = 1;
nodes = (
"330 0 LINE",
"330 115 LINE",
"388 115 LINE",
"388 130 LINE",
"330 130 LINE",
"330 432 LINE SMOOTH",
"330 439 OFFCURVE",
"330 457 OFFCURVE",
"331 460 CURVE",
"312 460 OFFCURVE",
"301 457 OFFCURVE",
"286 440 CURVE SMOOTH",
"14 130 LINE",
"14 115 LINE",
"310 115 LINE",
"310 0 LINE"
);
},
{
closed = 1;
nodes = (
"44 135 LINE",
"307 436 LINE",
"310 440 LINE",
"310 130 LINE",
"40 130 LINE"
);
}
);
width = 429;
}
);
note = four;
unicode = 0034;
},
{
glyphname = five;
lastChange = "2021-04-18 10:29:33 +0000";
layers = (
{
layerId = "C7668D88-AC50-4107-9C4B-DB5D26A8FA6C";
paths = (
{
closed = 1;
nodes = (
"598 227 OFFCURVE",
"579 284 OFFCURVE",
"501 300 CURVE SMOOTH",
"467 307 OFFCURVE",
"319 309 OFFCURVE",
"233 309 CURVE",
"233 345 LINE",
"587 345 LINE",
"587 460 LINE",
"55 460 LINE",
"55 185 LINE",
"121 192 OFFCURVE",
"285 201 OFFCURVE",
"386 190 CURVE SMOOTH",
"403 188 OFFCURVE",
"412 180 OFFCURVE",
"412 159 CURVE SMOOTH",
"412 126 OFFCURVE",
"372 118 OFFCURVE",
"307 118 CURVE SMOOTH",
"233 118 OFFCURVE",
"132 127 OFFCURVE",
"38 146 CURVE",
"38 41 OFFCURVE",
"29 28 OFFCURVE",
"93 12 CURVE SMOOTH",
"128 2 OFFCURVE",
"214 -4 OFFCURVE",
"311 -4 CURVE SMOOTH",
"516 -4 OFFCURVE",
"598 3 OFFCURVE",
"598 152 CURVE SMOOTH"
);
}
);
width = 649;
},
{
background = {
paths = (
{
closed = 1;
nodes = (
"388 252 OFFCURVE",
"361 277 OFFCURVE",
"219 277 CURVE SMOOTH",
"161 277 OFFCURVE",
"104 273 OFFCURVE",
"73 269 CURVE",
"73 445 LINE",
"380 445 LINE",
"380 460 LINE",
"53 460 LINE",
"53 248 LINE",
"77 254 OFFCURVE",
"148 262 OFFCURVE",
"212 262 CURVE SMOOTH",
"340 262 OFFCURVE",
"369 240 OFFCURVE",
"369 141 CURVE SMOOTH",
"369 30 OFFCURVE",
"305 8 OFFCURVE",
"202 8 CURVE SMOOTH",
"120 8 OFFCURVE",
"67 19 OFFCURVE",
"38 34 CURVE",
"35 21 OFFCURVE",
"38 15 OFFCURVE",
"49 10 CURVE SMOOTH",
"71 0 OFFCURVE",
"134 -7 OFFCURVE",
"203 -7 CURVE SMOOTH",
"334 -7 OFFCURVE",
"388 22 OFFCURVE",
"388 141 CURVE SMOOTH"
);
}
);
};
layerId = "B4E8C596-9C01-4F8A-BDA4-90320E25C0E6";
paths = (
{
closed = 1;
nodes = (
"388 252 OFFCURVE",
"361 277 OFFCURVE",
"219 277 CURVE SMOOTH",
"161 277 OFFCURVE",
"104 273 OFFCURVE",
"73 269 CURVE",
"73 445 LINE",
"380 445 LINE",
"380 460 LINE",
"53 460 LINE",
"53 248 LINE",
"77 254 OFFCURVE",
"148 262 OFFCURVE",
"212 262 CURVE SMOOTH",
"340 262 OFFCURVE",
"369 240 OFFCURVE",
"369 141 CURVE SMOOTH",
"369 30 OFFCURVE",
"305 8 OFFCURVE",
"202 8 CURVE SMOOTH",
"120 8 OFFCURVE",
"67 19 OFFCURVE",
"38 34 CURVE",
"35 21 OFFCURVE",
"38 15 OFFCURVE",
"49 10 CURVE SMOOTH",
"71 0 OFFCURVE",
"134 -7 OFFCURVE",
"203 -7 CURVE SMOOTH",
"334 -7 OFFCURVE",
"388 22 OFFCURVE",
"388 141 CURVE SMOOTH"
);
}
);
width = 444;
}
);
note = five;
unicode = 0035;
},
{
glyphname = six;
lastChange = "2021-04-18 10:29:33 +0000";
layers = (
{
layerId = "C7668D88-AC50-4107-9C4B-DB5D26A8FA6C";
paths = (
{
closed = 1;
nodes = (
"534 -4 OFFCURVE",
"590 28 OFFCURVE",
"590 161 CURVE SMOOTH",
"590 296 OFFCURVE",
"505 300 OFFCURVE",
"395 300 CURVE SMOOTH",
"317 300 OFFCURVE",
"238 291 OFFCURVE",
"210 277 CURVE",
"210 283 OFFCURVE",
"213 306 OFFCURVE",
"214 311 CURVE SMOOTH",
"221 337 OFFCURVE",
"255 344 OFFCURVE",
"279 344 CURVE SMOOTH",
"366 344 OFFCURVE",
"479 340 OFFCURVE",
"557 332 CURVE",
"585 422 OFFCURVE",
"550 448 OFFCURVE",
"486 453 CURVE SMOOTH",
"441 458 OFFCURVE",
"383 461 OFFCURVE",
"325 461 CURVE SMOOTH",
"278 461 OFFCURVE",
"229 459 OFFCURVE",
"194 455 CURVE SMOOTH",
"63 441 OFFCURVE",
"38 402 OFFCURVE",
"38 222 CURVE SMOOTH",
"38 12 OFFCURVE",
"67 -4 OFFCURVE",
"311 -4 CURVE SMOOTH"
);
},
{
closed = 1;
nodes = (
"254 107 OFFCURVE",
"221 112 OFFCURVE",
"213 146 CURVE SMOOTH",
"211 158 OFFCURVE",
"210 178 OFFCURVE",
"210 193 CURVE",
"250 193 OFFCURVE",
"289 193 OFFCURVE",
"329 193 CURVE SMOOTH",
"373 193 OFFCURVE",
"414 198 OFFCURVE",
"414 152 CURVE SMOOTH",
"414 108 OFFCURVE",
"365 107 OFFCURVE",
"314 107 CURVE SMOOTH"
);
}
);
width = 628;
},
{
background = {
paths = (
{
closed = 1;
nodes = (
"348 -4 OFFCURVE",
"393 27 OFFCURVE",
"393 148 CURVE SMOOTH",
"393 258 OFFCURVE",
"344 272 OFFCURVE",
"286 275 CURVE SMOOTH",
"221 278 OFFCURVE",
"126 271 OFFCURVE",
"70 260 CURVE",
"70 269 OFFCURVE",
"72 315 OFFCURVE",
"75 337 CURVE SMOOTH",
"90 447 OFFCURVE",
"159 447 OFFCURVE",
"242 447 CURVE SMOOTH",
"285 447 OFFCURVE",
"328 444 OFFCURVE",
"356 436 CURVE SMOOTH",
"369 432 OFFCURVE",
"377 428 OFFCURVE",
"382 425 CURVE",
"382 435 OFFCURVE",
"385 446 OFFCURVE",
"364 452 CURVE SMOOTH",
"345 458 OFFCURVE",
"290 462 OFFCURVE",
"243 462 CURVE SMOOTH",
"85 462 OFFCURVE",
"50 432 OFFCURVE",
"50 221 CURVE SMOOTH",
"50 45 OFFCURVE",
"53 -4 OFFCURVE",
"216 -4 CURVE SMOOTH"
);
},
{
closed = 1;
nodes = (
"122 9 OFFCURVE",
"80 23 OFFCURVE",
"72 123 CURVE SMOOTH",
"69 156 OFFCURVE",
"70 231 OFFCURVE",
"70 246 CURVE",
"92 251 OFFCURVE",
"224 266 OFFCURVE",
"284 259 CURVE SMOOTH",
"350 253 OFFCURVE",
"374 224 OFFCURVE",
"374 150 CURVE SMOOTH",
"374 24 OFFCURVE",
"319 9 OFFCURVE",
"215 9 CURVE SMOOTH"
);
}
);
};
layerId = "B4E8C596-9C01-4F8A-BDA4-90320E25C0E6";
paths = (
{
closed = 1;
nodes = (
"348 -4 OFFCURVE",
"393 27 OFFCURVE",
"393 148 CURVE SMOOTH",
"393 258 OFFCURVE",
"344 272 OFFCURVE",
"286 275 CURVE SMOOTH",
"221 278 OFFCURVE",
"126 271 OFFCURVE",
"70 260 CURVE",
"70 269 OFFCURVE",
"72 315 OFFCURVE",
"75 337 CURVE SMOOTH",
"90 447 OFFCURVE",
"159 447 OFFCURVE",
"242 447 CURVE SMOOTH",
"285 447 OFFCURVE",
"328 444 OFFCURVE",
"356 436 CURVE SMOOTH",
"369 432 OFFCURVE",
"377 428 OFFCURVE",
"382 425 CURVE",
"382 435 OFFCURVE",
"385 446 OFFCURVE",
"364 452 CURVE SMOOTH",
"345 458 OFFCURVE",
"290 462 OFFCURVE",
"243 462 CURVE SMOOTH",
"85 462 OFFCURVE",
"50 432 OFFCURVE",
"50 221 CURVE SMOOTH",
"50 45 OFFCURVE",
"53 -4 OFFCURVE",
"216 -4 CURVE SMOOTH"
);
},
{
closed = 1;
nodes = (
"122 9 OFFCURVE",
"80 23 OFFCURVE",
"72 123 CURVE SMOOTH",
"69 156 OFFCURVE",
"70 231 OFFCURVE",
"70 246 CURVE",
"92 251 OFFCURVE",
"224 266 OFFCURVE",
"284 259 CURVE SMOOTH",
"350 253 OFFCURVE",
"374 224 OFFCURVE",
"374 150 CURVE SMOOTH",
"374 24 OFFCURVE",
"319 9 OFFCURVE",
"215 9 CURVE SMOOTH"
);
}
);
width = 443;
}
);
leftKerningGroup = parenleft;
note = six;
unicode = 0036;
},
{
glyphname = seven;
lastChange = "2021-04-18 10:29:33 +0000";
layers = (
{
layerId = "C7668D88-AC50-4107-9C4B-DB5D26A8FA6C";
paths = (
{
closed = 1;
nodes = (
"287 0 LINE",
"342 72 OFFCURVE",
"518 297 OFFCURVE",
"546 336 CURVE",
"594 411 OFFCURVE",
"556 458 OFFCURVE",
"472 458 CURVE SMOOTH",
"37 458 LINE",
"37 343 LINE",
"346 343 LINE",
"86 0 LINE"
);
}
);
width = 618;
},
{
background = {
paths = (
{
closed = 1;
nodes = (
"152 0 LINE",
"222 146 OFFCURVE",
"293 291 OFFCURVE",
"363 437 CURVE SMOOTH",
"370 451 OFFCURVE",
"367 460 OFFCURVE",
"352 460 CURVE SMOOTH",
"42 460 LINE",
"42 445 LINE",
"345 445 LINE",
"132 0 LINE"
);
}
);
};
layerId = "B4E8C596-9C01-4F8A-BDA4-90320E25C0E6";
paths = (
{
closed = 1;
nodes = (
"152 0 LINE",
"222 146 OFFCURVE",
"293 291 OFFCURVE",
"363 437 CURVE SMOOTH",
"370 451 OFFCURVE",
"367 460 OFFCURVE",
"352 460 CURVE SMOOTH",
"42 460 LINE",
"42 445 LINE",
"345 445 LINE",
"132 0 LINE"
);
}
);
width = 403;
}
);
note = seven;
unicode = 0037;
},
{
glyphname = eight;
lastChange = "2021-04-18 10:29:33 +0000";
layers = (
{
layerId = "C7668D88-AC50-4107-9C4B-DB5D26A8FA6C";
paths = (
{
closed = 1;
nodes = (
"219 188 OFFCURVE",
"245 188 OFFCURVE",
"322 188 CURVE SMOOTH",
"396 188 OFFCURVE",
"420 188 OFFCURVE",
"420 148 CURVE SMOOTH",
"420 104 OFFCURVE",
"369 105 OFFCURVE",
"317 105 CURVE SMOOTH",
"254 105 OFFCURVE",
"219 105 OFFCURVE",
"219 148 CURVE SMOOTH"
);
},
{
closed = 1;
nodes = (
"403 304 OFFCURVE",
"382 304 OFFCURVE",
"321 304 CURVE SMOOTH",
"259 304 OFFCURVE",
"233 301 OFFCURVE",
"233 342 CURVE SMOOTH",
"233 371 OFFCURVE",
"276 371 OFFCURVE",
"317 371 CURVE SMOOTH",
"365 371 OFFCURVE",
"403 371 OFFCURVE",
"403 342 CURVE SMOOTH"
);
},
{
closed = 1;
nodes = (
"34 10 OFFCURVE",
"98 -4 OFFCURVE",
"319 -4 CURVE SMOOTH",
"548 -4 OFFCURVE",
"610 16 OFFCURVE",
"610 135 CURVE SMOOTH",
"610 192 OFFCURVE",
"580 235 OFFCURVE",
"521 245 CURVE",
"570 249 OFFCURVE",
"593 291 OFFCURVE",
"593 339 CURVE SMOOTH",
"593 455 OFFCURVE",
"495 465 OFFCURVE",
"319 464 CURVE SMOOTH",
"147 463 OFFCURVE",
"51 451 OFFCURVE",
"51 339 CURVE SMOOTH",
"51 291 OFFCURVE",
"74 249 OFFCURVE",
"123 244 CURVE",
"64 235 OFFCURVE",
"34 192 OFFCURVE",
"34 135 CURVE SMOOTH"
);
}
);
width = 642;
},
{
background = {
paths = (
{
closed = 1;
nodes = (
"61 233 OFFCURVE",
"102 232 OFFCURVE",
"218 232 CURVE SMOOTH",
"330 232 OFFCURVE",
"368 233 OFFCURVE",
"368 125 CURVE SMOOTH",
"368 21 OFFCURVE",
"321 13 OFFCURVE",
"213 13 CURVE SMOOTH",
"101 13 OFFCURVE",
"61 20 OFFCURVE",
"61 125 CURVE SMOOTH"
);
},
{
closed = 1;
nodes = (
"359 252 OFFCURVE",
"323 249 OFFCURVE",
"218 249 CURVE SMOOTH",
"111 249 OFFCURVE",
"72 252 OFFCURVE",
"72 352 CURVE SMOOTH",
"72 442 OFFCURVE",
"144 445 OFFCURVE",
"213 445 CURVE SMOOTH",
"295 445 OFFCURVE",
"359 440 OFFCURVE",
"359 352 CURVE SMOOTH"
);
},
{
closed = 1;
nodes = (
"41 27 OFFCURVE",
"62 -4 OFFCURVE",
"213 -4 CURVE SMOOTH",
"368 -4 OFFCURVE",
"389 28 OFFCURVE",
"389 130 CURVE SMOOTH",
"389 189 OFFCURVE",
"367 240 OFFCURVE",
"319 242 CURVE",
"354 244 OFFCURVE",
"377 286 OFFCURVE",
"377 342 CURVE SMOOTH",
"377 454 OFFCURVE",
"318 463 OFFCURVE",
"213 462 CURVE SMOOTH",
"110 461 OFFCURVE",
"52 449 OFFCURVE",
"52 342 CURVE SMOOTH",
"52 286 OFFCURVE",
"76 244 OFFCURVE",
"110 242 CURVE",
"68 240 OFFCURVE",
"41 189 OFFCURVE",
"41 130 CURVE SMOOTH"
);
}
);
};
layerId = "B4E8C596-9C01-4F8A-BDA4-90320E25C0E6";
paths = (
{
closed = 1;
nodes = (
"61 233 OFFCURVE",
"102 232 OFFCURVE",
"218 232 CURVE SMOOTH",
"330 232 OFFCURVE",
"368 233 OFFCURVE",
"368 125 CURVE SMOOTH",
"368 21 OFFCURVE",
"321 13 OFFCURVE",
"213 13 CURVE SMOOTH",
"101 13 OFFCURVE",
"61 20 OFFCURVE",
"61 125 CURVE SMOOTH"
);
},
{
closed = 1;
nodes = (
"359 252 OFFCURVE",
"323 249 OFFCURVE",
"218 249 CURVE SMOOTH",
"111 249 OFFCURVE",
"72 252 OFFCURVE",
"72 352 CURVE SMOOTH",
"72 442 OFFCURVE",
"144 445 OFFCURVE",
"213 445 CURVE SMOOTH",
"295 445 OFFCURVE",
"359 440 OFFCURVE",
"359 352 CURVE SMOOTH"
);
},
{
closed = 1;
nodes = (
"41 27 OFFCURVE",
"62 -4 OFFCURVE",
"213 -4 CURVE SMOOTH",
"368 -4 OFFCURVE",
"389 28 OFFCURVE",
"389 130 CURVE SMOOTH",
"389 189 OFFCURVE",
"367 240 OFFCURVE",
"319 242 CURVE",
"354 244 OFFCURVE",
"377 286 OFFCURVE",
"377 342 CURVE SMOOTH",
"377 454 OFFCURVE",
"318 463 OFFCURVE",
"213 462 CURVE SMOOTH",
"110 461 OFFCURVE",
"52 449 OFFCURVE",
"52 342 CURVE SMOOTH",
"52 286 OFFCURVE",
"76 244 OFFCURVE",
"110 242 CURVE",
"68 240 OFFCURVE",
"41 189 OFFCURVE",
"41 130 CURVE SMOOTH"
);
}
);
width = 430;
}
);
note = eight;
unicode = 0038;
},
{
glyphname = nine;
lastChange = "2021-04-18 10:29:33 +0000";
layers = (
{
layerId = "C7668D88-AC50-4107-9C4B-DB5D26A8FA6C";
paths = (
{
closed = 1;
nodes = (
"44 31 OFFCURVE",
"81 6 OFFCURVE",
"142 1 CURVE SMOOTH",
"247 -4 OFFCURVE",
"325 -4 OFFCURVE",
"435 4 CURVE SMOOTH",
"563 16 OFFCURVE",
"590 56 OFFCURVE",
"590 238 CURVE SMOOTH",
"590 447 OFFCURVE",
"561 464 OFFCURVE",
"317 464 CURVE SMOOTH",
"95 464 OFFCURVE",
"38 431 OFFCURVE",
"38 298 CURVE SMOOTH",
"38 161 OFFCURVE",
"150 148 OFFCURVE",
"252 153 CURVE SMOOTH",
"299 155 OFFCURVE",
"352 161 OFFCURVE",
"392 171 CURVE SMOOTH",
"404 174 OFFCURVE",
"417 177 OFFCURVE",
"417 177 CURVE",
"417 167 OFFCURVE",
"417 156 OFFCURVE",
"417 146 CURVE SMOOTH",
"417 116 OFFCURVE",
"376 117 OFFCURVE",
"348 115 CURVE SMOOTH",
"282 111 OFFCURVE",
"148 115 OFFCURVE",
"69 119 CURVE"
);
},
{
closed = 1;
nodes = (
"401 268 OFFCURVE",
"342 267 OFFCURVE",
"303 267 CURVE SMOOTH",
"249 267 OFFCURVE",
"212 261 OFFCURVE",
"212 308 CURVE SMOOTH",
"212 352 OFFCURVE",
"263 353 OFFCURVE",
"315 353 CURVE SMOOTH",
"376 353 OFFCURVE",
"409 352 OFFCURVE",
"413 315 CURVE",
"413 315 OFFCURVE",
"414 279 OFFCURVE",
"413 269 CURVE"
);
}
);
width = 642;
},
{
background = {
paths = (
{
closed = 1;
nodes = (
"50 16 OFFCURVE",
"47 9 OFFCURVE",
"69 2 CURVE",
"103 -5 OFFCURVE",
"235 -11 OFFCURVE",
"295 4 CURVE SMOOTH",
"360 20 OFFCURVE",
"382 67 OFFCURVE",
"382 241 CURVE SMOOTH",
"382 417 OFFCURVE",
"378 464 OFFCURVE",
"215 464 CURVE SMOOTH",
"93 464 OFFCURVE",
"39 440 OFFCURVE",
"39 312 CURVE SMOOTH",
"39 209 OFFCURVE",
"88 190 OFFCURVE",
"146 187 CURVE SMOOTH",
"185 185 OFFCURVE",
"235 187 OFFCURVE",
"280 191 CURVE SMOOTH",
"311 194 OFFCURVE",
"340 198 OFFCURVE",
"362 202 CURVE",
"362 193 OFFCURVE",
"360 147 OFFCURVE",
"357 125 CURVE SMOOTH",
"348 54 OFFCURVE",
"324 16 OFFCURVE",
"236 13 CURVE SMOOTH",
"150 9 OFFCURVE",
"69 17 OFFCURVE",
"50 26 CURVE"
);
},
{
closed = 1;
nodes = (
"339 211 OFFCURVE",
"217 197 OFFCURVE",
"153 204 CURVE SMOOTH",
"84 210 OFFCURVE",
"58 235 OFFCURVE",
"58 322 CURVE SMOOTH",
"58 427 OFFCURVE",
"115 449 OFFCURVE",
"211 449 CURVE SMOOTH",
"310 449 OFFCURVE",
"353 430 OFFCURVE",
"361 339 CURVE SMOOTH",
"363 305 OFFCURVE",
"363 265 OFFCURVE",
"363 217 CURVE"
);
}
);
};
layerId = "B4E8C596-9C01-4F8A-BDA4-90320E25C0E6";
paths = (
{
closed = 1;
nodes = (
"50 16 OFFCURVE",
"47 9 OFFCURVE",
"69 2 CURVE",
"103 -5 OFFCURVE",
"235 -11 OFFCURVE",
"295 4 CURVE SMOOTH",
"360 20 OFFCURVE",
"382 67 OFFCURVE",
"382 241 CURVE SMOOTH",
"382 417 OFFCURVE",
"378 464 OFFCURVE",
"215 464 CURVE SMOOTH",
"93 464 OFFCURVE",
"39 440 OFFCURVE",
"39 312 CURVE SMOOTH",
"39 209 OFFCURVE",
"88 190 OFFCURVE",
"146 187 CURVE SMOOTH",
"185 185 OFFCURVE",
"235 187 OFFCURVE",
"280 191 CURVE SMOOTH",
"311 194 OFFCURVE",
"340 198 OFFCURVE",
"362 202 CURVE",
"362 193 OFFCURVE",
"360 147 OFFCURVE",
"357 125 CURVE SMOOTH",
"348 54 OFFCURVE",
"324 16 OFFCURVE",
"236 13 CURVE SMOOTH",
"150 9 OFFCURVE",
"69 17 OFFCURVE",
"50 26 CURVE"
);
},
{
closed = 1;
nodes = (
"339 211 OFFCURVE",
"217 197 OFFCURVE",
"153 204 CURVE SMOOTH",
"84 210 OFFCURVE",
"58 235 OFFCURVE",
"58 322 CURVE SMOOTH",
"58 427 OFFCURVE",
"115 449 OFFCURVE",
"211 449 CURVE SMOOTH",
"310 449 OFFCURVE",
"353 430 OFFCURVE",
"361 339 CURVE SMOOTH",
"363 305 OFFCURVE",
"363 265 OFFCURVE",
"363 217 CURVE"
);
}
);
width = 424;
}
);
note = nine;
unicode = 0039;
},
{
glyphname = colon;
lastChange = "2021-04-18 10:29:33 +0000";
layers = (
{
layerId = "C7668D88-AC50-4107-9C4B-DB5D26A8FA6C";
paths = (
{
closed = 1;
nodes = (
"35 -1 OFFCURVE",
"75 -4 OFFCURVE",
"133 -4 CURVE SMOOTH",
"192 -4 OFFCURVE",
"230 -1 OFFCURVE",
"230 59 CURVE SMOOTH",
"230 113 OFFCURVE",
"194 122 OFFCURVE",
"137 122 CURVE SMOOTH",
"80 122 OFFCURVE",
"35 115 OFFCURVE",
"35 59 CURVE SMOOTH"
);
},
{
closed = 1;
nodes = (
"35 255 OFFCURVE",
"75 251 OFFCURVE",
"133 251 CURVE SMOOTH",
"192 251 OFFCURVE",
"230 255 OFFCURVE",
"230 315 CURVE SMOOTH",
"230 368 OFFCURVE",
"194 377 OFFCURVE",
"137 377 CURVE SMOOTH",
"80 377 OFFCURVE",
"35 371 OFFCURVE",
"35 315 CURVE SMOOTH"
);
}
);
width = 265;
},
{
background = {
paths = (
{
closed = 1;
nodes = (
"66 1 OFFCURVE",
"77 0 OFFCURVE",
"84 0 CURVE SMOOTH",
"91 0 OFFCURVE",
"101 1 OFFCURVE",
"101 15 CURVE SMOOTH",
"101 30 OFFCURVE",
"92 31 OFFCURVE",
"83 31 CURVE SMOOTH",
"74 31 OFFCURVE",
"66 29 OFFCURVE",
"66 15 CURVE SMOOTH"
);
},
{
closed = 1;
nodes = (
"65 300 OFFCURVE",
"76 299 OFFCURVE",
"83 299 CURVE SMOOTH",
"90 299 OFFCURVE",
"100 300 OFFCURVE",
"100 314 CURVE SMOOTH",
"100 329 OFFCURVE",
"91 330 OFFCURVE",
"82 330 CURVE SMOOTH",
"73 330 OFFCURVE",
"65 328 OFFCURVE",
"65 314 CURVE SMOOTH"
);
}
);
};
layerId = "B4E8C596-9C01-4F8A-BDA4-90320E25C0E6";
paths = (
{
closed = 1;
nodes = (
"66 1 OFFCURVE",
"77 0 OFFCURVE",
"84 0 CURVE SMOOTH",
"91 0 OFFCURVE",
"101 1 OFFCURVE",
"101 15 CURVE SMOOTH",
"101 30 OFFCURVE",
"92 31 OFFCURVE",
"83 31 CURVE SMOOTH",
"74 31 OFFCURVE",
"66 29 OFFCURVE",
"66 15 CURVE SMOOTH"
);
},
{
closed = 1;
nodes = (
"65 300 OFFCURVE",
"76 299 OFFCURVE",
"83 299 CURVE SMOOTH",
"90 299 OFFCURVE",
"100 300 OFFCURVE",
"100 314 CURVE SMOOTH",
"100 329 OFFCURVE",
"91 330 OFFCURVE",
"82 330 CURVE SMOOTH",
"73 330 OFFCURVE",
"65 328 OFFCURVE",
"65 314 CURVE SMOOTH"
);
}
);
width = 169;
}
);
note = colon;
unicode = 003A;
},
{
glyphname = semicolon;
lastChange = "2021-04-18 10:29:33 +0000";
layers = (
{
components = (
{
name = comma;
}
);
layerId = "C7668D88-AC50-4107-9C4B-DB5D26A8FA6C";
paths = (
{
closed = 1;
nodes = (
"50 210 OFFCURVE",
"90 206 OFFCURVE",
"149 206 CURVE SMOOTH",
"207 206 OFFCURVE",
"245 210 OFFCURVE",
"245 270 CURVE SMOOTH",
"245 323 OFFCURVE",
"209 332 OFFCURVE",
"153 332 CURVE SMOOTH",
"95 332 OFFCURVE",
"50 326 OFFCURVE",
"50 270 CURVE SMOOTH"
);
}
);
width = 282;
},
{
background = {
components = (
{
name = comma;
transform = "{1, 0, 0, 1, 20, 0}";
}
);
paths = (
{
closed = 1;
nodes = (
"79 300 OFFCURVE",
"90 299 OFFCURVE",
"97 299 CURVE SMOOTH",
"104 299 OFFCURVE",
"114 300 OFFCURVE",
"114 314 CURVE SMOOTH",
"114 329 OFFCURVE",
"105 330 OFFCURVE",
"96 330 CURVE SMOOTH",
"87 330 OFFCURVE",
"79 328 OFFCURVE",
"79 314 CURVE SMOOTH"
);
}
);
};
components = (
{
name = comma;
transform = "{1, 0, 0, 1, 20, 0}";
}
);
layerId = "B4E8C596-9C01-4F8A-BDA4-90320E25C0E6";
paths = (
{
closed = 1;
nodes = (
"79 300 OFFCURVE",
"90 299 OFFCURVE",
"97 299 CURVE SMOOTH",
"104 299 OFFCURVE",
"114 300 OFFCURVE",
"114 314 CURVE SMOOTH",
"114 329 OFFCURVE",
"105 330 OFFCURVE",
"96 330 CURVE SMOOTH",
"87 330 OFFCURVE",
"79 328 OFFCURVE",
"79 314 CURVE SMOOTH"
);
}
);
width = 180;
}
);
note = semicolon;
unicode = 003B;
},
{
glyphname = less;
lastChange = "2021-04-18 10:29:33 +0000";
layers = (
{
layerId = "C7668D88-AC50-4107-9C4B-DB5D26A8FA6C";
paths = (
{
closed = 1;
nodes = (
"197 218 LINE",
"386 283 LINE",
"386 398 LINE",
"35 250 LINE",
"35 184 LINE",
"386 38 LINE",
"386 147 LINE"
);
}
);
width = 421;
},
{
background = {
paths = (
{
closed = 1;
nodes = (
"94 215 LINE",
"323 370 LINE",
"323 398 LINE",
"73 224 LINE",
"73 205 LINE",
"323 38 LINE",
"323 63 LINE"
);
}
);
};
layerId = "B4E8C596-9C01-4F8A-BDA4-90320E25C0E6";
paths = (
{
closed = 1;
nodes = (
"94 215 LINE",
"323 370 LINE",
"323 398 LINE",
"73 224 LINE",
"73 205 LINE",
"323 38 LINE",
"323 63 LINE"
);
}
);
width = 364;
}
);
note = less;
unicode = 003C;
},
{
glyphname = equal;
lastChange = "2021-04-18 10:29:33 +0000";
layers = (
{
layerId = "C7668D88-AC50-4107-9C4B-DB5D26A8FA6C";
paths = (
{
closed = 1;
nodes = (
"35 227 LINE",
"507 227 LINE",
"507 337 LINE",
"35 337 LINE"
);
},
{
closed = 1;
nodes = (
"35 67 LINE",
"507 67 LINE",
"507 177 LINE",
"35 177 LINE"
);
}
);
width = 542;
},
{
background = {
paths = (
{
closed = 1;
nodes = (
"52 254 LINE",
"346 254 LINE",
"346 268 LINE",
"52 268 LINE"
);
},
{
closed = 1;
nodes = (
"52 133 LINE",
"346 133 LINE",
"346 147 LINE",
"52 147 LINE"
);
}
);
};
layerId = "B4E8C596-9C01-4F8A-BDA4-90320E25C0E6";
paths = (
{
closed = 1;
nodes = (
"52 254 LINE",
"346 254 LINE",
"346 268 LINE",
"52 268 LINE"
);
},
{
closed = 1;
nodes = (
"52 133 LINE",
"346 133 LINE",
"346 147 LINE",
"52 147 LINE"
);
}
);
width = 398;
}
);
note = equal;
unicode = 003D;
},
{
glyphname = greater;
lastChange = "2021-04-18 10:29:33 +0000";
layers = (
{
layerId = "C7668D88-AC50-4107-9C4B-DB5D26A8FA6C";
paths = (
{
closed = 1;
nodes = (
"35 153 LINE",
"35 38 LINE",
"386 186 LINE",
"386 252 LINE",
"35 398 LINE",
"35 289 LINE",
"225 218 LINE"
);
}
);
width = 421;
},
{
background = {
paths = (
{
closed = 1;
nodes = (
"73 63 LINE",
"73 38 LINE",
"323 205 LINE",
"323 224 LINE",
"73 398 LINE",
"73 370 LINE",
"302 215 LINE"
);
}
);
};
layerId = "B4E8C596-9C01-4F8A-BDA4-90320E25C0E6";
paths = (
{
closed = 1;
nodes = (
"73 63 LINE",
"73 38 LINE",
"323 205 LINE",
"323 224 LINE",
"73 398 LINE",
"73 370 LINE",
"302 215 LINE"
);
}
);
width = 364;
}
);
note = greater;
unicode = 003E;
},
{
glyphname = question;
lastChange = "2021-04-18 10:29:33 +0000";
layers = (
{
layerId = "C7668D88-AC50-4107-9C4B-DB5D26A8FA6C";
paths = (
{
closed = 1;
nodes = (
"202 186 LINE",
"394 186 OFFCURVE",
"505 186 OFFCURVE",
"505 318 CURVE SMOOTH",
"505 424 OFFCURVE",
"466 460 OFFCURVE",
"306 460 CURVE SMOOTH",
"261 460 OFFCURVE",
"216 460 OFFCURVE",
"171 460 CURVE SMOOTH",
"133 460 OFFCURVE",
"92 458 OFFCURVE",
"71 456 CURVE SMOOTH",
"31 450 OFFCURVE",
"36 378 OFFCURVE",
"36 362 CURVE",
"44 363 OFFCURVE",
"128 365 OFFCURVE",
"144 365 CURVE SMOOTH",
"178 365 LINE SMOOTH",
"258 365 OFFCURVE",
"285 356 OFFCURVE",
"285 316 CURVE SMOOTH",
"285 269 OFFCURVE",
"258 263 OFFCURVE",
"178 263 CURVE SMOOTH",
"140 263 OFFCURVE",
"113 265 OFFCURVE",
"79 266 CURVE",
"79 259 OFFCURVE",
"106 147 OFFCURVE",
"106 147 CURVE",
"193 147 LINE"
);
},
{
closed = 1;
nodes = (
"69 -1 OFFCURVE",
"109 -4 OFFCURVE",
"167 -4 CURVE SMOOTH",
"225 -4 OFFCURVE",
"264 -1 OFFCURVE",
"264 59 CURVE SMOOTH",
"264 113 OFFCURVE",
"228 122 OFFCURVE",
"171 122 CURVE SMOOTH",
"113 122 OFFCURVE",
"69 115 OFFCURVE",
"69 59 CURVE SMOOTH"
);
}
);
width = 540;
},
{
background = {
paths = (
{
closed = 1;
nodes = (
"104 209 LINE",
"220 209 OFFCURVE",
"322 210 OFFCURVE",
"322 338 CURVE SMOOTH",
"322 443 OFFCURVE",
"269 456 OFFCURVE",
"192 459 CURVE SMOOTH",
"166 460 OFFCURVE",
"104 460 OFFCURVE",
"83 459 CURVE SMOOTH",
"63 458 OFFCURVE",
"41 457 OFFCURVE",
"41 445 CURVE SMOOTH",
"41 443 OFFCURVE",
"41 442 OFFCURVE",
"41 440 CURVE",
"43 441 OFFCURVE",
"63 446 OFFCURVE",
"99 446 CURVE SMOOTH",
"175 446 LINE SMOOTH",
"276 446 OFFCURVE",
"304 417 OFFCURVE",
"304 340 CURVE SMOOTH",
"304 249 OFFCURVE",
"260 225 OFFCURVE",
"156 223 CURVE SMOOTH",
"141 222 OFFCURVE",
"99 222 OFFCURVE",
"87 223 CURVE",
"88 184 OFFCURVE",
"89 146 OFFCURVE",
"90 107 CURVE",
"100 107 LINE"
);
},
{
closed = 1;
nodes = (
"79 1 OFFCURVE",
"90 0 OFFCURVE",
"97 0 CURVE SMOOTH",
"104 0 OFFCURVE",
"114 1 OFFCURVE",
"114 15 CURVE SMOOTH",
"114 30 OFFCURVE",
"105 31 OFFCURVE",
"96 31 CURVE SMOOTH",
"87 31 OFFCURVE",
"79 29 OFFCURVE",
"79 15 CURVE SMOOTH"
);
}
);
};
layerId = "B4E8C596-9C01-4F8A-BDA4-90320E25C0E6";
paths = (
{
closed = 1;
nodes = (
"104 209 LINE",
"220 209 OFFCURVE",
"322 210 OFFCURVE",
"322 338 CURVE SMOOTH",
"322 443 OFFCURVE",
"269 456 OFFCURVE",
"192 459 CURVE SMOOTH",
"166 460 OFFCURVE",
"104 460 OFFCURVE",
"83 459 CURVE SMOOTH",
"63 458 OFFCURVE",
"41 457 OFFCURVE",
"41 445 CURVE SMOOTH",
"41 443 OFFCURVE",
"41 442 OFFCURVE",
"41 440 CURVE",
"43 441 OFFCURVE",
"63 446 OFFCURVE",
"99 446 CURVE SMOOTH",
"175 446 LINE SMOOTH",
"276 446 OFFCURVE",
"304 417 OFFCURVE",
"304 340 CURVE SMOOTH",
"304 249 OFFCURVE",
"260 225 OFFCURVE",
"156 223 CURVE SMOOTH",
"141 222 OFFCURVE",
"99 222 OFFCURVE",
"87 223 CURVE",
"88 184 OFFCURVE",
"89 146 OFFCURVE",
"90 107 CURVE",
"100 107 LINE"
);
},
{
closed = 1;
nodes = (
"79 1 OFFCURVE",
"90 0 OFFCURVE",
"97 0 CURVE SMOOTH",
"104 0 OFFCURVE",
"114 1 OFFCURVE",
"114 15 CURVE SMOOTH",
"114 30 OFFCURVE",
"105 31 OFFCURVE",
"96 31 CURVE SMOOTH",
"87 31 OFFCURVE",
"79 29 OFFCURVE",
"79 15 CURVE SMOOTH"
);
}
);
width = 364;
}
);
note = question;
unicode = 003F;
},
{
glyphname = at;
lastChange = "2021-04-18 10:29:33 +0000";
layers = (
{
layerId = "C7668D88-AC50-4107-9C4B-DB5D26A8FA6C";
paths = (
{
closed = 1;
nodes = (
"563 411 OFFCURVE",
"675 403 OFFCURVE",
"675 257 CURVE SMOOTH",
"675 190 OFFCURVE",
"672 131 OFFCURVE",
"632 130 CURVE SMOOTH",
"617 129 OFFCURVE",
"602 138 OFFCURVE",
"602 158 CURVE SMOOTH",
"602 201 OFFCURVE",
"602 244 OFFCURVE",
"602 287 CURVE SMOOTH",
"602 310 OFFCURVE",
"604 330 OFFCURVE",
"605 335 CURVE",
"586 338 OFFCURVE",
"470 346 OFFCURVE",
"430 346 CURVE SMOOTH",
"273 346 OFFCURVE",
"197 327 OFFCURVE",
"197 212 CURVE SMOOTH",
"197 90 OFFCURVE",
"245 73 OFFCURVE",
"355 73 CURVE SMOOTH",
"397 73 OFFCURVE",
"444 75 OFFCURVE",
"475 85 CURVE SMOOTH",
"493 90 OFFCURVE",
"509 110 OFFCURVE",
"509 131 CURVE",
"533 66 OFFCURVE",
"582 66 OFFCURVE",
"625 67 CURVE SMOOTH",
"740 72 OFFCURVE",
"777 138 OFFCURVE",
"772 269 CURVE SMOOTH",
"765 476 OFFCURVE",
"622 476 OFFCURVE",
"397 476 CURVE SMOOTH",
"123 476 OFFCURVE",
"35 454 OFFCURVE",
"35 181 CURVE SMOOTH",
"35 129 OFFCURVE",
"37 85 OFFCURVE",
"49 50 CURVE SMOOTH",
"96 -92 OFFCURVE",
"407 -64 OFFCURVE",
"519 -57 CURVE SMOOTH",
"621 -51 OFFCURVE",
"718 -38 OFFCURVE",
"786 -13 CURVE",
"786 15 OFFCURVE",
"786 42 OFFCURVE",
"786 70 CURVE",
"717 27 OFFCURVE",
"494 8 OFFCURVE",
"337 10 CURVE SMOOTH",
"194 10 OFFCURVE",
"131 31 OFFCURVE",
"131 190 CURVE SMOOTH",
"131 388 OFFCURVE",
"193 411 OFFCURVE",
"406 411 CURVE SMOOTH"
);
},
{
closed = 1;
nodes = (
"446 206 LINE SMOOTH",
"446 164 OFFCURVE",
"417 158 OFFCURVE",
"402 158 CURVE SMOOTH",
"374 158 OFFCURVE",
"358 158 OFFCURVE",
"358 218 CURVE SMOOTH",
"358 254 OFFCURVE",
"381 261 OFFCURVE",
"404 262 CURVE SMOOTH",
"420 262 OFFCURVE",
"437 259 OFFCURVE",
"446 259 CURVE"
);
}
);
width = 821;
},
{
background = {
paths = (
{
closed = 1;
nodes = (
"527 453 OFFCURVE",
"633 445 OFFCURVE",
"633 271 CURVE SMOOTH",
"633 179 OFFCURVE",
"618 114 OFFCURVE",
"555 114 CURVE SMOOTH",
"531 114 OFFCURVE",
"507 118 OFFCURVE",
"507 151 CURVE SMOOTH",
"507 198 OFFCURVE",
"507 244 OFFCURVE",
"507 291 CURVE SMOOTH",
"507 314 OFFCURVE",
"508 333 OFFCURVE",
"509 336 CURVE",
"492 338 OFFCURVE",
"427 342 OFFCURVE",
"374 344 CURVE SMOOTH",
"263 348 OFFCURVE",
"206 338 OFFCURVE",
"206 219 CURVE SMOOTH",
"206 114 OFFCURVE",
"248 91 OFFCURVE",
"343 91 CURVE SMOOTH",
"374 91 OFFCURVE",
"402 94 OFFCURVE",
"426 101 CURVE SMOOTH",
"453 110 OFFCURVE",
"474 123 OFFCURVE",
"487 142 CURVE",
"487 122 OFFCURVE",
"502 98 OFFCURVE",
"554 98 CURVE SMOOTH",
"652 98 OFFCURVE",
"652 204 OFFCURVE",
"652 268 CURVE SMOOTH",
"652 453 OFFCURVE",
"557 469 OFFCURVE",
"369 469 CURVE SMOOTH",
"176 469 OFFCURVE",
"80 435 OFFCURVE",
"80 214 CURVE SMOOTH",
"80 113 OFFCURVE",
"101 52 OFFCURVE",
"144 16 CURVE SMOOTH",
"193 -25 OFFCURVE",
"272 -34 OFFCURVE",
"382 -34 CURVE SMOOTH",
"499 -34 OFFCURVE",
"618 -7 OFFCURVE",
"676 14 CURVE",
"676 22 OFFCURVE",
"676 29 OFFCURVE",
"676 37 CURVE",
"619 9 OFFCURVE",
"497 -16 OFFCURVE",
"380 -16 CURVE SMOOTH",
"192 -16 OFFCURVE",
"100 7 OFFCURVE",
"100 214 CURVE SMOOTH",
"100 409 OFFCURVE",
"167 453 OFFCURVE",
"368 453 CURVE SMOOTH"
);
},
{
closed = 1;
nodes = (
"487 214 LINE SMOOTH",
"487 113 OFFCURVE",
"401 108 OFFCURVE",
"354 108 CURVE SMOOTH",
"250 108 OFFCURVE",
"227 130 OFFCURVE",
"227 223 CURVE SMOOTH",
"227 307 OFFCURVE",
"255 329 OFFCURVE",
"361 329 CURVE SMOOTH",
"408 329 OFFCURVE",
"474 324 OFFCURVE",
"487 323 CURVE"
);
}
);
};
layerId = "B4E8C596-9C01-4F8A-BDA4-90320E25C0E6";
paths = (
{
closed = 1;
nodes = (
"527 453 OFFCURVE",
"633 445 OFFCURVE",
"633 271 CURVE SMOOTH",
"633 179 OFFCURVE",
"618 114 OFFCURVE",
"555 114 CURVE SMOOTH",
"531 114 OFFCURVE",
"507 118 OFFCURVE",
"507 151 CURVE SMOOTH",
"507 198 OFFCURVE",
"507 244 OFFCURVE",
"507 291 CURVE SMOOTH",
"507 314 OFFCURVE",
"508 333 OFFCURVE",
"509 336 CURVE",
"492 338 OFFCURVE",
"427 342 OFFCURVE",
"374 344 CURVE SMOOTH",
"263 348 OFFCURVE",
"206 338 OFFCURVE",
"206 219 CURVE SMOOTH",
"206 114 OFFCURVE",
"248 91 OFFCURVE",
"343 91 CURVE SMOOTH",
"374 91 OFFCURVE",
"402 94 OFFCURVE",
"426 101 CURVE SMOOTH",
"453 110 OFFCURVE",
"474 123 OFFCURVE",
"487 142 CURVE",
"487 122 OFFCURVE",
"502 98 OFFCURVE",
"554 98 CURVE SMOOTH",
"652 98 OFFCURVE",
"652 204 OFFCURVE",
"652 268 CURVE SMOOTH",
"652 453 OFFCURVE",
"557 469 OFFCURVE",
"369 469 CURVE SMOOTH",
"176 469 OFFCURVE",
"80 435 OFFCURVE",
"80 214 CURVE SMOOTH",
"80 113 OFFCURVE",
"101 52 OFFCURVE",
"144 16 CURVE SMOOTH",
"193 -25 OFFCURVE",
"272 -34 OFFCURVE",
"382 -34 CURVE SMOOTH",
"499 -34 OFFCURVE",
"618 -7 OFFCURVE",
"676 14 CURVE",
"676 22 OFFCURVE",
"676 29 OFFCURVE",
"676 37 CURVE",
"619 9 OFFCURVE",
"497 -16 OFFCURVE",
"380 -16 CURVE SMOOTH",
"192 -16 OFFCURVE",
"100 7 OFFCURVE",
"100 214 CURVE SMOOTH",
"100 409 OFFCURVE",
"167 453 OFFCURVE",
"368 453 CURVE SMOOTH"
);
},
{
closed = 1;
nodes = (
"487 214 LINE SMOOTH",
"487 113 OFFCURVE",
"401 108 OFFCURVE",
"354 108 CURVE SMOOTH",
"250 108 OFFCURVE",
"227 130 OFFCURVE",
"227 223 CURVE SMOOTH",
"227 307 OFFCURVE",
"255 329 OFFCURVE",
"361 329 CURVE SMOOTH",
"408 329 OFFCURVE",
"474 324 OFFCURVE",
"487 323 CURVE"
);
}
);
width = 756;
}
);
note = at;
unicode = 0040;
},
{
glyphname = A;
lastChange = "2021-06-15 08:30:28 +0000";
layers = (
{
anchors = (
{
name = bottom;
position = "{346, 0}";
},
{
name = ogonek;
position = "{623, 10}";
},
{
name = top;
position = "{346, 460}";
}
);
background = {
hints = (
{
horizontal = 1;
place = "{64, 151}";
type = Stem;
},
{
horizontal = 1;
place = "{460, -20}";
target = down;
type = TopGhost;
},
{
place = "{26, 685}";
type = Stem;
},
{
horizontal = 1;
place = "{0, 215}";
type = Stem;
}
);
paths = (
{
closed = 1;
nodes = (
"355 169 LINE",
"254 169 LINE",
"302 265 LINE",
"305 274 LINE",
"306 274 LINE",
"309 265 LINE"
);
},
{
closed = 1;
nodes = (
"510 374 LINE SMOOTH",
"482 434 OFFCURVE",
"427 464 OFFCURVE",
"345 464 CURVE SMOOTH",
"251 464 OFFCURVE",
"210 430 OFFCURVE",
"183 374 CURVE SMOOTH",
"5 0 LINE",
"179 0 LINE",
"219 86 LINE",
"397 86 LINE",
"440 0 LINE",
"687 0 LINE"
);
}
);
};
layerId = "C7668D88-AC50-4107-9C4B-DB5D26A8FA6C";
paths = (
{
closed = 1;
nodes = (
"179 0 LINE",
"219 86 LINE",
"397 86 LINE",
"440 0 LINE",
"687 0 LINE",
"510 374 LINE",
"482 434 OFFCURVE",
"427 464 OFFCURVE",
"350 464 CURVE",
"251 464 OFFCURVE",
"210 430 OFFCURVE",
"183 374 CURVE",
"6 0 LINE"
);
},
{
closed = 1;
nodes = (
"302 265 LINE",
"304 269 OFFCURVE",
"306 274 OFFCURVE",
"306 274 CURVE",
"306 274 OFFCURVE",
"308 269 OFFCURVE",
"309 265 CURVE",
"355 169 LINE",
"254 169 LINE"
);
}
);
width = 692;
},
{
anchors = (
{
name = bottom;
position = "{204, 0}";
},
{
name = ogonek;
position = "{400, 10}";
},
{
name = top;
position = "{204, 460}";
}
);
background = {
paths = (
{
closed = 1;
nodes = (
"21 0 LINE",
"63 142 LINE",
"341 142 LINE",
"384 0 LINE",
"404 0 LINE",
"283 400 LINE SMOOTH",
"269 445 OFFCURVE",
"257 464 OFFCURVE",
"202 464 CURVE SMOOTH",
"147 464 OFFCURVE",
"132 441 OFFCURVE",
"120 400 CURVE SMOOTH",
"4 0 LINE"
);
},
{
closed = 1;
nodes = (
"137 400 LINE SMOOTH",
"144 424 OFFCURVE",
"152 449 OFFCURVE",
"202 449 CURVE SMOOTH",
"246 449 OFFCURVE",
"255 425 OFFCURVE",
"263 400 CURVE SMOOTH",
"336 159 LINE",
"68 159 LINE"
);
}
);
};
layerId = "B4E8C596-9C01-4F8A-BDA4-90320E25C0E6";
paths = (
{
closed = 1;
nodes = (
"21 0 LINE",
"63 142 LINE",
"341 142 LINE",
"384 0 LINE",
"404 0 LINE",
"283 400 LINE SMOOTH",
"269 445 OFFCURVE",
"257 464 OFFCURVE",
"202 464 CURVE SMOOTH",
"147 464 OFFCURVE",
"132 441 OFFCURVE",
"120 400 CURVE SMOOTH",
"4 0 LINE"
);
},
{
closed = 1;
nodes = (
"137 400 LINE SMOOTH",
"144 424 OFFCURVE",
"152 449 OFFCURVE",
"202 449 CURVE SMOOTH",
"246 449 OFFCURVE",
"255 425 OFFCURVE",
"263 400 CURVE SMOOTH",
"336 159 LINE",
"68 159 LINE"
);
}
);
width = 408;
}
);
leftKerningGroup = A;
note = A;
rightKerningGroup = A;
unicode = 0041;
},
{
glyphname = B;
lastChange = "2021-06-15 08:27:41 +0000";
layers = (
{
anchors = (
{
name = bottom;
position = "{349, 0}";
},
{
name = top;
position = "{349, 460}";
}
);
background = {
hints = (
{
horizontal = 1;
place = "{0, 103}";
type = Stem;
},
{
horizontal = 1;
place = "{189, 97}";
type = Stem;
},
{
horizontal = 1;
place = "{372, 88}";
type = Stem;
},
{
place = "{40, 228}";
type = Stem;
},
{
place = "{434, 227}";
type = Stem;
}
);
paths = (
{
closed = 1;
nodes = (
"643 417 OFFCURVE",
"621 460 OFFCURVE",
"513 460 CURVE SMOOTH",
"116 460 LINE SMOOTH",
"49 460 OFFCURVE",
"40 432 OFFCURVE",
"40 376 CURVE SMOOTH",
"40 0 LINE",
"510 0 LINE SMOOTH",
"627 0 OFFCURVE",
"661 22 OFFCURVE",
"661 137 CURVE SMOOTH",
"661 200 OFFCURVE",
"636 237 OFFCURVE",
"592 242 CURVE SMOOTH",
"579 243 OFFCURVE",
"557 243 OFFCURVE",
"552 243 CURVE",
"552 245 LINE",
"579 245 OFFCURVE",
"600 253 OFFCURVE",
"614 265 CURVE SMOOTH",
"634 282 OFFCURVE",
"643 315 OFFCURVE",
"643 347 CURVE SMOOTH"
);
},
{
closed = 1;
nodes = (
"388 189 LINE SMOOTH",
"428 189 OFFCURVE",
"434 177 OFFCURVE",
"434 147 CURVE SMOOTH",
"434 103 OFFCURVE",
"422 103 OFFCURVE",
"387 103 CURVE SMOOTH",
"268 103 LINE",
"268 189 LINE"
);
},
{
closed = 1;
nodes = (
"268 372 LINE",
"381 372 LINE SMOOTH",
"411 372 OFFCURVE",
"417 360 OFFCURVE",
"417 330 CURVE SMOOTH",
"417 286 OFFCURVE",
"405 286 OFFCURVE",
"381 286 CURVE SMOOTH",
"268 286 LINE"
);
}
);
};
layerId = "C7668D88-AC50-4107-9C4B-DB5D26A8FA6C";
paths = (
{
closed = 1;
nodes = (
"40 0 LINE",
"70 -1 OFFCURVE",
"347 -1 OFFCURVE",
"463 -1 CURVE SMOOTH",
"628 -1 OFFCURVE",
"661 22 OFFCURVE",
"661 137 CURVE SMOOTH",
"661 218 OFFCURVE",
"636 245 OFFCURVE",
"552 245 CURVE",
"579 245 OFFCURVE",
"645 255 OFFCURVE",
"645 348 CURVE SMOOTH",
"645 413 OFFCURVE",
"616 452 OFFCURVE",
"539 459 CURVE SMOOTH",
"481 464 OFFCURVE",
"373 462 OFFCURVE",
"87 460 CURVE SMOOTH",
"57 460 OFFCURVE",
"40 453 OFFCURVE",
"40 414 CURVE SMOOTH"
);
},
{
closed = 1;
nodes = (
"227 286 LINE",
"227 279 OFFCURVE",
"223 189 OFFCURVE",
"237 189 CURVE SMOOTH",
"388 189 LINE SMOOTH",
"428 189 OFFCURVE",
"434 177 OFFCURVE",
"434 147 CURVE SMOOTH",
"434 103 OFFCURVE",
"423 103 OFFCURVE",
"387 103 CURVE SMOOTH",
"273 103 OFFCURVE",
"284 103 OFFCURVE",
"268 103 CURVE",
"268 344 LINE SMOOTH",
"268 369 OFFCURVE",
"289 372 OFFCURVE",
"294 372 CURVE SMOOTH",
"328 372 OFFCURVE",
"362 372 OFFCURVE",
"385 372 CURVE SMOOTH",
"411 372 OFFCURVE",
"417 358 OFFCURVE",
"417 330 CURVE SMOOTH",
"417 286 OFFCURVE",
"405 286 OFFCURVE",
"381 286 CURVE SMOOTH"
);
}
);
width = 697;
},
{
anchors = (
{
name = bottom;
position = "{248, 0}";
},
{
name = top;
position = "{248, 460}";
}
);
background = {
paths = (
{
closed = 1;
nodes = (
"52 0 LINE",
"82 -2 OFFCURVE",
"138 -3 OFFCURVE",
"249 -3 CURVE SMOOTH",
"330 -3 OFFCURVE",
"450 -4 OFFCURVE",
"450 123 CURVE SMOOTH",
"450 232 OFFCURVE",
"388 238 OFFCURVE",
"354 238 CURVE",
"386 243 OFFCURVE",
"431 269 OFFCURVE",
"431 348 CURVE SMOOTH",
"431 413 OFFCURVE",
"402 452 OFFCURVE",
"325 459 CURVE SMOOTH",
"267 464 OFFCURVE",
"159 462 OFFCURVE",
"99 460 CURVE SMOOTH",
"69 459 OFFCURVE",
"52 453 OFFCURVE",
"52 414 CURVE SMOOTH"
);
},
{
closed = 1;
nodes = (
"117 244 LINE",
"117 237 OFFCURVE",
"116 227 OFFCURVE",
"128 227 CURVE SMOOTH",
"299 227 LINE SMOOTH",
"400 227 OFFCURVE",
"429 203 OFFCURVE",
"429 124 CURVE SMOOTH",
"429 14 OFFCURVE",
"334 14 OFFCURVE",
"249 14 CURVE SMOOTH",
"135 14 OFFCURVE",
"81 15 OFFCURVE",
"72 16 CURVE",
"72 416 LINE SMOOTH",
"72 441 OFFCURVE",
"94 443 OFFCURVE",
"99 443 CURVE SMOOTH",
"144 445 OFFCURVE",
"256 449 OFFCURVE",
"328 441 CURVE SMOOTH",
"385 435 OFFCURVE",
"410 403 OFFCURVE",
"410 350 CURVE SMOOTH",
"410 263 OFFCURVE",
"355 244 OFFCURVE",
"298 244 CURVE SMOOTH"
);
}
);
};
layerId = "B4E8C596-9C01-4F8A-BDA4-90320E25C0E6";
paths = (
{
closed = 1;
nodes = (
"52 0 LINE",
"82 -2 OFFCURVE",
"138 -3 OFFCURVE",
"249 -3 CURVE SMOOTH",
"330 -3 OFFCURVE",
"450 -4 OFFCURVE",
"450 123 CURVE SMOOTH",
"450 232 OFFCURVE",
"388 238 OFFCURVE",
"354 238 CURVE",
"386 243 OFFCURVE",
"431 269 OFFCURVE",
"431 348 CURVE SMOOTH",
"431 413 OFFCURVE",
"402 452 OFFCURVE",
"325 459 CURVE SMOOTH",
"267 464 OFFCURVE",
"159 462 OFFCURVE",
"99 460 CURVE SMOOTH",
"69 459 OFFCURVE",
"52 453 OFFCURVE",
"52 414 CURVE SMOOTH"
);
},
{
closed = 1;
nodes = (
"117 244 LINE",
"117 237 OFFCURVE",
"116 227 OFFCURVE",
"128 227 CURVE SMOOTH",
"299 227 LINE SMOOTH",
"400 227 OFFCURVE",
"429 203 OFFCURVE",
"429 124 CURVE SMOOTH",
"429 14 OFFCURVE",
"334 14 OFFCURVE",
"249 14 CURVE SMOOTH",
"135 14 OFFCURVE",
"81 15 OFFCURVE",
"72 16 CURVE",
"72 416 LINE SMOOTH",
"72 441 OFFCURVE",
"94 443 OFFCURVE",
"99 443 CURVE SMOOTH",
"144 445 OFFCURVE",
"256 449 OFFCURVE",
"328 441 CURVE SMOOTH",
"385 435 OFFCURVE",
"410 403 OFFCURVE",
"410 350 CURVE SMOOTH",
"410 263 OFFCURVE",
"355 244 OFFCURVE",
"298 244 CURVE SMOOTH"
);
}
);
width = 495;
}
);
leftKerningGroup = B;
note = B;
rightKerningGroup = B;
unicode = 0042;
},
{
glyphname = C;
lastChange = "2021-06-15 08:40:54 +0000";
layers = (
{
anchors = (
{
name = bottom;
position = "{363, 0}";
},
{
name = top;
position = "{369, 460}";
}
);
layerId = "C7668D88-AC50-4107-9C4B-DB5D26A8FA6C";
paths = (
{
closed = 1;
nodes = (
"20 25 OFFCURVE",
"142 -6 OFFCURVE",
"387 -6 CURVE SMOOTH",
"446 -6 OFFCURVE",
"505 -4 OFFCURVE",
"557 4 CURVE SMOOTH",
"627 12 OFFCURVE",
"644 39 OFFCURVE",
"644 82 CURVE SMOOTH",
"644 146 LINE",
"546 127 OFFCURVE",
"483 117 OFFCURVE",
"424 117 CURVE SMOOTH",
"303 117 OFFCURVE",
"253 126 OFFCURVE",
"253 227 CURVE SMOOTH",
"253 334 OFFCURVE",
"302 339 OFFCURVE",
"406 339 CURVE SMOOTH",
"469 339 OFFCURVE",
"571 327 OFFCURVE",
"644 304 CURVE",
"644 373 LINE SMOOTH",
"644 419 OFFCURVE",
"628 444 OFFCURVE",
"562 452 CURVE SMOOTH",
"507 459 OFFCURVE",
"456 462 OFFCURVE",
"396 462 CURVE SMOOTH",
"192 462 OFFCURVE",
"20 451 OFFCURVE",
"20 226 CURVE SMOOTH"
);
}
);
width = 674;
},
{
anchors = (
{
name = bottom;
position = "{268, 0}";
},
{
name = top;
position = "{268, 460}";
}
);
background = {
paths = (
{
closed = 1;
nodes = (
"45 33 OFFCURVE",
"107 -8 OFFCURVE",
"270 -8 CURVE SMOOTH",
"316 -8 OFFCURVE",
"360 -5 OFFCURVE",
"405 4 CURVE SMOOTH",
"434 9 OFFCURVE",
"440 16 OFFCURVE",
"440 25 CURVE SMOOTH",
"440 33 LINE",
"412 18 OFFCURVE",
"322 8 OFFCURVE",
"268 8 CURVE SMOOTH",
"107 8 OFFCURVE",
"65 63 OFFCURVE",
"65 230 CURVE SMOOTH",
"65 395 OFFCURVE",
"114 450 OFFCURVE",
"268 450 CURVE SMOOTH",
"322 450 OFFCURVE",
"412 440 OFFCURVE",
"440 425 CURVE",
"440 433 LINE SMOOTH",
"440 442 OFFCURVE",
"434 449 OFFCURVE",
"405 454 CURVE SMOOTH",
"360 463 OFFCURVE",
"316 466 OFFCURVE",
"270 466 CURVE SMOOTH",
"114 466 OFFCURVE",
"45 422 OFFCURVE",
"45 230 CURVE SMOOTH"
);
}
);
};
layerId = "B4E8C596-9C01-4F8A-BDA4-90320E25C0E6";
paths = (
{
closed = 1;
nodes = (
"45 33 OFFCURVE",
"107 -8 OFFCURVE",
"270 -8 CURVE SMOOTH",
"316 -8 OFFCURVE",
"360 -5 OFFCURVE",
"405 4 CURVE SMOOTH",
"434 9 OFFCURVE",
"440 16 OFFCURVE",
"440 25 CURVE SMOOTH",
"440 33 LINE",
"412 18 OFFCURVE",
"322 8 OFFCURVE",
"268 8 CURVE SMOOTH",
"107 8 OFFCURVE",
"65 63 OFFCURVE",
"65 230 CURVE SMOOTH",
"65 395 OFFCURVE",
"114 450 OFFCURVE",
"268 450 CURVE SMOOTH",
"322 450 OFFCURVE",
"412 440 OFFCURVE",
"440 425 CURVE",
"440 433 LINE SMOOTH",
"440 442 OFFCURVE",
"434 449 OFFCURVE",
"405 454 CURVE SMOOTH",
"360 463 OFFCURVE",
"316 466 OFFCURVE",
"270 466 CURVE SMOOTH",
"114 466 OFFCURVE",
"45 422 OFFCURVE",
"45 230 CURVE SMOOTH"
);
}
);
width = 480;
}
);
leftKerningGroup = C;
note = C;
rightKerningGroup = C;
unicode = 0043;
},
{
glyphname = D;
lastChange = "2021-06-15 08:27:41 +0000";
layers = (
{
anchors = (
{
name = bottom;
position = "{355, 0}";
},
{
name = center;
position = "{355, 230}";
},
{
name = top;
position = "{355, 460}";
}
);
layerId = "C7668D88-AC50-4107-9C4B-DB5D26A8FA6C";
paths = (
{
closed = 1;
nodes = (
"670 450 OFFCURVE",
"547 460 OFFCURVE",
"382 460 CURVE SMOOTH",
"293 460 OFFCURVE",
"205 460 OFFCURVE",
"116 460 CURVE SMOOTH",
"54 460 OFFCURVE",
"40 437 OFFCURVE",
"40 381 CURVE SMOOTH",
"40 0 LINE",
"134 0 OFFCURVE",
"228 0 OFFCURVE",
"322 0 CURVE SMOOTH",
"535 0 OFFCURVE",
"670 4 OFFCURVE",
"670 226 CURVE SMOOTH"
);
},
{
closed = 1;
nodes = (
"268 318 LINE",
"268 328 OFFCURVE",
"268 339 OFFCURVE",
"268 349 CURVE",
"293 349 OFFCURVE",
"319 349 OFFCURVE",
"344 349 CURVE SMOOTH",
"418 349 OFFCURVE",
"444 342 OFFCURVE",
"444 227 CURVE SMOOTH",
"444 158 OFFCURVE",
"425 112 OFFCURVE",
"353 112 CURVE SMOOTH",
"325 112 OFFCURVE",
"296 112 OFFCURVE",
"268 112 CURVE"
);
}
);
width = 710;
},
{
anchors = (
{
name = bottom;
position = "{249, 0}";
},
{
name = center;
position = "{249, 230}";
},
{
name = top;
position = "{249, 460}";
}
);
background = {
paths = (
{
closed = 1;
nodes = (
"470 450 OFFCURVE",
"394 455 OFFCURVE",
"275 462 CURVE SMOOTH",
"238 464 OFFCURVE",
"122 462 OFFCURVE",
"97 460 CURVE SMOOTH",
"51 456 OFFCURVE",
"52 438 OFFCURVE",
"52 398 CURVE SMOOTH",
"52 0 LINE",
"72 0 OFFCURVE",
"175 -3 OFFCURVE",
"222 -3 CURVE SMOOTH",
"364 -3 OFFCURVE",
"470 -10 OFFCURVE",
"470 225 CURVE SMOOTH"
);
},
{
closed = 1;
nodes = (
"72 404 LINE SMOOTH",
"72 434 OFFCURVE",
"79 438 OFFCURVE",
"93 441 CURVE SMOOTH",
"120 446 OFFCURVE",
"213 446 OFFCURVE",
"242 446 CURVE SMOOTH",
"403 446 OFFCURVE",
"450 408 OFFCURVE",
"450 224 CURVE SMOOTH",
"450 42 OFFCURVE",
"395 14 OFFCURVE",
"234 14 CURVE SMOOTH",
"201 14 OFFCURVE",
"88 16 OFFCURVE",
"72 17 CURVE"
);
}
);
};
layerId = "B4E8C596-9C01-4F8A-BDA4-90320E25C0E6";
paths = (
{
closed = 1;
nodes = (
"470 450 OFFCURVE",
"394 455 OFFCURVE",
"275 462 CURVE SMOOTH",
"238 464 OFFCURVE",
"122 462 OFFCURVE",
"97 460 CURVE SMOOTH",
"51 456 OFFCURVE",
"52 438 OFFCURVE",
"52 398 CURVE SMOOTH",
"52 0 LINE",
"72 0 OFFCURVE",
"175 -3 OFFCURVE",
"222 -3 CURVE SMOOTH",
"364 -3 OFFCURVE",
"470 -10 OFFCURVE",
"470 225 CURVE SMOOTH"
);
},
{
closed = 1;
nodes = (
"72 404 LINE SMOOTH",
"72 434 OFFCURVE",
"79 438 OFFCURVE",
"93 441 CURVE SMOOTH",
"120 446 OFFCURVE",
"213 446 OFFCURVE",
"242 446 CURVE SMOOTH",
"403 446 OFFCURVE",
"450 408 OFFCURVE",
"450 224 CURVE SMOOTH",
"450 42 OFFCURVE",
"395 14 OFFCURVE",
"234 14 CURVE SMOOTH",
"201 14 OFFCURVE",
"88 16 OFFCURVE",
"72 17 CURVE"
);
}
);
width = 498;
}
);
leftKerningGroup = H;
note = D;
rightKerningGroup = O;
unicode = 0044;
},
{
glyphname = E;
lastChange = "2021-06-15 08:41:29 +0000";
layers = (
{
anchors = (
{
name = bottom;
position = "{332, 0}";
},
{
name = ogonek;
position = "{399, 10}";
},
{
name = top;
position = "{332, 460}";
},
{
name = topleft;
position = "{20, 460}";
}
);
layerId = "C7668D88-AC50-4107-9C4B-DB5D26A8FA6C";
paths = (
{
closed = 1;
nodes = (
"624 0 LINE",
"624 116 LINE",
"269 116 LINE",
"269 174 LINE",
"589 174 LINE",
"589 289 LINE",
"269 289 LINE",
"269 344 LINE",
"624 344 LINE",
"624 460 LINE",
"114 460 LINE SMOOTH",
"40 460 OFFCURVE",
"40 440 OFFCURVE",
"40 380 CURVE SMOOTH",
"40 0 LINE"
);
}
);
width = 664;
},
{
anchors = (
{
name = bottom;
position = "{228, 0}";
},
{
name = ogonek;
position = "{410, 10}";
},
{
name = top;
position = "{228, 460}";
},
{
name = topleft;
position = "{20, 460}";
}
);
background = {
paths = (
{
closed = 1;
nodes = (
"416 0 LINE",
"416 17 LINE",
"72 17 LINE",
"72 236 LINE",
"390 236 LINE",
"390 253 LINE",
"72 253 LINE",
"72 443 LINE",
"416 443 LINE",
"416 460 LINE",
"62 460 LINE SMOOTH",
"52 460 OFFCURVE",
"52 453 OFFCURVE",
"52 441 CURVE SMOOTH",
"52 0 LINE"
);
}
);
};
layerId = "B4E8C596-9C01-4F8A-BDA4-90320E25C0E6";
paths = (
{
closed = 1;
nodes = (
"416 0 LINE",
"416 17 LINE",
"72 17 LINE",
"72 236 LINE",
"390 236 LINE",
"390 253 LINE",
"72 253 LINE",
"72 443 LINE",
"416 443 LINE",
"416 460 LINE",
"62 460 LINE SMOOTH",
"52 460 OFFCURVE",
"52 453 OFFCURVE",
"52 441 CURVE SMOOTH",
"52 0 LINE"
);
}
);
width = 456;
}
);
leftKerningGroup = E;
note = E;
rightKerningGroup = E;
unicode = 0045;
},
{
glyphname = F;
lastChange = "2021-06-15 08:27:41 +0000";
layers = (
{
anchors = (
{
name = bottom;
position = "{325, 0}";
},
{
name = top;
position = "{325, 460}";
}
);
layerId = "C7668D88-AC50-4107-9C4B-DB5D26A8FA6C";
paths = (
{
closed = 1;
nodes = (
"269 0 LINE",
"269 174 LINE",
"589 174 LINE",
"589 289 LINE",
"269 289 LINE",
"269 344 LINE",
"624 344 LINE",
"624 460 LINE",
"114 460 LINE SMOOTH",
"40 460 OFFCURVE",
"40 440 OFFCURVE",
"40 380 CURVE SMOOTH",
"40 0 LINE"
);
}
);
width = 649;
},
{
anchors = (
{
name = bottom;
position = "{220, 0}";
},
{
name = top;
position = "{220, 460}";
}
);
background = {
paths = (
{
closed = 1;
nodes = (
"72 0 LINE",
"72 236 LINE",
"390 236 LINE",
"390 253 LINE",
"72 253 LINE",
"72 443 LINE",
"416 443 LINE",
"416 460 LINE",
"62 460 LINE SMOOTH",
"52 460 OFFCURVE",
"52 453 OFFCURVE",
"52 441 CURVE SMOOTH",
"52 0 LINE"
);
}
);
};
layerId = "B4E8C596-9C01-4F8A-BDA4-90320E25C0E6";
paths = (
{
closed = 1;
nodes = (
"72 0 LINE",
"72 236 LINE",
"390 236 LINE",
"390 253 LINE",
"72 253 LINE",
"72 443 LINE",
"416 443 LINE",
"416 460 LINE",
"62 460 LINE SMOOTH",
"52 460 OFFCURVE",
"52 453 OFFCURVE",
"52 441 CURVE SMOOTH",
"52 0 LINE"
);
}
);
width = 439;
}
);
leftKerningGroup = E;
note = F;
rightKerningGroup = F;
unicode = 0046;
},
{
glyphname = G;
lastChange = "2021-04-18 10:29:33 +0000";
layers = (
{
anchors = (
{
name = bottom;
position = "{358, 0}";
},
{
name = top;
position = "{358, 460}";
}
);
layerId = "C7668D88-AC50-4107-9C4B-DB5D26A8FA6C";
paths = (
{
closed = 1;
nodes = (
"321 -3 OFFCURVE",
"336 -3 OFFCURVE",
"351 -3 CURVE SMOOTH",
"555 -3 OFFCURVE",
"693 -3 OFFCURVE",
"693 158 CURVE SMOOTH",
"694 290 LINE",
"406 290 LINE SMOOTH",
"312 290 OFFCURVE",
"306 263 OFFCURVE",
"306 174 CURVE",
"496 174 LINE",
"496 168 OFFCURVE",
"496 163 OFFCURVE",
"496 157 CURVE SMOOTH",
"496 131 OFFCURVE",
"474 117 OFFCURVE",
"367 117 CURVE SMOOTH",
"287 117 OFFCURVE",
"245 130 OFFCURVE",
"245 227 CURVE SMOOTH",
"245 337 OFFCURVE",
"284 348 OFFCURVE",
"422 348 CURVE SMOOTH",
"449 348 OFFCURVE",
"658 346 OFFCURVE",
"676 316 CURVE",
"676 370 LINE SMOOTH",
"676 402 OFFCURVE",
"674 441 OFFCURVE",
"608 454 CURVE SMOOTH",
"576 462 OFFCURVE",
"486 465 OFFCURVE",
"396 465 CURVE SMOOTH",
"164 465 OFFCURVE",
"20 443 OFFCURVE",
"20 226 CURVE SMOOTH",
"20 34 OFFCURVE",
"118 2 OFFCURVE",
"306 -3 CURVE SMOOTH"
);
}
);
width = 715;
},
{
anchors = (
{
name = bottom;
position = "{251, 0}";
},
{
name = top;
position = "{251, 460}";
}
);
background = {
paths = (
{
closed = 1;
nodes = (
"255 -9 OFFCURVE",
"256 -9 OFFCURVE",
"258 -9 CURVE SMOOTH",
"392 -9 OFFCURVE",
"460 32 OFFCURVE",
"460 187 CURVE SMOOTH",
"460 246 LINE",
"256 246 LINE SMOOTH",
"241 246 OFFCURVE",
"239 244 OFFCURVE",
"239 229 CURVE",
"440 229 LINE",
"440 222 OFFCURVE",
"441 206 OFFCURVE",
"440 185 CURVE SMOOTH",
"435 39 OFFCURVE",
"386 8 OFFCURVE",
"257 8 CURVE SMOOTH",
"106 8 OFFCURVE",
"65 67 OFFCURVE",
"65 230 CURVE SMOOTH",
"65 395 OFFCURVE",
"114 450 OFFCURVE",
"268 450 CURVE SMOOTH",
"322 450 OFFCURVE",
"412 440 OFFCURVE",
"440 425 CURVE",
"440 433 LINE SMOOTH",
"440 442 OFFCURVE",
"434 449 OFFCURVE",
"405 454 CURVE SMOOTH",
"360 463 OFFCURVE",
"316 466 OFFCURVE",
"270 466 CURVE SMOOTH",
"116 466 OFFCURVE",
"45 422 OFFCURVE",
"45 230 CURVE SMOOTH",
"45 40 OFFCURVE",
"107 -8 OFFCURVE",
"253 -9 CURVE SMOOTH"
);
}
);
};
layerId = "B4E8C596-9C01-4F8A-BDA4-90320E25C0E6";
paths = (
{
closed = 1;
nodes = (
"255 -9 OFFCURVE",
"256 -9 OFFCURVE",
"258 -9 CURVE SMOOTH",
"392 -9 OFFCURVE",
"460 32 OFFCURVE",
"460 187 CURVE SMOOTH",
"460 246 LINE",
"256 246 LINE SMOOTH",
"241 246 OFFCURVE",
"239 244 OFFCURVE",
"239 229 CURVE",
"440 229 LINE",
"440 222 OFFCURVE",
"441 206 OFFCURVE",
"440 185 CURVE SMOOTH",
"435 39 OFFCURVE",
"386 8 OFFCURVE",
"257 8 CURVE SMOOTH",
"106 8 OFFCURVE",
"65 67 OFFCURVE",
"65 230 CURVE SMOOTH",
"65 395 OFFCURVE",
"114 450 OFFCURVE",
"268 450 CURVE SMOOTH",
"322 450 OFFCURVE",
"412 440 OFFCURVE",
"440 425 CURVE",
"440 433 LINE SMOOTH",
"440 442 OFFCURVE",
"434 449 OFFCURVE",
"405 454 CURVE SMOOTH",
"360 463 OFFCURVE",
"316 466 OFFCURVE",
"270 466 CURVE SMOOTH",
"116 466 OFFCURVE",
"45 422 OFFCURVE",
"45 230 CURVE SMOOTH",
"45 40 OFFCURVE",
"107 -8 OFFCURVE",
"253 -9 CURVE SMOOTH"
);
}
);
width = 502;
}
);
leftKerningGroup = G;
note = G;
rightKerningGroup = G;
unicode = 0047;
},
{
glyphname = H;
lastChange = "2021-04-18 10:29:33 +0000";
layers = (
{
anchors = (
{
name = bottom;
position = "{352, 0}";
},
{
name = center;
position = "{352, 230}";
},
{
name = top;
position = "{352, 460}";
},
{
name = topleft;
position = "{20, 460}";
}
);
layerId = "C7668D88-AC50-4107-9C4B-DB5D26A8FA6C";
paths = (
{
closed = 1;
nodes = (
"268 0 LINE",
"268 182 LINE",
"436 182 LINE",
"436 0 LINE",
"598 0 LINE SMOOTH",
"670 0 OFFCURVE",
"664 36 OFFCURVE",
"664 77 CURVE SMOOTH",
"664 460 LINE",
"436 460 LINE",
"436 297 LINE",
"268 297 LINE",
"268 460 LINE",
"114 460 LINE SMOOTH",
"40 460 OFFCURVE",
"40 435 OFFCURVE",
"40 395 CURVE SMOOTH",
"40 0 LINE"
);
}
);
width = 704;
},
{
anchors = (
{
name = bottom;
position = "{249, 0}";
},
{
name = center;
position = "{249, 230}";
},
{
name = top;
position = "{249, 460}";
},
{
name = topleft;
position = "{20, 460}";
}
);
background = {
paths = (
{
closed = 1;
nodes = (
"72 0 LINE",
"72 229 LINE",
"426 229 LINE",
"426 0 LINE",
"434 0 LINE SMOOTH",
"444 0 OFFCURVE",
"446 3 OFFCURVE",
"446 18 CURVE SMOOTH",
"446 460 LINE",
"426 460 LINE",
"426 246 LINE",
"72 246 LINE",
"72 460 LINE",
"64 460 LINE SMOOTH",
"54 460 OFFCURVE",
"52 457 OFFCURVE",
"52 442 CURVE SMOOTH",
"52 0 LINE"
);
}
);
};
layerId = "B4E8C596-9C01-4F8A-BDA4-90320E25C0E6";
paths = (
{
closed = 1;
nodes = (
"72 0 LINE",
"72 229 LINE",
"426 229 LINE",
"426 0 LINE",
"434 0 LINE SMOOTH",
"444 0 OFFCURVE",
"446 3 OFFCURVE",
"446 18 CURVE SMOOTH",
"446 460 LINE",
"426 460 LINE",
"426 246 LINE",
"72 246 LINE",
"72 460 LINE",
"64 460 LINE SMOOTH",
"54 460 OFFCURVE",
"52 457 OFFCURVE",
"52 442 CURVE SMOOTH",
"52 0 LINE"
);
}
);
width = 498;
}
);
leftKerningGroup = E;
note = H;
rightKerningGroup = H;
unicode = 0048;
},
{
glyphname = I;
lastChange = "2021-06-15 08:41:47 +0000";
layers = (
{
anchors = (
{
name = bottom;
position = "{154, 0}";
},
{
name = ogonek;
position = "{226, 10}";
},
{
name = top;
position = "{154, 460}";
},
{
name = topleft;
position = "{20, 460}";
}
);
layerId = "C7668D88-AC50-4107-9C4B-DB5D26A8FA6C";
paths = (
{
closed = 1;
nodes = (
"268 0 LINE",
"268 460 LINE",
"114 460 LINE",
"41 460 OFFCURVE",
"40 436 OFFCURVE",
"40 394 CURVE SMOOTH",
"40 263 OFFCURVE",
"40 131 OFFCURVE",
"40 0 CURVE"
);
}
);
width = 308;
},
{
anchors = (
{
name = bottom;
position = "{89, 0}";
},
{
name = ogonek;
position = "{108, 10}";
},
{
name = top;
position = "{89, 460}";
},
{
name = topleft;
position = "{20, 460}";
}
);
background = {
paths = (
{
closed = 1;
nodes = (
"108 0 LINE",
"108 460 LINE",
"98 460 LINE SMOOTH",
"88 460 OFFCURVE",
"88 453 OFFCURVE",
"88 441 CURVE SMOOTH",
"88 294 OFFCURVE",
"88 147 OFFCURVE",
"88 0 CURVE"
);
}
);
};
layerId = "B4E8C596-9C01-4F8A-BDA4-90320E25C0E6";
paths = (
{
closed = 1;
nodes = (
"108 0 LINE",
"108 460 LINE",
"98 460 LINE SMOOTH",
"88 460 OFFCURVE",
"88 453 OFFCURVE",
"88 441 CURVE SMOOTH",
"88 294 OFFCURVE",
"88 147 OFFCURVE",
"88 0 CURVE"
);
}
);
width = 178;
}
);
leftKerningGroup = H;
note = I;
rightKerningGroup = I;
unicode = 0049;
},
{
glyphname = J;
lastChange = "2021-06-15 08:41:55 +0000";
layers = (
{
anchors = (
{
name = bottom;
position = "{203, 0}";
},
{
name = top;
position = "{242, 460}";
}
);
layerId = "C7668D88-AC50-4107-9C4B-DB5D26A8FA6C";
paths = (
{
closed = 1;
nodes = (
"366 379 LINE SMOOTH",
"366 433 OFFCURVE",
"370 460 OFFCURVE",
"292 460 CURVE SMOOTH",
"138 460 LINE",
"138 157 LINE SMOOTH",
"138 137 OFFCURVE",
"132 118 OFFCURVE",
"108 118 CURVE SMOOTH",
"85 118 OFFCURVE",
"43 129 OFFCURVE",
"25 136 CURVE",
"25 6 LINE",
"101 -1 OFFCURVE",
"138 -5 OFFCURVE",
"217 -1 CURVE SMOOTH",
"276 2 OFFCURVE",
"350 15 OFFCURVE",
"363 90 CURVE SMOOTH",
"366 105 OFFCURVE",
"366 126 OFFCURVE",
"366 148 CURVE SMOOTH"
);
}
);
width = 406;
},
{
anchors = (
{
name = bottom;
position = "{116, 0}";
},
{
name = top;
position = "{116, 460}";
}
);
background = {
paths = (
{
closed = 1;
nodes = (
"161 445 LINE SMOOTH",
"161 454 OFFCURVE",
"160 460 OFFCURVE",
"151 460 CURVE SMOOTH",
"141 460 LINE",
"141 69 LINE SMOOTH",
"141 26 OFFCURVE",
"123 13 OFFCURVE",
"79 13 CURVE SMOOTH",
"69 13 OFFCURVE",
"47 16 OFFCURVE",
"40 19 CURVE",
"40 2 LINE",
"59 -3 OFFCURVE",
"85 -3 OFFCURVE",
"94 -3 CURVE SMOOTH",
"139 -3 OFFCURVE",
"155 25 OFFCURVE",
"159 49 CURVE SMOOTH",
"163 73 OFFCURVE",
"161 122 OFFCURVE",
"161 150 CURVE SMOOTH"
);
}
);
};
layerId = "B4E8C596-9C01-4F8A-BDA4-90320E25C0E6";
paths = (
{
closed = 1;
nodes = (
"161 445 LINE SMOOTH",
"161 454 OFFCURVE",
"160 460 OFFCURVE",
"151 460 CURVE SMOOTH",
"141 460 LINE",
"141 69 LINE SMOOTH",
"141 26 OFFCURVE",
"123 13 OFFCURVE",
"79 13 CURVE SMOOTH",
"69 13 OFFCURVE",
"47 16 OFFCURVE",
"40 19 CURVE",
"40 2 LINE",
"59 -3 OFFCURVE",
"85 -3 OFFCURVE",
"94 -3 CURVE SMOOTH",
"139 -3 OFFCURVE",
"155 25 OFFCURVE",
"159 49 CURVE SMOOTH",
"163 73 OFFCURVE",
"161 122 OFFCURVE",
"161 150 CURVE SMOOTH"
);
}
);
width = 232;
}
);
leftKerningGroup = J;
note = J;
rightKerningGroup = H;
unicode = 004A;
},
{
glyphname = K;
lastChange = "2021-06-15 08:27:41 +0000";
layers = (
{
anchors = (
{
name = bottom;
position = "{349, 0}";
},
{
name = top;
position = "{349, 460}";
}
);
background = {
hints = (
{
horizontal = 1;
place = "{0, 21}";
target = up;
type = BottomGhost;
},
{
horizontal = 1;
place = "{446, 22}";
type = Stem;
},
{
place = "{40, 227}";
type = Stem;
}
);
paths = (
{
closed = 1;
nodes = (
"267 0 LINE",
"267 41 OFFCURVE",
"267 81 OFFCURVE",
"267 122 CURVE",
"297 96 OFFCURVE",
"327 70 OFFCURVE",
"357 44 CURVE SMOOTH",
"447 -33 OFFCURVE",
"620 -46 OFFCURVE",
"696 50 CURVE",
"607 128 OFFCURVE",
"517 206 OFFCURVE",
"428 284 CURVE",
"507 338 OFFCURVE",
"586 392 OFFCURVE",
"665 446 CURVE",
"611 470 OFFCURVE",
"473 482 OFFCURVE",
"414 439 CURVE SMOOTH",
"267 333 LINE",
"267 460 LINE",
"216 460 OFFCURVE",
"165 460 OFFCURVE",
"114 460 CURVE SMOOTH",
"40 460 OFFCURVE",
"40 435 OFFCURVE",
"40 393 CURVE SMOOTH",
"40 262 OFFCURVE",
"40 131 OFFCURVE",
"40 0 CURVE"
);
}
);
};
layerId = "C7668D88-AC50-4107-9C4B-DB5D26A8FA6C";
paths = (
{
closed = 1;
nodes = (
"635 417 LINE SMOOTH",
"646 424 OFFCURVE",
"685 453 OFFCURVE",
"689 456 CURVE",
"685 459 OFFCURVE",
"473 482 OFFCURVE",
"414 439 CURVE SMOOTH",
"378 413 OFFCURVE",
"310 364 OFFCURVE",
"299 356 CURVE SMOOTH",
"285 346 OFFCURVE",
"274 338 OFFCURVE",
"270 335 CURVE",
"270 335 OFFCURVE",
"267 333 OFFCURVE",
"267 333 CURVE",
"267 371 OFFCURVE",
"267 422 OFFCURVE",
"267 460 CURVE",
"216 460 OFFCURVE",
"164 460 OFFCURVE",
"113 460 CURVE SMOOTH",
"41 460 OFFCURVE",
"40 436 OFFCURVE",
"40 393 CURVE SMOOTH",
"40 0 LINE",
"116 0 OFFCURVE",
"191 0 OFFCURVE",
"267 0 CURVE",
"267 37 OFFCURVE",
"267 85 OFFCURVE",
"267 122 CURVE",
"269 121 OFFCURVE",
"273 117 OFFCURVE",
"279 112 CURVE",
"293 100 OFFCURVE",
"297 96 OFFCURVE",
"315 81 CURVE SMOOTH",
"449 -31 OFFCURVE",
"495 -18 OFFCURVE",
"545 -18 CURVE SMOOTH",
"646 -18 OFFCURVE",
"696 50 OFFCURVE",
"696 50 CURVE",
"609 126 OFFCURVE",
"523 202 OFFCURVE",
"436 278 CURVE"
);
}
);
width = 697;
},
{
anchors = (
{
name = bottom;
position = "{219, 0}";
},
{
name = top;
position = "{219, 460}";
}
);
background = {
hints = (
{
horizontal = 1;
place = "{0, 21}";
target = up;
type = BottomGhost;
},
{
horizontal = 1;
place = "{231, 16}";
type = Stem;
},
{
place = "{53, 20}";
type = Stem;
}
);
paths = (
{
closed = 1;
nodes = (
"284 349 LINE SMOOTH",
"292 358 OFFCURVE",
"377 453 OFFCURVE",
"381 456 CURVE",
"377 459 OFFCURVE",
"367 466 OFFCURVE",
"355 453 CURVE SMOOTH",
"300 391 OFFCURVE",
"244 329 OFFCURVE",
"189 267 CURVE SMOOTH",
"177 253 OFFCURVE",
"172 247 OFFCURVE",
"149 247 CURVE",
"149 247 OFFCURVE",
"95 247 OFFCURVE",
"80 247 CURVE",
"80 285 OFFCURVE",
"80 422 OFFCURVE",
"80 460 CURVE",
"76 460 OFFCURVE",
"74 460 OFFCURVE",
"68 460 CURVE SMOOTH",
"63 460 OFFCURVE",
"60 456 OFFCURVE",
"60 447 CURVE SMOOTH",
"60 0 LINE",
"70 0 OFFCURVE",
"72 0 OFFCURVE",
"80 0 CURVE",
"80 37 OFFCURVE",
"80 194 OFFCURVE",
"80 231 CURVE",
"168 231 OFFCURVE",
"174 232 OFFCURVE",
"186 218 CURVE",
"210 189 OFFCURVE",
"344 31 OFFCURVE",
"361 12 CURVE SMOOTH",
"370 2 OFFCURVE",
"377 -1 OFFCURVE",
"383 -1 CURVE SMOOTH",
"393 -1 OFFCURVE",
"392 -1 OFFCURVE",
"397 0 CURVE",
"344 60 OFFCURVE",
"259 163 OFFCURVE",
"190 244 CURVE"
);
}
);
};
layerId = "B4E8C596-9C01-4F8A-BDA4-90320E25C0E6";
paths = (
{
closed = 1;
nodes = (
"284 349 LINE SMOOTH",
"292 358 OFFCURVE",
"377 453 OFFCURVE",
"381 456 CURVE",
"377 459 OFFCURVE",
"367 466 OFFCURVE",
"355 453 CURVE SMOOTH",
"300 391 OFFCURVE",
"244 329 OFFCURVE",
"189 267 CURVE SMOOTH",
"177 253 OFFCURVE",
"172 247 OFFCURVE",
"149 247 CURVE",
"149 247 OFFCURVE",
"95 247 OFFCURVE",
"80 247 CURVE",
"80 285 OFFCURVE",
"80 422 OFFCURVE",
"80 460 CURVE",
"76 460 OFFCURVE",
"74 460 OFFCURVE",
"68 460 CURVE SMOOTH",
"63 460 OFFCURVE",
"60 456 OFFCURVE",
"60 447 CURVE SMOOTH",
"60 0 LINE",
"70 0 OFFCURVE",
"72 0 OFFCURVE",
"80 0 CURVE",
"80 37 OFFCURVE",
"80 194 OFFCURVE",
"80 231 CURVE",
"168 231 OFFCURVE",
"174 232 OFFCURVE",
"186 218 CURVE",
"210 189 OFFCURVE",
"344 31 OFFCURVE",
"361 12 CURVE SMOOTH",
"370 2 OFFCURVE",
"377 -1 OFFCURVE",
"383 -1 CURVE SMOOTH",
"393 -1 OFFCURVE",
"392 -1 OFFCURVE",
"397 0 CURVE",
"344 60 OFFCURVE",
"259 163 OFFCURVE",
"190 244 CURVE"
);
}
);
width = 437;
}
);
leftKerningGroup = H;
note = K;
rightKerningGroup = K;
unicode = 004B;
},
{
glyphname = L;
lastChange = "2021-04-18 11:37:23 +0000";
layers = (
{
anchors = (
{
name = bottom;
position = "{300, 0}";
},
{
name = center;
position = "{300, 230}";
},
{
name = top;
position = "{204, 460}";
},
{
name = topright;
position = "{363, 460}";
}
);
layerId = "C7668D88-AC50-4107-9C4B-DB5D26A8FA6C";
paths = (
{
closed = 1;
nodes = (
"114 460 LINE SMOOTH",
"39 460 OFFCURVE",
"40 437 OFFCURVE",
"40 390 CURVE SMOOTH",
"40 0 LINE",
"566 0 LINE",
"566 116 LINE",
"269 116 LINE",
"269 460 LINE"
);
}
);
width = 599;
},
{
anchors = (
{
name = bottom;
position = "{201, 0}";
},
{
name = center;
position = "{201, 230}";
},
{
name = top;
position = "{62, 460}";
},
{
name = topright;
position = "{185, 460}";
}
);
background = {
paths = (
{
closed = 1;
nodes = (
"62 460 LINE SMOOTH",
"52 460 OFFCURVE",
"52 453 OFFCURVE",
"52 441 CURVE SMOOTH",
"52 0 LINE",
"386 0 LINE",
"386 17 LINE",
"72 17 LINE",
"72 460 LINE"
);
}
);
};
layerId = "B4E8C596-9C01-4F8A-BDA4-90320E25C0E6";
paths = (
{
closed = 1;
nodes = (
"62 460 LINE SMOOTH",
"52 460 OFFCURVE",
"52 453 OFFCURVE",
"52 441 CURVE SMOOTH",
"52 0 LINE",
"386 0 LINE",
"386 17 LINE",
"72 17 LINE",
"72 460 LINE"
);
}
);
width = 401;
}
);
leftKerningGroup = E;
note = L;
rightKerningGroup = L;
unicode = 004C;
},
{
glyphname = M;
lastChange = "2021-04-18 10:29:33 +0000";
layers = (
{
anchors = (
{
name = bottom;
position = "{384, 0}";
},
{
name = top;
position = "{384, 460}";
}
);
layerId = "C7668D88-AC50-4107-9C4B-DB5D26A8FA6C";
paths = (
{
closed = 1;
nodes = (
"199 0 LINE",
"199 218 LINE",
"207 179 LINE",
"281 0 LINE",
"414 0 LINE",
"488 179 LINE",
"496 218 LINE",
"496 0 LINE",
"645 0 LINE SMOOTH",
"710 0 OFFCURVE",
"728 0 OFFCURVE",
"728 66 CURVE SMOOTH",
"728 393 LINE SMOOTH",
"728 446 OFFCURVE",
"717 460 OFFCURVE",
"653 460 CURVE SMOOTH",
"463 460 LINE",
"387 276 LINE",
"385 263 LINE",
"383 263 LINE",
"381 276 LINE",
"299 460 LINE",
"123 460 LINE SMOOTH",
"56 460 OFFCURVE",
"40 453 OFFCURVE",
"40 400 CURVE SMOOTH",
"40 0 LINE"
);
}
);
width = 768;
},
{
anchors = (
{
name = bottom;
position = "{285, 0}";
},
{
name = top;
position = "{285, 460}";
}
);
background = {
paths = (
{
closed = 1;
nodes = (
"71 0 LINE",
"71 425 LINE",
"73 421 LINE",
"265 0 LINE",
"286 0 LINE",
"483 430 LINE",
"486 436 LINE",
"486 0 LINE",
"496 0 LINE SMOOTH",
"505 0 OFFCURVE",
"506 5 OFFCURVE",
"506 18 CURVE SMOOTH",
"506 444 LINE SMOOTH",
"506 462 OFFCURVE",
"502 460 OFFCURVE",
"489 460 CURVE SMOOTH",
"478 460 LINE",
"280 28 LINE",
"278 23 LINE",
"277 20 LINE",
"275 25 LINE",
"77 460 LINE",
"68 460 LINE SMOOTH",
"53 460 OFFCURVE",
"54 458 OFFCURVE",
"54 429 CURVE SMOOTH",
"54 0 LINE"
);
}
);
};
layerId = "B4E8C596-9C01-4F8A-BDA4-90320E25C0E6";
paths = (
{
closed = 1;
nodes = (
"71 0 LINE",
"71 425 LINE",
"73 421 LINE",
"265 0 LINE",
"286 0 LINE",
"483 430 LINE",
"486 436 LINE",
"486 0 LINE",
"496 0 LINE SMOOTH",
"505 0 OFFCURVE",
"506 5 OFFCURVE",
"506 18 CURVE SMOOTH",
"506 444 LINE SMOOTH",
"506 462 OFFCURVE",
"502 460 OFFCURVE",
"489 460 CURVE SMOOTH",
"478 460 LINE",
"280 28 LINE",
"278 23 LINE",
"277 20 LINE",
"275 25 LINE",
"77 460 LINE",
"68 460 LINE SMOOTH",
"53 460 OFFCURVE",
"54 458 OFFCURVE",
"54 429 CURVE SMOOTH",
"54 0 LINE"
);
}
);
width = 569;
}
);
leftKerningGroup = E;
note = M;
rightKerningGroup = M;
unicode = 004D;
},
{
glyphname = N;
lastChange = "2021-04-18 10:29:33 +0000";
layers = (
{
anchors = (
{
name = bottom;
position = "{354, 0}";
},
{
name = top;
position = "{354, 460}";
}
);
layerId = "C7668D88-AC50-4107-9C4B-DB5D26A8FA6C";
paths = (
{
closed = 1;
nodes = (
"202 0 LINE",
"202 279 LINE",
"209 240 LINE",
"377 0 LINE",
"575 0 LINE SMOOTH",
"640 0 OFFCURVE",
"663 5 OFFCURVE",
"663 56 CURVE SMOOTH",
"663 386 LINE SMOOTH",
"663 409 OFFCURVE",
"662 455 OFFCURVE",
"667 460 CURVE",
"502 460 LINE",
"502 191 LINE",
"495 230 LINE",
"335 460 LINE",
"116 460 LINE SMOOTH",
"50 460 OFFCURVE",
"40 446 OFFCURVE",
"40 393 CURVE SMOOTH",
"40 0 LINE"
);
}
);
width = 707;
},
{
anchors = (
{
name = bottom;
position = "{257, 0}";
},
{
name = top;
position = "{257, 460}";
}
);
background = {
paths = (
{
closed = 1;
nodes = (
"77 0 LINE",
"77 429 LINE",
"77 438 LINE",
"427 0 LINE",
"438 0 LINE SMOOTH",
"453 0 OFFCURVE",
"452 2 OFFCURVE",
"452 31 CURVE SMOOTH",
"452 438 LINE SMOOTH",
"452 447 OFFCURVE",
"452 457 OFFCURVE",
"454 460 CURVE",
"435 460 LINE",
"435 34 LINE",
"435 22 LINE",
"84 460 LINE",
"74 460 LINE SMOOTH",
"59 460 OFFCURVE",
"60 458 OFFCURVE",
"60 429 CURVE SMOOTH",
"60 0 LINE"
);
}
);
};
layerId = "B4E8C596-9C01-4F8A-BDA4-90320E25C0E6";
paths = (
{
closed = 1;
nodes = (
"77 0 LINE",
"77 429 LINE",
"77 438 LINE",
"427 0 LINE",
"438 0 LINE SMOOTH",
"453 0 OFFCURVE",
"452 2 OFFCURVE",
"452 31 CURVE SMOOTH",
"452 438 LINE SMOOTH",
"452 447 OFFCURVE",
"452 457 OFFCURVE",
"454 460 CURVE",
"435 460 LINE",
"435 34 LINE",
"435 22 LINE",
"84 460 LINE",
"74 460 LINE SMOOTH",
"59 460 OFFCURVE",
"60 458 OFFCURVE",
"60 429 CURVE SMOOTH",
"60 0 LINE"
);
}
);
width = 514;
}
);
leftKerningGroup = E;
note = N;
rightKerningGroup = H;
unicode = 004E;
},
{
glyphname = O;
lastChange = "2021-06-15 08:27:41 +0000";
layers = (
{
anchors = (
{
name = bottom;
position = "{349, 0}";
},
{
name = center;
position = "{349, 230}";
},
{
name = ogonek;
position = "{627, 10}";
},
{
name = top;
position = "{349, 460}";
},
{
name = topleft;
position = "{20, 460}";
},
{
name = topright;
position = "{481, 460}";
}
);
layerId = "C7668D88-AC50-4107-9C4B-DB5D26A8FA6C";
paths = (
{
closed = 1;
nodes = (
"20 15 OFFCURVE",
"160 -7 OFFCURVE",
"341 -7 CURVE SMOOTH",
"519 -7 OFFCURVE",
"677 9 OFFCURVE",
"677 230 CURVE SMOOTH",
"677 446 OFFCURVE",
"534 467 OFFCURVE",
"356 467 CURVE SMOOTH",
"179 467 OFFCURVE",
"20 451 OFFCURVE",
"20 230 CURVE SMOOTH"
);
},
{
closed = 1;
nodes = (
"452 120 OFFCURVE",
"412 105 OFFCURVE",
"349 105 CURVE SMOOTH",
"283 105 OFFCURVE",
"244 120 OFFCURVE",
"244 228 CURVE SMOOTH",
"244 336 OFFCURVE",
"283 351 OFFCURVE",
"349 351 CURVE SMOOTH",
"412 351 OFFCURVE",
"452 336 OFFCURVE",
"452 228 CURVE SMOOTH"
);
}
);
width = 697;
},
{
anchors = (
{
name = bottom;
position = "{267, 0}";
},
{
name = center;
position = "{267, 230}";
},
{
name = ogonek;
position = "{481, 10}";
},
{
name = top;
position = "{267, 460}";
},
{
name = topleft;
position = "{20, 460}";
},
{
name = topright;
position = "{367, 460}";
}
);
background = {
paths = (
{
closed = 1;
nodes = (
"41 15 OFFCURVE",
"138 -7 OFFCURVE",
"261 -7 CURVE SMOOTH",
"383 -7 OFFCURVE",
"493 9 OFFCURVE",
"493 231 CURVE SMOOTH",
"493 447 OFFCURVE",
"396 469 OFFCURVE",
"273 469 CURVE SMOOTH",
"151 469 OFFCURVE",
"41 453 OFFCURVE",
"41 231 CURVE SMOOTH"
);
},
{
closed = 1;
nodes = (
"472 35 OFFCURVE",
"395 9 OFFCURVE",
"266 9 CURVE SMOOTH",
"138 9 OFFCURVE",
"62 35 OFFCURVE",
"62 230 CURVE SMOOTH",
"62 426 OFFCURVE",
"138 453 OFFCURVE",
"266 453 CURVE SMOOTH",
"395 453 OFFCURVE",
"472 426 OFFCURVE",
"472 230 CURVE SMOOTH"
);
}
);
};
layerId = "B4E8C596-9C01-4F8A-BDA4-90320E25C0E6";
paths = (
{
closed = 1;
nodes = (
"41 15 OFFCURVE",
"138 -7 OFFCURVE",
"261 -7 CURVE SMOOTH",
"383 -7 OFFCURVE",
"493 9 OFFCURVE",
"493 231 CURVE SMOOTH",
"493 447 OFFCURVE",
"396 469 OFFCURVE",
"273 469 CURVE SMOOTH",
"151 469 OFFCURVE",
"41 453 OFFCURVE",
"41 231 CURVE SMOOTH"
);
},
{
closed = 1;
nodes = (
"472 35 OFFCURVE",
"395 9 OFFCURVE",
"266 9 CURVE SMOOTH",
"138 9 OFFCURVE",
"62 35 OFFCURVE",
"62 230 CURVE SMOOTH",
"62 426 OFFCURVE",
"138 453 OFFCURVE",
"266 453 CURVE SMOOTH",
"395 453 OFFCURVE",
"472 426 OFFCURVE",
"472 230 CURVE SMOOTH"
);
}
);
width = 534;
}
);
leftKerningGroup = C;
note = O;
rightKerningGroup = O;
unicode = 004F;
},
{
glyphname = P;
lastChange = "2021-06-15 08:27:41 +0000";
layers = (
{
anchors = (
{
name = bottom;
position = "{345, 0}";
},
{
name = top;
position = "{345, 460}";
}
);
layerId = "C7668D88-AC50-4107-9C4B-DB5D26A8FA6C";
paths = (
{
closed = 1;
nodes = (
"267 0 LINE",
"267 110 OFFCURVE",
"267 219 OFFCURVE",
"267 330 CURVE SMOOTH",
"267 334 OFFCURVE",
"273 344 OFFCURVE",
"283 344 CURVE",
"327 344 OFFCURVE",
"354 344 OFFCURVE",
"398 344 CURVE SMOOTH",
"423 344 OFFCURVE",
"433 331 OFFCURVE",
"433 296 CURVE SMOOTH",
"433 259 OFFCURVE",
"421 239 OFFCURVE",
"398 239 CURVE SMOOTH",
"348 239 OFFCURVE",
"299 239 OFFCURVE",
"249 239 CURVE",
"216 239 OFFCURVE",
"222 229 OFFCURVE",
"222 128 CURVE",
"309 127 OFFCURVE",
"410 127 OFFCURVE",
"497 126 CURVE SMOOTH",
"595 125 OFFCURVE",
"662 169 OFFCURVE",
"662 303 CURVE SMOOTH",
"662 428 OFFCURVE",
"577 460 OFFCURVE",
"480 460 CURVE SMOOTH",
"358 460 OFFCURVE",
"236 460 OFFCURVE",
"114 460 CURVE SMOOTH",
"48 460 OFFCURVE",
"39 432 OFFCURVE",
"39 376 CURVE SMOOTH",
"39 251 OFFCURVE",
"40 125 OFFCURVE",
"40 0 CURVE"
);
}
);
width = 689;
},
{
anchors = (
{
name = bottom;
position = "{248, 0}";
},
{
name = top;
position = "{248, 460}";
}
);
background = {
paths = (
{
closed = 1;
nodes = (
"72 0 LINE",
"72 139 OFFCURVE",
"72 277 OFFCURVE",
"72 416 CURVE SMOOTH",
"72 441 OFFCURVE",
"94 443 OFFCURVE",
"99 443 CURVE SMOOTH",
"144 445 OFFCURVE",
"256 449 OFFCURVE",
"328 441 CURVE SMOOTH",
"385 435 OFFCURVE",
"410 399 OFFCURVE",
"410 340 CURVE SMOOTH",
"410 242 OFFCURVE",
"356 219 OFFCURVE",
"298 219 CURVE SMOOTH",
"246 219 OFFCURVE",
"154 219 OFFCURVE",
"130 219 CURVE SMOOTH",
"117 219 OFFCURVE",
"117 209 OFFCURVE",
"117 202 CURVE",
"178 202 OFFCURVE",
"238 202 OFFCURVE",
"299 202 CURVE",
"382 202 OFFCURVE",
"431 247 OFFCURVE",
"431 337 CURVE SMOOTH",
"431 410 OFFCURVE",
"402 453 OFFCURVE",
"325 459 CURVE SMOOTH",
"271 463 OFFCURVE",
"159 462 OFFCURVE",
"99 460 CURVE SMOOTH",
"69 459 OFFCURVE",
"52 453 OFFCURVE",
"52 414 CURVE SMOOTH",
"52 276 OFFCURVE",
"52 138 OFFCURVE",
"52 0 CURVE"
);
}
);
};
layerId = "B4E8C596-9C01-4F8A-BDA4-90320E25C0E6";
paths = (
{
closed = 1;
nodes = (
"72 0 LINE",
"72 139 OFFCURVE",
"72 277 OFFCURVE",
"72 416 CURVE SMOOTH",
"72 441 OFFCURVE",
"94 443 OFFCURVE",
"99 443 CURVE SMOOTH",
"144 445 OFFCURVE",
"256 449 OFFCURVE",
"328 441 CURVE SMOOTH",
"385 435 OFFCURVE",
"410 399 OFFCURVE",
"410 340 CURVE SMOOTH",
"410 242 OFFCURVE",
"356 219 OFFCURVE",
"298 219 CURVE SMOOTH",
"246 219 OFFCURVE",
"154 219 OFFCURVE",
"130 219 CURVE SMOOTH",
"117 219 OFFCURVE",
"117 209 OFFCURVE",
"117 202 CURVE",
"178 202 OFFCURVE",
"238 202 OFFCURVE",
"299 202 CURVE",
"382 202 OFFCURVE",
"431 247 OFFCURVE",
"431 337 CURVE SMOOTH",
"431 410 OFFCURVE",
"402 453 OFFCURVE",
"325 459 CURVE SMOOTH",
"271 463 OFFCURVE",
"159 462 OFFCURVE",
"99 460 CURVE SMOOTH",
"69 459 OFFCURVE",
"52 453 OFFCURVE",
"52 414 CURVE SMOOTH",
"52 276 OFFCURVE",
"52 138 OFFCURVE",
"52 0 CURVE"
);
}
);
width = 495;
}
);
leftKerningGroup = B;
note = P;
rightKerningGroup = P;
unicode = 0050;
},
{
glyphname = Q;
lastChange = "2021-06-15 08:27:41 +0000";
layers = (
{
anchors = (
{
name = bottom;
position = "{403, 0}";
},
{
name = top;
position = "{403, 460}";
}
);
layerId = "C7668D88-AC50-4107-9C4B-DB5D26A8FA6C";
paths = (
{
closed = 1;
nodes = (
"20 16 OFFCURVE",
"171 -6 OFFCURVE",
"365 -6 CURVE SMOOTH",
"411 -6 OFFCURVE",
"456 -5 OFFCURVE",
"498 0 CURVE",
"591 -101 OFFCURVE",
"699 -107 OFFCURVE",
"785 -4 CURVE",
"742 -4 OFFCURVE",
"680 23 OFFCURVE",
"640 44 CURVE",
"691 78 OFFCURVE",
"723 135 OFFCURVE",
"723 230 CURVE SMOOTH",
"723 446 OFFCURVE",
"571 467 OFFCURVE",
"379 467 CURVE SMOOTH",
"190 467 OFFCURVE",
"20 451 OFFCURVE",
"20 230 CURVE SMOOTH"
);
},
{
closed = 1;
nodes = (
"486 196 OFFCURVE",
"481 171 OFFCURVE",
"473 154 CURVE",
"450 166 OFFCURVE",
"425 175 OFFCURVE",
"407 175 CURVE SMOOTH",
"374 175 OFFCURVE",
"344 159 OFFCURVE",
"333 136 CURVE",
"372 109 LINE",
"369 109 OFFCURVE",
"365 109 OFFCURVE",
"362 109 CURVE SMOOTH",
"335 109 OFFCURVE",
"322 111 OFFCURVE",
"304 119 CURVE SMOOTH",
"273 132 OFFCURVE",
"255 162 OFFCURVE",
"255 229 CURVE SMOOTH",
"255 337 OFFCURVE",
"299 351 OFFCURVE",
"371 351 CURVE SMOOTH",
"442 351 OFFCURVE",
"486 337 OFFCURVE",
"486 229 CURVE SMOOTH"
);
}
);
width = 805;
},
{
anchors = (
{
name = bottom;
position = "{267, 0}";
},
{
name = top;
position = "{267, 460}";
}
);
background = {
hints = (
{
horizontal = 1;
place = "{-1, 97}";
type = Stem;
},
{
horizontal = 1;
place = "{180, 97}";
type = Stem;
},
{
horizontal = 1;
place = "{357, 102}";
type = Stem;
},
{
place = "{41, 82}";
type = Stem;
},
{
place = "{152, 8}";
type = Stem;
},
{
place = "{350, 81}";
type = Stem;
},
{
place = "{40, 82}";
type = Stem;
},
{
place = "{351, 81}";
type = Stem;
}
);
paths = (
{
closed = 1;
nodes = (
"41 16 OFFCURVE",
"136 -8 OFFCURVE",
"256 -8 CURVE SMOOTH",
"286 -8 OFFCURVE",
"334 -7 OFFCURVE",
"363 2 CURVE",
"392 -31 OFFCURVE",
"433 -91 OFFCURVE",
"454 -71 CURVE",
"419 -41 OFFCURVE",
"395 -9 OFFCURVE",
"381 7 CURVE",
"479 37 OFFCURVE",
"491 136 OFFCURVE",
"491 232 CURVE SMOOTH",
"491 449 OFFCURVE",
"394 471 OFFCURVE",
"271 471 CURVE SMOOTH",
"150 471 OFFCURVE",
"41 454 OFFCURVE",
"41 232 CURVE SMOOTH"
);
},
{
closed = 1;
nodes = (
"471 165 OFFCURVE",
"471 50 OFFCURVE",
"370 20 CURVE",
"365 24 OFFCURVE",
"290 116 OFFCURVE",
"279 129 CURVE SMOOTH",
"267 143 OFFCURVE",
"261 150 OFFCURVE",
"248 138 CURVE",
"350 17 LINE",
"339 14 OFFCURVE",
"327 12 OFFCURVE",
"311 10 CURVE SMOOTH",
"294 8 OFFCURVE",
"261 8 OFFCURVE",
"248 9 CURVE SMOOTH",
"150 14 OFFCURVE",
"63 28 OFFCURVE",
"63 225 CURVE SMOOTH",
"63 426 OFFCURVE",
"141 453 OFFCURVE",
"267 453 CURVE SMOOTH",
"392 453 OFFCURVE",
"471 426 OFFCURVE",
"471 225 CURVE SMOOTH"
);
}
);
};
layerId = "B4E8C596-9C01-4F8A-BDA4-90320E25C0E6";
paths = (
{
closed = 1;
nodes = (
"41 16 OFFCURVE",
"136 -8 OFFCURVE",
"256 -8 CURVE SMOOTH",
"286 -8 OFFCURVE",
"334 -7 OFFCURVE",
"363 2 CURVE",
"392 -31 OFFCURVE",
"433 -91 OFFCURVE",
"454 -71 CURVE",
"419 -41 OFFCURVE",
"395 -9 OFFCURVE",
"381 7 CURVE",
"479 37 OFFCURVE",
"491 136 OFFCURVE",
"491 232 CURVE SMOOTH",
"491 449 OFFCURVE",
"394 471 OFFCURVE",
"271 471 CURVE SMOOTH",
"150 471 OFFCURVE",
"41 454 OFFCURVE",
"41 232 CURVE SMOOTH"
);
},
{
closed = 1;
nodes = (
"471 165 OFFCURVE",
"471 50 OFFCURVE",
"370 20 CURVE",
"365 24 OFFCURVE",
"290 116 OFFCURVE",
"279 129 CURVE SMOOTH",
"267 143 OFFCURVE",
"261 150 OFFCURVE",
"248 138 CURVE",
"350 17 LINE",
"339 14 OFFCURVE",
"327 12 OFFCURVE",
"311 10 CURVE SMOOTH",
"294 8 OFFCURVE",
"261 8 OFFCURVE",
"248 9 CURVE SMOOTH",
"150 14 OFFCURVE",
"63 28 OFFCURVE",
"63 225 CURVE SMOOTH",
"63 426 OFFCURVE",
"141 453 OFFCURVE",
"267 453 CURVE SMOOTH",
"392 453 OFFCURVE",
"471 426 OFFCURVE",
"471 225 CURVE SMOOTH"
);
}
);
width = 534;
}
);
leftKerningGroup = G;
note = Q;
rightKerningGroup = O;
unicode = 0051;
},
{
glyphname = R;
lastChange = "2021-04-18 10:29:33 +0000";
layers = (
{
anchors = (
{
name = bottom;
position = "{356, 0}";
},
{
name = top;
position = "{356, 460}";
}
);
background = {
hints = (
{
horizontal = 1;
place = "{0, 190}";
type = Stem;
},
{
horizontal = 1;
place = "{344, 116}";
type = Stem;
},
{
place = "{35, 228}";
type = Stem;
},
{
horizontal = 1;
place = "{130, 106}";
type = Stem;
},
{
place = "{432, 232}";
type = Stem;
}
);
paths = (
{
closed = 1;
nodes = (
"432 0 OFFCURVE",
"459 0 OFFCURVE",
"505 0 CURVE SMOOTH",
"671 0 LINE",
"666 4 OFFCURVE",
"664 51 OFFCURVE",
"664 67 CURVE SMOOTH",
"664 128 LINE SMOOTH",
"664 168 OFFCURVE",
"648 186 OFFCURVE",
"612 189 CURVE SMOOTH",
"601 190 OFFCURVE",
"577 190 OFFCURVE",
"573 190 CURVE",
"573 191 LINE",
"600 191 OFFCURVE",
"621 199 OFFCURVE",
"635 211 CURVE SMOOTH",
"655 228 OFFCURVE",
"664 264 OFFCURVE",
"664 304 CURVE SMOOTH",
"664 413 OFFCURVE",
"645 460 OFFCURVE",
"496 460 CURVE SMOOTH",
"110 460 LINE SMOOTH",
"44 460 OFFCURVE",
"35 432 OFFCURVE",
"35 376 CURVE SMOOTH",
"35 0 LINE",
"263 0 LINE",
"263 130 LINE",
"401 130 LINE SMOOTH",
"432 130 OFFCURVE",
"432 107 OFFCURVE",
"432 72 CURVE SMOOTH"
);
},
{
closed = 1;
nodes = (
"263 344 LINE",
"394 344 LINE SMOOTH",
"419 344 OFFCURVE",
"429 317 OFFCURVE",
"429 288 CURVE SMOOTH",
"429 258 OFFCURVE",
"417 236 OFFCURVE",
"394 236 CURVE SMOOTH",
"263 236 LINE"
);
}
);
};
layerId = "C7668D88-AC50-4107-9C4B-DB5D26A8FA6C";
paths = (
{
closed = 1;
nodes = (
"371 130 LINE SMOOTH",
"416 130 OFFCURVE",
"432 129 OFFCURVE",
"432 88 CURVE SMOOTH",
"432 51 LINE SMOOTH",
"432 10 OFFCURVE",
"459 0 OFFCURVE",
"504 0 CURVE SMOOTH",
"677 0 LINE",
"676 1 OFFCURVE",
"665 13 OFFCURVE",
"665 46 CURVE SMOOTH",
"665 116 LINE SMOOTH",
"665 148 OFFCURVE",
"662 179 OFFCURVE",
"612 189 CURVE",
"601 190 OFFCURVE",
"585 190 OFFCURVE",
"573 190 CURVE",
"573 195 LINE",
"600 195 OFFCURVE",
"623 202 OFFCURVE",
"635 211 CURVE SMOOTH",
"655 228 OFFCURVE",
"661 253 OFFCURVE",
"661 337 CURVE SMOOTH",
"661 423 OFFCURVE",
"621 452 OFFCURVE",
"548 459 CURVE SMOOTH",
"497 464 OFFCURVE",
"169 460 OFFCURVE",
"109 460 CURVE SMOOTH",
"45 460 OFFCURVE",
"35 431 OFFCURVE",
"35 392 CURVE SMOOTH",
"35 0 LINE",
"263 0 LINE",
"263 129 LINE",
"289 129 OFFCURVE",
"338 130 OFFCURVE",
"338 130 CURVE"
);
},
{
closed = 1;
nodes = (
"263 330 LINE SMOOTH",
"263 342 OFFCURVE",
"273 343 OFFCURVE",
"275 343 CURVE SMOOTH",
"294 343 OFFCURVE",
"371 346 OFFCURVE",
"399 342 CURVE SMOOTH",
"422 339 OFFCURVE",
"431 321 OFFCURVE",
"431 291 CURVE SMOOTH",
"431 247 OFFCURVE",
"410 234 OFFCURVE",
"388 234 CURVE SMOOTH",
"368 234 OFFCURVE",
"282 234 OFFCURVE",
"263 235 CURVE"
);
}
);
width = 711;
},
{
anchors = (
{
name = bottom;
position = "{247, 0}";
},
{
name = top;
position = "{247, 460}";
}
);
background = {
paths = (
{
closed = 1;
nodes = (
"363 212 LINE SMOOTH",
"408 212 OFFCURVE",
"424 193 OFFCURVE",
"424 152 CURVE SMOOTH",
"424 21 LINE SMOOTH",
"424 0 OFFCURVE",
"429 0 OFFCURVE",
"438 0 CURVE SMOOTH",
"446 0 LINE",
"445 1 OFFCURVE",
"444 11 OFFCURVE",
"444 15 CURVE SMOOTH",
"444 147 LINE SMOOTH",
"444 179 OFFCURVE",
"439 216 OFFCURVE",
"389 226 CURVE",
"387 226 OFFCURVE",
"383 226 OFFCURVE",
"381 226 CURVE",
"381 227 LINE",
"382 227 OFFCURVE",
"388 227 OFFCURVE",
"390 228 CURVE SMOOTH",
"427 246 OFFCURVE",
"448 284 OFFCURVE",
"448 337 CURVE SMOOTH",
"448 410 OFFCURVE",
"422 452 OFFCURVE",
"353 459 CURVE SMOOTH",
"302 464 OFFCURVE",
"159 462 OFFCURVE",
"99 460 CURVE SMOOTH",
"69 459 OFFCURVE",
"52 453 OFFCURVE",
"52 414 CURVE SMOOTH",
"52 0 LINE",
"72 0 LINE",
"72 211 LINE",
"219 213 OFFCURVE",
"330 212 OFFCURVE",
"330 212 CURVE"
);
},
{
closed = 1;
nodes = (
"72 416 LINE SMOOTH",
"72 441 OFFCURVE",
"94 443 OFFCURVE",
"99 443 CURVE SMOOTH",
"144 445 OFFCURVE",
"290 449 OFFCURVE",
"354 441 CURVE SMOOTH",
"405 435 OFFCURVE",
"427 399 OFFCURVE",
"427 340 CURVE SMOOTH",
"427 254 OFFCURVE",
"379 228 OFFCURVE",
"327 228 CURVE SMOOTH",
"283 228 OFFCURVE",
"116 229 OFFCURVE",
"72 230 CURVE"
);
}
);
};
layerId = "B4E8C596-9C01-4F8A-BDA4-90320E25C0E6";
paths = (
{
closed = 1;
nodes = (
"363 212 LINE SMOOTH",
"408 212 OFFCURVE",
"424 193 OFFCURVE",
"424 152 CURVE SMOOTH",
"424 21 LINE SMOOTH",
"424 0 OFFCURVE",
"429 0 OFFCURVE",
"438 0 CURVE SMOOTH",
"446 0 LINE",
"445 1 OFFCURVE",
"444 11 OFFCURVE",
"444 15 CURVE SMOOTH",
"444 147 LINE SMOOTH",
"444 179 OFFCURVE",
"439 216 OFFCURVE",
"389 226 CURVE",
"387 226 OFFCURVE",
"383 226 OFFCURVE",
"381 226 CURVE",
"381 227 LINE",
"382 227 OFFCURVE",
"388 227 OFFCURVE",
"390 228 CURVE SMOOTH",
"427 246 OFFCURVE",
"448 284 OFFCURVE",
"448 337 CURVE SMOOTH",
"448 410 OFFCURVE",
"422 452 OFFCURVE",
"353 459 CURVE SMOOTH",
"302 464 OFFCURVE",
"159 462 OFFCURVE",
"99 460 CURVE SMOOTH",
"69 459 OFFCURVE",
"52 453 OFFCURVE",
"52 414 CURVE SMOOTH",
"52 0 LINE",
"72 0 LINE",
"72 211 LINE",
"219 213 OFFCURVE",
"330 212 OFFCURVE",
"330 212 CURVE"
);
},
{
closed = 1;
nodes = (
"72 416 LINE SMOOTH",
"72 441 OFFCURVE",
"94 443 OFFCURVE",
"99 443 CURVE SMOOTH",
"144 445 OFFCURVE",
"290 449 OFFCURVE",
"354 441 CURVE SMOOTH",
"405 435 OFFCURVE",
"427 399 OFFCURVE",
"427 340 CURVE SMOOTH",
"427 254 OFFCURVE",
"379 228 OFFCURVE",
"327 228 CURVE SMOOTH",
"283 228 OFFCURVE",
"116 229 OFFCURVE",
"72 230 CURVE"
);
}
);
width = 493;
}
);
leftKerningGroup = B;
note = R;
rightKerningGroup = M;
unicode = 0052;
},
{
glyphname = S;
lastChange = "2021-04-18 10:49:29 +0000";
layers = (
{
anchors = (
{
name = bottom;
position = "{344, 0}";
},
{
name = top;
position = "{344, 460}";
}
);
background = {
hints = (
{
horizontal = 1;
place = "{-1, 150}";
type = Stem;
},
{
horizontal = 1;
place = "{150, 152}";
type = Stem;
},
{
horizontal = 1;
place = "{308, 152}";
type = Stem;
},
{
place = "{23, 226}";
type = Stem;
},
{
place = "{420, 229}";
type = Stem;
}
);
paths = (
{
closed = 1;
nodes = (
"42 105 LINE SMOOTH",
"42 21 OFFCURVE",
"61 5 OFFCURVE",
"150 0 CURVE SMOOTH",
"237 -5 OFFCURVE",
"383 -5 OFFCURVE",
"480 0 CURVE SMOOTH",
"580 5 OFFCURVE",
"646 46 OFFCURVE",
"646 159 CURVE SMOOTH",
"645 281 OFFCURVE",
"581 297 OFFCURVE",
"478 297 CURVE SMOOTH",
"423 297 OFFCURVE",
"368 297 OFFCURVE",
"313 297 CURVE SMOOTH",
"298 297 OFFCURVE",
"286 299 OFFCURVE",
"286 317 CURVE SMOOTH",
"286 340 OFFCURVE",
"303 343 OFFCURVE",
"338 343 CURVE SMOOTH",
"479 343 LINE SMOOTH",
"544 343 OFFCURVE",
"620 342 OFFCURVE",
"635 328 CURVE",
"635 337 OFFCURVE",
"635 346 OFFCURVE",
"635 355 CURVE SMOOTH",
"635 439 OFFCURVE",
"590 460 OFFCURVE",
"527 460 CURVE SMOOTH",
"476 460 OFFCURVE",
"416 463 OFFCURVE",
"358 463 CURVE SMOOTH",
"308 463 OFFCURVE",
"259 462 OFFCURVE",
"217 460 CURVE SMOOTH",
"113 454 OFFCURVE",
"51 414 OFFCURVE",
"51 301 CURVE SMOOTH",
"51 185 OFFCURVE",
"124 168 OFFCURVE",
"244 168 CURVE SMOOTH",
"291 168 OFFCURVE",
"338 168 OFFCURVE",
"385 168 CURVE SMOOTH",
"398 168 OFFCURVE",
"405 160 OFFCURVE",
"405 146 CURVE SMOOTH",
"405 123 OFFCURVE",
"386 120 OFFCURVE",
"352 119 CURVE SMOOTH",
"302 118 OFFCURVE",
"253 117 OFFCURVE",
"202 118 CURVE SMOOTH",
"138 119 OFFCURVE",
"63 124 OFFCURVE",
"42 134 CURVE"
);
}
);
};
layerId = "C7668D88-AC50-4107-9C4B-DB5D26A8FA6C";
paths = (
{
closed = 1;
nodes = (
"44 65 LINE SMOOTH",
"44 9 OFFCURVE",
"98 -1 OFFCURVE",
"235 -4 CURVE SMOOTH",
"322 -6 OFFCURVE",
"393 -5 OFFCURVE",
"480 0 CURVE SMOOTH",
"580 6 OFFCURVE",
"646 46 OFFCURVE",
"646 159 CURVE SMOOTH",
"646 281 OFFCURVE",
"581 297 OFFCURVE",
"478 297 CURVE SMOOTH",
"473 297 OFFCURVE",
"416 297 OFFCURVE",
"313 297 CURVE SMOOTH",
"286 297 OFFCURVE",
"286 309 OFFCURVE",
"286 319 CURVE SMOOTH",
"286 330 OFFCURVE",
"286 343 OFFCURVE",
"329 343 CURVE SMOOTH",
"442 343 LINE SMOOTH",
"502 343 OFFCURVE",
"620 342 OFFCURVE",
"635 328 CURVE",
"635 329 OFFCURVE",
"635 373 OFFCURVE",
"635 381 CURVE SMOOTH",
"635 425 OFFCURVE",
"600 457 OFFCURVE",
"537 460 CURVE SMOOTH",
"498 462 OFFCURVE",
"397 464 OFFCURVE",
"321 464 CURVE SMOOTH",
"153 464 OFFCURVE",
"51 452 OFFCURVE",
"51 301 CURVE SMOOTH",
"51 173 OFFCURVE",
"148 168 OFFCURVE",
"244 168 CURVE SMOOTH",
"327 168 OFFCURVE",
"349 168 OFFCURVE",
"368 168 CURVE SMOOTH",
"394 168 OFFCURVE",
"405 160 OFFCURVE",
"405 146 CURVE SMOOTH",
"405 128 OFFCURVE",
"392 118 OFFCURVE",
"357 118 CURVE SMOOTH",
"340 118 OFFCURVE",
"303 117 OFFCURVE",
"285 117 CURVE SMOOTH",
"213 117 OFFCURVE",
"99 118 OFFCURVE",
"44 138 CURVE"
);
}
);
width = 688;
},
{
anchors = (
{
name = bottom;
position = "{247, 0}";
},
{
name = top;
position = "{259, 460}";
}
);
background = {
paths = (
{
closed = 1;
nodes = (
"48 34 LINE SMOOTH",
"48 -2 OFFCURVE",
"179 -6 OFFCURVE",
"215 -6 CURVE SMOOTH",
"228 -6 OFFCURVE",
"241 -6 OFFCURVE",
"254 -5 CURVE SMOOTH",
"359 0 OFFCURVE",
"439 28 OFFCURVE",
"439 132 CURVE SMOOTH",
"439 236 OFFCURVE",
"378 246 OFFCURVE",
"297 246 CURVE SMOOTH",
"263 246 OFFCURVE",
"230 246 OFFCURVE",
"196 246 CURVE SMOOTH",
"119 246 OFFCURVE",
"64 253 OFFCURVE",
"64 334 CURVE SMOOTH",
"64 437 OFFCURVE",
"149 446 OFFCURVE",
"235 447 CURVE SMOOTH",
"273 447 LINE SMOOTH",
"311 447 OFFCURVE",
"407 442 OFFCURVE",
"434 409 CURVE",
"434 415 OFFCURVE",
"434 420 OFFCURVE",
"434 426 CURVE SMOOTH",
"434 431 OFFCURVE",
"431 435 OFFCURVE",
"425 439 CURVE SMOOTH",
"391 462 OFFCURVE",
"309 464 OFFCURVE",
"259 464 CURVE SMOOTH",
"149 464 OFFCURVE",
"45 455 OFFCURVE",
"45 334 CURVE SMOOTH",
"45 231 OFFCURVE",
"127 228 OFFCURVE",
"197 228 CURVE SMOOTH",
"232 228 OFFCURVE",
"268 228 OFFCURVE",
"303 228 CURVE SMOOTH",
"377 228 OFFCURVE",
"419 215 OFFCURVE",
"419 135 CURVE SMOOTH",
"419 37 OFFCURVE",
"349 15 OFFCURVE",
"252 12 CURVE SMOOTH",
"240 11 OFFCURVE",
"228 11 OFFCURVE",
"216 11 CURVE SMOOTH",
"169 11 OFFCURVE",
"84 14 OFFCURVE",
"48 44 CURVE"
);
}
);
};
layerId = "B4E8C596-9C01-4F8A-BDA4-90320E25C0E6";
paths = (
{
closed = 1;
nodes = (
"48 34 LINE SMOOTH",
"48 -2 OFFCURVE",
"179 -6 OFFCURVE",
"215 -6 CURVE SMOOTH",
"228 -6 OFFCURVE",
"241 -6 OFFCURVE",
"254 -5 CURVE SMOOTH",
"359 0 OFFCURVE",
"439 28 OFFCURVE",
"439 132 CURVE SMOOTH",
"439 236 OFFCURVE",
"378 246 OFFCURVE",
"297 246 CURVE SMOOTH",
"263 246 OFFCURVE",
"230 246 OFFCURVE",
"196 246 CURVE SMOOTH",
"119 246 OFFCURVE",
"64 253 OFFCURVE",
"64 334 CURVE SMOOTH",
"64 437 OFFCURVE",
"149 447 OFFCURVE",
"235 447 CURVE SMOOTH",
"273 447 LINE SMOOTH",
"311 447 OFFCURVE",
"407 442 OFFCURVE",
"434 409 CURVE",
"434 415 OFFCURVE",
"434 420 OFFCURVE",
"434 426 CURVE SMOOTH",
"434 431 OFFCURVE",
"431 435 OFFCURVE",
"425 439 CURVE SMOOTH",
"391 462 OFFCURVE",
"309 464 OFFCURVE",
"259 464 CURVE SMOOTH",
"149 464 OFFCURVE",
"45 455 OFFCURVE",
"45 334 CURVE SMOOTH",
"45 231 OFFCURVE",
"127 228 OFFCURVE",
"197 228 CURVE SMOOTH",
"232 228 OFFCURVE",
"268 228 OFFCURVE",
"303 228 CURVE SMOOTH",
"377 228 OFFCURVE",
"419 215 OFFCURVE",
"419 135 CURVE SMOOTH",
"419 37 OFFCURVE",
"349 15 OFFCURVE",
"252 12 CURVE SMOOTH",
"240 11 OFFCURVE",
"228 11 OFFCURVE",
"216 11 CURVE SMOOTH",
"169 11 OFFCURVE",
"84 14 OFFCURVE",
"48 44 CURVE"
);
}
);
width = 493;
}
);
leftKerningGroup = S;
note = S;
rightKerningGroup = S;
unicode = 0053;
},
{
glyphname = T;
lastChange = "2021-04-18 10:29:33 +0000";
layers = (
{
anchors = (
{
name = bottom;
position = "{326, 0}";
},
{
name = center;
position = "{326, 230}";
},
{
name = top;
position = "{326, 460}";
}
);
layerId = "C7668D88-AC50-4107-9C4B-DB5D26A8FA6C";
paths = (
{
closed = 1;
nodes = (
"15 342 LINE",
"213 342 LINE",
"213 0 LINE",
"367 0 LINE SMOOTH",
"430 0 OFFCURVE",
"441 13 OFFCURVE",
"441 70 CURVE SMOOTH",
"441 342 LINE",
"637 342 LINE",
"637 460 LINE",
"15 460 LINE"
);
}
);
width = 652;
},
{
anchors = (
{
name = bottom;
position = "{221, 0}";
},
{
name = center;
position = "{221, 230}";
},
{
name = top;
position = "{221, 460}";
}
);
background = {
paths = (
{
closed = 1;
nodes = (
"25 443 LINE",
"211 443 LINE",
"211 0 LINE",
"221 0 LINE SMOOTH",
"231 0 OFFCURVE",
"231 7 OFFCURVE",
"231 19 CURVE SMOOTH",
"231 443 LINE",
"417 443 LINE",
"417 460 LINE",
"25 460 LINE"
);
}
);
};
layerId = "B4E8C596-9C01-4F8A-BDA4-90320E25C0E6";
paths = (
{
closed = 1;
nodes = (
"25 443 LINE",
"211 443 LINE",
"211 0 LINE",
"221 0 LINE SMOOTH",
"231 0 OFFCURVE",
"231 7 OFFCURVE",
"231 19 CURVE SMOOTH",
"231 443 LINE",
"417 443 LINE",
"417 460 LINE",
"25 460 LINE"
);
}
);
width = 442;
}
);
leftKerningGroup = T;
note = T;
rightKerningGroup = T;
unicode = 0054;
},
{
glyphname = U;
lastChange = "2021-06-15 08:42:31 +0000";
layers = (
{
anchors = (
{
name = bottom;
position = "{347, 0}";
},
{
name = ogonek;
position = "{410, 10}";
},
{
name = top;
position = "{347, 460}";
},
{
name = topright;
position = "{551, 460}";
}
);
layerId = "C7668D88-AC50-4107-9C4B-DB5D26A8FA6C";
paths = (
{
closed = 1;
nodes = (
"659 362 LINE SMOOTH",
"659 443 OFFCURVE",
"661 460 OFFCURVE",
"574 460 CURVE SMOOTH",
"431 460 LINE",
"431 203 LINE SMOOTH",
"431 139 OFFCURVE",
"410 120 OFFCURVE",
"346 120 CURVE SMOOTH",
"287 120 OFFCURVE",
"263 125 OFFCURVE",
"263 205 CURVE SMOOTH",
"263 460 LINE",
"118 460 LINE SMOOTH",
"31 460 OFFCURVE",
"35 443 OFFCURVE",
"35 362 CURVE SMOOTH",
"35 236 LINE SMOOTH",
"35 66 OFFCURVE",
"37 -2 OFFCURVE",
"345 -2 CURVE SMOOTH",
"640 -2 OFFCURVE",
"659 63 OFFCURVE",
"659 250 CURVE SMOOTH"
);
}
);
width = 694;
},
{
anchors = (
{
name = bottom;
position = "{232, 0}";
},
{
name = ogonek;
position = "{251, 10}";
},
{
name = top;
position = "{232, 460}";
},
{
name = topright;
position = "{397, 460}";
}
);
background = {
paths = (
{
closed = 1;
nodes = (
"419 442 LINE SMOOTH",
"419 456 OFFCURVE",
"418 460 OFFCURVE",
"408 460 CURVE SMOOTH",
"399 460 LINE",
"399 140 LINE SMOOTH",
"399 51 OFFCURVE",
"349 14 OFFCURVE",
"230 14 CURVE SMOOTH",
"111 14 OFFCURVE",
"65 46 OFFCURVE",
"65 139 CURVE SMOOTH",
"65 460 LINE",
"56 460 LINE SMOOTH",
"46 460 OFFCURVE",
"45 456 OFFCURVE",
"45 442 CURVE SMOOTH",
"45 175 LINE SMOOTH",
"45 89 OFFCURVE",
"45 -3 OFFCURVE",
"230 -3 CURVE SMOOTH",
"421 -3 OFFCURVE",
"419 90 OFFCURVE",
"419 176 CURVE SMOOTH"
);
}
);
};
layerId = "B4E8C596-9C01-4F8A-BDA4-90320E25C0E6";
paths = (
{
closed = 1;
nodes = (
"419 442 LINE SMOOTH",
"419 456 OFFCURVE",
"418 460 OFFCURVE",
"408 460 CURVE SMOOTH",
"399 460 LINE",
"399 140 LINE SMOOTH",
"399 51 OFFCURVE",
"349 14 OFFCURVE",
"230 14 CURVE SMOOTH",
"111 14 OFFCURVE",
"65 46 OFFCURVE",
"65 139 CURVE SMOOTH",
"65 460 LINE",
"56 460 LINE SMOOTH",
"46 460 OFFCURVE",
"45 456 OFFCURVE",
"45 442 CURVE SMOOTH",
"45 175 LINE SMOOTH",
"45 89 OFFCURVE",
"45 -3 OFFCURVE",
"230 -3 CURVE SMOOTH",
"421 -3 OFFCURVE",
"419 90 OFFCURVE",
"419 176 CURVE SMOOTH"
);
}
);
width = 464;
}
);
leftKerningGroup = U;
note = U;
rightKerningGroup = U;
unicode = 0055;
},
{
glyphname = V;
lastChange = "2021-06-15 08:27:41 +0000";
layers = (
{
anchors = (
{
name = bottom;
position = "{336, 0}";
},
{
name = top;
position = "{336, 460}";
}
);
layerId = "C7668D88-AC50-4107-9C4B-DB5D26A8FA6C";
paths = (
{
closed = 1;
nodes = (
"521 153 OFFCURVE",
"593 307 OFFCURVE",
"666 460 CURVE",
"609 460 OFFCURVE",
"550 460 OFFCURVE",
"493 460 CURVE",
"455 381 OFFCURVE",
"417 302 OFFCURVE",
"379 223 CURVE",
"378 217 OFFCURVE",
"377 211 OFFCURVE",
"376 205 CURVE",
"375 205 OFFCURVE",
"376 205 OFFCURVE",
"375 205 CURVE",
"374 211 OFFCURVE",
"374 217 OFFCURVE",
"373 223 CURVE",
"336 302 OFFCURVE",
"299 381 OFFCURVE",
"262 460 CURVE",
"176 460 OFFCURVE",
"91 460 OFFCURVE",
"5 460 CURVE",
"66 331 OFFCURVE",
"128 203 OFFCURVE",
"189 74 CURVE",
"225 6 OFFCURVE",
"250 0 OFFCURVE",
"312 0 CURVE",
"357 0 OFFCURVE",
"403 0 OFFCURVE",
"448 0 CURVE"
);
}
);
width = 671;
},
{
anchors = (
{
name = bottom;
position = "{215, 0}";
},
{
name = top;
position = "{215, 460}";
}
);
background = {
hints = (
{
horizontal = 1;
place = "{0, 171}";
type = Stem;
},
{
horizontal = 1;
place = "{460, -20}";
target = down;
type = TopGhost;
},
{
place = "{39, 437}";
type = Stem;
},
{
horizontal = 1;
place = "{75, 96}";
type = Stem;
},
{
place = "{32, 438}";
type = Stem;
}
);
paths = (
{
closed = 1;
nodes = (
"289 153 OFFCURVE",
"333 307 OFFCURVE",
"380 460 CURVE",
"374 460 OFFCURVE",
"368 460 OFFCURVE",
"363 460 CURVE",
"319 312 OFFCURVE",
"275 158 OFFCURVE",
"233 24 CURVE",
"233 24 OFFCURVE",
"230 15 OFFCURVE",
"230 15 CURVE",
"221 15 OFFCURVE",
"213 15 OFFCURVE",
"205 16 CURVE SMOOTH",
"190 18 OFFCURVE",
"164 19 OFFCURVE",
"150 64 CURVE SMOOTH",
"109 196 OFFCURVE",
"71 328 OFFCURVE",
"32 460 CURVE",
"25 460 OFFCURVE",
"17 460 OFFCURVE",
"10 460 CURVE",
"48 335 OFFCURVE",
"88 204 OFFCURVE",
"126 75 CURVE SMOOTH",
"132 55 OFFCURVE",
"147 1 OFFCURVE",
"207 0 CURVE SMOOTH",
"224 0 OFFCURVE",
"236 0 OFFCURVE",
"243 0 CURVE"
);
}
);
};
layerId = "B4E8C596-9C01-4F8A-BDA4-90320E25C0E6";
paths = (
{
closed = 1;
nodes = (
"289 153 OFFCURVE",
"333 307 OFFCURVE",
"380 460 CURVE",
"374 460 OFFCURVE",
"368 460 OFFCURVE",
"363 460 CURVE",
"319 312 OFFCURVE",
"275 158 OFFCURVE",
"233 24 CURVE",
"233 24 OFFCURVE",
"230 15 OFFCURVE",
"230 15 CURVE",
"221 15 OFFCURVE",
"213 15 OFFCURVE",
"205 16 CURVE SMOOTH",
"190 18 OFFCURVE",
"164 19 OFFCURVE",
"150 64 CURVE SMOOTH",
"109 196 OFFCURVE",
"71 328 OFFCURVE",
"32 460 CURVE",
"25 460 OFFCURVE",
"17 460 OFFCURVE",
"10 460 CURVE",
"48 335 OFFCURVE",
"88 204 OFFCURVE",
"126 75 CURVE SMOOTH",
"132 55 OFFCURVE",
"147 1 OFFCURVE",
"207 0 CURVE SMOOTH",
"224 0 OFFCURVE",
"236 0 OFFCURVE",
"243 0 CURVE"
);
}
);
width = 429;
}
);
leftKerningGroup = V;
note = V;
rightKerningGroup = V;
unicode = 0056;
},
{
glyphname = W;
lastChange = "2021-06-15 08:42:52 +0000";
layers = (
{
anchors = (
{
name = bottom;
position = "{455, 0}";
},
{
name = top;
position = "{468, 460}";
}
);
layerId = "C7668D88-AC50-4107-9C4B-DB5D26A8FA6C";
paths = (
{
closed = 1;
nodes = (
"86 82 LINE SMOOTH",
"103 4 OFFCURVE",
"144 0 OFFCURVE",
"201 0 CURVE SMOOTH",
"385 0 LINE",
"446 179 LINE",
"448 197 LINE",
"451 197 LINE",
"454 179 LINE",
"514 0 LINE",
"654 0 LINE SMOOTH",
"710 0 OFFCURVE",
"755 10 OFFCURVE",
"771 82 CURVE SMOOTH",
"857 460 LINE",
"802 460 OFFCURVE",
"747 460 OFFCURVE",
"692 460 CURVE",
"649 259 LINE",
"648 249 OFFCURVE",
"647 240 OFFCURVE",
"646 230 CURVE",
"642 269 LINE",
"578 460 LINE",
"353 460 LINE",
"290 269 LINE",
"286 230 LINE",
"285 240 OFFCURVE",
"284 249 OFFCURVE",
"283 259 CURVE",
"244 460 LINE",
"5 460 LINE"
);
}
);
width = 862;
},
{
anchors = (
{
name = bottom;
position = "{289, 0}";
},
{
name = top;
position = "{289, 460}";
}
);
background = {
hints = (
{
horizontal = 1;
place = "{0, 16}";
type = Stem;
},
{
horizontal = 1;
place = "{425, 35}";
type = Stem;
},
{
place = "{70, 22}";
type = Stem;
},
{
place = "{483, 24}";
type = Stem;
}
);
paths = (
{
closed = 1;
nodes = (
"69 81 LINE SMOOTH",
"80 -2 OFFCURVE",
"100 0 OFFCURVE",
"157 0 CURVE SMOOTH",
"198 0 LINE",
"282 404 LINE",
"287 425 LINE",
"287 425 LINE",
"293 398 LINE",
"379 0 LINE",
"413 0 LINE SMOOTH",
"469 0 OFFCURVE",
"497 -3 OFFCURVE",
"507 75 CURVE SMOOTH",
"557 460 LINE",
"543 460 OFFCURVE",
"542 460 OFFCURVE",
"533 460 CURVE",
"483 55 LINE",
"479 25 OFFCURVE",
"447 16 OFFCURVE",
"434 16 CURVE",
"394 16 LINE",
"299 460 LINE",
"275 460 LINE",
"182 16 LINE",
"145 16 LINE",
"116 16 OFFCURVE",
"97 21 OFFCURVE",
"90 72 CURVE",
"41 460 LINE",
"20 460 LINE"
);
}
);
};
layerId = "B4E8C596-9C01-4F8A-BDA4-90320E25C0E6";
paths = (
{
closed = 1;
nodes = (
"69 81 LINE SMOOTH",
"80 -2 OFFCURVE",
"100 0 OFFCURVE",
"157 0 CURVE SMOOTH",
"198 0 LINE",
"282 404 LINE",
"287 425 LINE",
"287 425 LINE",
"293 398 LINE",
"379 0 LINE",
"413 0 LINE SMOOTH",
"469 0 OFFCURVE",
"497 -3 OFFCURVE",
"507 75 CURVE SMOOTH",
"557 460 LINE",
"543 460 OFFCURVE",
"542 460 OFFCURVE",
"533 460 CURVE",
"483 55 LINE",
"479 25 OFFCURVE",
"447 16 OFFCURVE",
"434 16 CURVE",
"394 16 LINE",
"299 460 LINE",
"275 460 LINE",
"182 16 LINE",
"145 16 LINE",
"116 16 OFFCURVE",
"97 21 OFFCURVE",
"90 72 CURVE",
"41 460 LINE",
"20 460 LINE"
);
}
);
width = 577;
}
);
leftKerningGroup = W;
note = W;
rightKerningGroup = W;
unicode = 0057;
},
{
glyphname = X;
lastChange = "2021-06-15 08:27:41 +0000";
layers = (
{
anchors = (
{
name = bottom;
position = "{364, 0}";
},
{
name = top;
position = "{364, 460}";
}
);
layerId = "C7668D88-AC50-4107-9C4B-DB5D26A8FA6C";
paths = (
{
closed = 1;
nodes = (
"19 460 LINE",
"24 458 OFFCURVE",
"33 448 OFFCURVE",
"37 443 CURVE SMOOTH",
"228 218 LINE",
"92 81 LINE",
"79 65 OFFCURVE",
"34 21 OFFCURVE",
"5 1 CURVE",
"137 0 LINE SMOOTH",
"197 0 OFFCURVE",
"228 6 OFFCURVE",
"269 48 CURVE SMOOTH",
"324 104 LINE",
"362 60 LINE SMOOTH",
"409 3 OFFCURVE",
"445 0 OFFCURVE",
"505 0 CURVE SMOOTH",
"722 0 LINE",
"702 5 OFFCURVE",
"658 65 OFFCURVE",
"658 65 CURVE",
"590 143 OFFCURVE",
"532 211 OFFCURVE",
"484 267 CURVE",
"591 377 OFFCURVE",
"633 418 OFFCURVE",
"673 460 CURVE",
"469 460 LINE",
"389 379 LINE",
"352 422 OFFCURVE",
"329 450 OFFCURVE",
"321 460 CURVE"
);
}
);
width = 727;
},
{
anchors = (
{
name = bottom;
position = "{199, 0}";
},
{
name = top;
position = "{199, 460}";
}
);
background = {
hints = (
{
horizontal = 1;
place = "{-1, 21}";
target = up;
type = BottomGhost;
},
{
place = "{5, 381}";
type = Stem;
}
);
paths = (
{
closed = 1;
nodes = (
"9 460 LINE",
"55 400 OFFCURVE",
"183 227 OFFCURVE",
"183 227 CURVE SMOOTH",
"183 227 LINE",
"65 74 LINE",
"65 74 OFFCURVE",
"27 19 OFFCURVE",
"5 0 CURVE",
"23 0 LINE SMOOTH",
"29 0 OFFCURVE",
"36 9 OFFCURVE",
"40 14 CURVE SMOOTH",
"193 214 LINE",
"193 214 LINE SMOOTH",
"244 151 OFFCURVE",
"344 -2 OFFCURVE",
"366 -1 CURVE SMOOTH",
"388 0 LINE",
"365 13 OFFCURVE",
"207 232 OFFCURVE",
"207 232 CURVE",
"207 232 OFFCURVE",
"207 232 OFFCURVE",
"207 232 CURVE",
"207 232 OFFCURVE",
"384 460 OFFCURVE",
"384 460 CURVE",
"362 460 LINE",
"197 246 LINE",
"171 278 OFFCURVE",
"36 460 OFFCURVE",
"36 460 CURVE"
);
}
);
};
layerId = "B4E8C596-9C01-4F8A-BDA4-90320E25C0E6";
paths = (
{
closed = 1;
nodes = (
"9 460 LINE",
"55 400 OFFCURVE",
"183 227 OFFCURVE",
"183 227 CURVE SMOOTH",
"183 227 LINE",
"65 74 LINE",
"65 74 OFFCURVE",
"27 19 OFFCURVE",
"5 0 CURVE",
"23 0 LINE SMOOTH",
"29 0 OFFCURVE",
"36 9 OFFCURVE",
"40 14 CURVE SMOOTH",
"193 214 LINE",
"193 214 LINE SMOOTH",
"244 151 OFFCURVE",
"344 -2 OFFCURVE",
"366 -1 CURVE SMOOTH",
"388 0 LINE",
"365 13 OFFCURVE",
"207 232 OFFCURVE",
"207 232 CURVE",
"207 232 OFFCURVE",
"207 232 OFFCURVE",
"207 232 CURVE",
"207 232 OFFCURVE",
"384 460 OFFCURVE",
"384 460 CURVE",
"362 460 LINE",
"197 246 LINE",
"171 278 OFFCURVE",
"36 460 OFFCURVE",
"36 460 CURVE"
);
}
);
width = 398;
}
);
leftKerningGroup = X;
note = X;
rightKerningGroup = X;
unicode = 0058;
},
{
glyphname = Y;
lastChange = "2021-06-15 08:40:12 +0000";
layers = (
{
anchors = (
{
name = bottom;
position = "{358, 0}";
},
{
name = top;
position = "{420, 460}";
},
{
name = topleft;
position = "{20, 460}";
}
);
background = {
hints = (
{
horizontal = 1;
place = "{0, 21}";
target = up;
type = BottomGhost;
},
{
place = "{245, 228}";
type = Stem;
}
);
paths = (
{
closed = 1;
nodes = (
"245 0 LINE",
"373 0 LINE SMOOTH",
"446 0 OFFCURVE",
"473 3 OFFCURVE",
"473 78 CURVE SMOOTH",
"473 181 LINE",
"677 431 LINE SMOOTH",
"687 442 OFFCURVE",
"698 455 OFFCURVE",
"710 460 CURVE",
"502 460 LINE",
"420 330 LINE",
"325 460 LINE",
"5 460 LINE",
"12 456 OFFCURVE",
"24 443 OFFCURVE",
"28 440 CURVE",
"245 180 LINE"
);
}
);
};
layerId = "C7668D88-AC50-4107-9C4B-DB5D26A8FA6C";
paths = (
{
closed = 1;
nodes = (
"374 0 LINE SMOOTH",
"452 0 OFFCURVE",
"474 10 OFFCURVE",
"473 78 CURVE SMOOTH",
"472 180 LINE",
"677 431 LINE",
"707 460 LINE",
"502 460 LINE",
"420 330 LINE",
"325 460 LINE",
"7 460 LINE",
"29 435 LINE",
"245 180 LINE",
"245 0 LINE"
);
}
);
width = 715;
},
{
anchors = (
{
name = bottom;
position = "{211, 0}";
},
{
name = top;
position = "{211, 460}";
},
{
name = topleft;
position = "{20, 460}";
}
);
background = {
paths = (
{
closed = 1;
nodes = (
"201 0 LINE SMOOTH",
"211 0 OFFCURVE",
"211 7 OFFCURVE",
"211 19 CURVE SMOOTH",
"211 190 LINE",
"366 433 LINE",
"384 460 LINE",
"365 460 LINE",
"203 209 LINE",
"46 460 LINE",
"24 460 LINE",
"40 435 LINE",
"191 190 LINE",
"191 0 LINE"
);
}
);
};
layerId = "B4E8C596-9C01-4F8A-BDA4-90320E25C0E6";
paths = (
{
closed = 1;
nodes = (
"201 0 LINE SMOOTH",
"211 0 OFFCURVE",
"211 7 OFFCURVE",
"211 19 CURVE SMOOTH",
"211 190 LINE",
"366 433 LINE",
"384 460 LINE",
"365 460 LINE",
"203 209 LINE",
"46 460 LINE",
"24 460 LINE",
"40 435 LINE",
"191 190 LINE",
"191 0 LINE"
);
}
);
width = 422;
}
);
leftKerningGroup = Y;
note = Y;
rightKerningGroup = Y;
unicode = 0059;
},
{
glyphname = Z;
lastChange = "2021-06-15 08:27:41 +0000";
layers = (
{
anchors = (
{
name = bottom;
position = "{315, 0}";
},
{
name = center;
position = "{315, 230}";
},
{
name = top;
position = "{315, 460}";
}
);
background = {
hints = (
{
horizontal = 1;
place = "{0, 118}";
type = Stem;
},
{
horizontal = 1;
place = "{342, 118}";
type = Stem;
},
{
place = "{10, 610}";
type = Stem;
}
);
paths = (
{
closed = 1;
nodes = (
"527 274 LINE SMOOTH",
"588 327 OFFCURVE",
"603 376 OFFCURVE",
"609 460 CURVE",
"95 460 LINE SMOOTH",
"22 460 OFFCURVE",
"23 434 OFFCURVE",
"23 398 CURVE SMOOTH",
"23 342 LINE",
"289 342 LINE",
"270 338 LINE",
"10 119 LINE",
"10 0 LINE",
"555 0 LINE SMOOTH",
"622 0 OFFCURVE",
"620 34 OFFCURVE",
"620 62 CURVE SMOOTH",
"620 118 LINE",
"326 118 LINE",
"345 122 LINE"
);
}
);
};
layerId = "C7668D88-AC50-4107-9C4B-DB5D26A8FA6C";
paths = (
{
closed = 1;
nodes = (
"345 122 LINE",
"528 274 LINE SMOOTH",
"615 346 OFFCURVE",
"609 456 OFFCURVE",
"609 460 CURVE",
"93 460 LINE SMOOTH",
"20 460 OFFCURVE",
"23 433 OFFCURVE",
"23 342 CURVE",
"289 342 LINE",
"285 341 OFFCURVE",
"273 339 OFFCURVE",
"270 338 CURVE",
"200 286 OFFCURVE",
"16 125 OFFCURVE",
"10 118 CURVE",
"10 0 LINE",
"528 0 LINE SMOOTH",
"620 0 OFFCURVE",
"620 5 OFFCURVE",
"620 118 CURVE",
"326 118 LINE"
);
}
);
width = 630;
},
{
anchors = (
{
name = bottom;
position = "{212, 0}";
},
{
name = center;
position = "{212, 230}";
},
{
name = top;
position = "{212, 460}";
}
);
background = {
paths = (
{
closed = 1;
nodes = (
"55 25 LINE",
"380 418 LINE SMOOTH",
"395 436 OFFCURVE",
"395 456 OFFCURVE",
"395 460 CURVE",
"60 460 LINE SMOOTH",
"45 460 OFFCURVE",
"45 452 OFFCURVE",
"45 443 CURVE",
"375 443 LINE",
"371 438 OFFCURVE",
"359 422 OFFCURVE",
"341 401 CURVE SMOOTH",
"252 292 OFFCURVE",
"26 21 OFFCURVE",
"26 21 CURVE",
"26 0 LINE",
"375 0 LINE SMOOTH",
"396 0 OFFCURVE",
"399 2 OFFCURVE",
"399 17 CURVE",
"48 17 LINE"
);
}
);
};
layerId = "B4E8C596-9C01-4F8A-BDA4-90320E25C0E6";
paths = (
{
closed = 1;
nodes = (
"55 25 LINE",
"380 418 LINE SMOOTH",
"395 436 OFFCURVE",
"395 456 OFFCURVE",
"395 460 CURVE",
"60 460 LINE SMOOTH",
"45 460 OFFCURVE",
"45 452 OFFCURVE",
"45 443 CURVE",
"375 443 LINE",
"371 438 OFFCURVE",
"359 422 OFFCURVE",
"341 401 CURVE SMOOTH",
"252 292 OFFCURVE",
"26 21 OFFCURVE",
"26 21 CURVE",
"26 0 LINE",
"375 0 LINE SMOOTH",
"396 0 OFFCURVE",
"399 2 OFFCURVE",
"399 17 CURVE",
"48 17 LINE"
);
}
);
width = 424;
}
);
leftKerningGroup = Z;
note = Z;
rightKerningGroup = Z;
unicode = 005A;
},
{
glyphname = bracketleft;
lastChange = "2021-04-18 10:29:33 +0000";
layers = (
{
layerId = "C7668D88-AC50-4107-9C4B-DB5D26A8FA6C";
paths = (
{
closed = 1;
nodes = (
"272 420 LINE SMOOTH",
"272 448 OFFCURVE",
"293 460 OFFCURVE",
"337 460 CURVE SMOOTH",
"375 460 LINE",
"375 534 LINE",
"35 534 LINE",
"35 -98 LINE",
"35 -98 OFFCURVE",
"374 -98 OFFCURVE",
"375 -97 CURVE",
"375 -22 LINE",
"337 -22 LINE SMOOTH",
"293 -22 OFFCURVE",
"272 -11 OFFCURVE",
"272 17 CURVE SMOOTH"
);
}
);
width = 410;
},
{
background = {
paths = (
{
closed = 1;
nodes = (
"61 473 LINE SMOOTH",
"61 506 OFFCURVE",
"69 520 OFFCURVE",
"105 520 CURVE SMOOTH",
"143 520 LINE",
"143 534 LINE",
"41 534 LINE",
"41 -98 LINE",
"75 -98 OFFCURVE",
"109 -97 OFFCURVE",
"143 -97 CURVE",
"143 -83 LINE",
"105 -83 LINE SMOOTH",
"69 -83 OFFCURVE",
"61 -71 OFFCURVE",
"61 -38 CURVE SMOOTH"
);
}
);
};
layerId = "B4E8C596-9C01-4F8A-BDA4-90320E25C0E6";
paths = (
{
closed = 1;
nodes = (
"61 473 LINE SMOOTH",
"61 506 OFFCURVE",
"69 520 OFFCURVE",
"105 520 CURVE SMOOTH",
"143 520 LINE",
"143 534 LINE",
"41 534 LINE",
"41 -98 LINE",
"75 -98 OFFCURVE",
"109 -97 OFFCURVE",
"143 -97 CURVE",
"143 -83 LINE",
"105 -83 LINE SMOOTH",
"69 -83 OFFCURVE",
"61 -71 OFFCURVE",
"61 -38 CURVE SMOOTH"
);
}
);
width = 235;
}
);
leftKerningGroup = bracketleft;
note = bracketleft;
rightKerningGroup = one;
unicode = 005B;
},
{
glyphname = backslash;
lastChange = "2021-04-18 10:29:33 +0000";
layers = (
{
layerId = "C7668D88-AC50-4107-9C4B-DB5D26A8FA6C";
paths = (
{
closed = 1;
nodes = (
"445 -38 LINE",
"178 559 LINE",
"35 559 LINE",
"303 -38 LINE"
);
}
);
width = 525;
},
{
background = {
paths = (
{
closed = 1;
nodes = (
"47 581 LINE",
"278 -38 LINE",
"297 -38 LINE",
"66 581 LINE"
);
}
);
};
layerId = "B4E8C596-9C01-4F8A-BDA4-90320E25C0E6";
paths = (
{
closed = 1;
nodes = (
"47 581 LINE",
"278 -38 LINE",
"297 -38 LINE",
"66 581 LINE"
);
}
);
width = 344;
}
);
note = backslash;
unicode = 005C;
},
{
glyphname = bracketright;
lastChange = "2021-04-18 10:29:33 +0000";
layers = (
{
layerId = "C7668D88-AC50-4107-9C4B-DB5D26A8FA6C";
paths = (
{
closed = 1;
nodes = (
"138 17 LINE SMOOTH",
"138 -11 OFFCURVE",
"117 -23 OFFCURVE",
"73 -23 CURVE SMOOTH",
"35 -23 LINE",
"35 -98 LINE",
"375 -98 LINE",
"375 534 LINE",
"35 534 LINE",
"35 459 LINE",
"73 459 LINE SMOOTH",
"117 459 OFFCURVE",
"138 448 OFFCURVE",
"138 420 CURVE SMOOTH"
);
}
);
width = 410;
},
{
background = {
paths = (
{
closed = 1;
nodes = (
"123 -38 LINE SMOOTH",
"123 -71 OFFCURVE",
"115 -83 OFFCURVE",
"79 -83 CURVE SMOOTH",
"41 -83 LINE",
"41 -97 LINE",
"143 -98 LINE",
"143 534 LINE",
"41 534 LINE",
"41 520 LINE",
"79 520 LINE SMOOTH",
"115 520 OFFCURVE",
"123 506 OFFCURVE",
"123 473 CURVE SMOOTH"
);
}
);
};
layerId = "B4E8C596-9C01-4F8A-BDA4-90320E25C0E6";
paths = (
{
closed = 1;
nodes = (
"123 -38 LINE SMOOTH",
"123 -71 OFFCURVE",
"115 -83 OFFCURVE",
"79 -83 CURVE SMOOTH",
"41 -83 LINE",
"41 -97 LINE",
"143 -98 LINE",
"143 534 LINE",
"41 534 LINE",
"41 520 LINE",
"79 520 LINE SMOOTH",
"115 520 OFFCURVE",
"123 506 OFFCURVE",
"123 473 CURVE SMOOTH"
);
}
);
width = 235;
}
);
leftKerningGroup = bracketleft;
note = bracketright;
rightKerningGroup = one;
unicode = 005D;
},
{
glyphname = asciicircum;
lastChange = "2021-04-18 10:29:33 +0000";
layers = (
{
layerId = "C7668D88-AC50-4107-9C4B-DB5D26A8FA6C";
paths = (
{
closed = 1;
nodes = (
"219 360 LINE",
"312 229 LINE",
"401 229 LINE",
"265 460 LINE",
"170 460 LINE",
"35 229 LINE",
"119 229 LINE"
);
}
);
width = 436;
},
{
background = {
paths = (
{
closed = 1;
nodes = (
"156 443 LINE",
"252 229 LINE",
"270 229 LINE",
"164 460 LINE",
"147 460 LINE",
"42 229 LINE",
"57 229 LINE"
);
}
);
};
layerId = "B4E8C596-9C01-4F8A-BDA4-90320E25C0E6";
paths = (
{
closed = 1;
nodes = (
"156 443 LINE",
"252 229 LINE",
"270 229 LINE",
"164 460 LINE",
"147 460 LINE",
"42 229 LINE",
"57 229 LINE"
);
}
);
width = 312;
}
);
note = asciicircum;
unicode = 005E;
},
{
glyphname = underscore;
lastChange = "2021-04-18 10:29:33 +0000";
layers = (
{
layerId = "C7668D88-AC50-4107-9C4B-DB5D26A8FA6C";
paths = (
{
closed = 1;
nodes = (
"35 -200 LINE",
"845 -200 LINE",
"845 -119 LINE",
"35 -119 LINE"
);
}
);
width = 880;
},
{
background = {
paths = (
{
closed = 1;
nodes = (
"42 -173 LINE",
"690 -173 LINE",
"690 -150 LINE",
"42 -150 LINE"
);
}
);
};
layerId = "B4E8C596-9C01-4F8A-BDA4-90320E25C0E6";
paths = (
{
closed = 1;
nodes = (
"42 -173 LINE",
"690 -173 LINE",
"690 -150 LINE",
"42 -150 LINE"
);
}
);
width = 732;
}
);
note = underscore;
unicode = 005F;
},
{
glyphname = a;
lastChange = "2021-06-15 08:27:41 +0000";
layers = (
{
anchors = (
{
name = bottom;
position = "{291, 0}";
},
{
name = ogonek;
position = "{524, 10}";
},
{
name = top;
position = "{291, 399}";
}
);
layerId = "C7668D88-AC50-4107-9C4B-DB5D26A8FA6C";
paths = (
{
closed = 1;
nodes = (
"550 20 OFFCURVE",
"551 57 OFFCURVE",
"551 214 CURVE SMOOTH",
"551 348 OFFCURVE",
"509 388 OFFCURVE",
"409 398 CURVE SMOOTH",
"339 405 OFFCURVE",
"159 406 OFFCURVE",
"100 395 CURVE SMOOTH",
"66 389 OFFCURVE",
"53 368 OFFCURVE",
"53 327 CURVE SMOOTH",
"53 289 LINE",
"124 289 OFFCURVE",
"195 289 OFFCURVE",
"266 289 CURVE SMOOTH",
"337 289 OFFCURVE",
"356 279 OFFCURVE",
"351 230 CURVE",
"326 239 OFFCURVE",
"195 238 OFFCURVE",
"126 238 CURVE SMOOTH",
"44 238 OFFCURVE",
"29 204 OFFCURVE",
"29 111 CURVE SMOOTH",
"30 28 OFFCURVE",
"66 5 OFFCURVE",
"125 1 CURVE SMOOTH",
"244 -8 OFFCURVE",
"527 -4 OFFCURVE",
"550 20 CURVE"
);
},
{
closed = 1;
nodes = (
"243 79 OFFCURVE",
"235 84 OFFCURVE",
"235 129 CURVE SMOOTH",
"235 174 OFFCURVE",
"243 175 OFFCURVE",
"258 175 CURVE SMOOTH",
"269 175 OFFCURVE",
"339 174 OFFCURVE",
"345 170 CURVE",
"345 166 OFFCURVE",
"345 106 OFFCURVE",
"344 84 CURVE",
"338 80 OFFCURVE",
"267 79 OFFCURVE",
"258 79 CURVE SMOOTH"
);
}
);
width = 582;
},
{
anchors = (
{
name = bottom;
position = "{212, 0}";
},
{
name = ogonek;
position = "{382, 10}";
},
{
name = top;
position = "{212, 399}";
}
);
background = {
hints = (
{
horizontal = 1;
place = "{-4, 21}";
target = up;
type = BottomGhost;
},
{
horizontal = 1;
place = "{75, 96}";
type = Stem;
},
{
horizontal = 1;
place = "{460, -20}";
target = down;
type = TopGhost;
},
{
place = "{48, 383}";
type = Stem;
},
{
place = "{55, 98}";
type = Stem;
},
{
place = "{372, 98}";
type = Stem;
},
{
horizontal = 1;
place = "{0, 171}";
type = Stem;
},
{
horizontal = 1;
place = "{368, 97}";
type = Stem;
}
);
paths = (
{
closed = 1;
nodes = (
"383 69 OFFCURVE",
"382 115 OFFCURVE",
"382 248 CURVE SMOOTH",
"382 393 OFFCURVE",
"315 405 OFFCURVE",
"209 405 CURVE SMOOTH",
"169 405 OFFCURVE",
"123 400 OFFCURVE",
"100 394 CURVE SMOOTH",
"85 390 OFFCURVE",
"61 385 OFFCURVE",
"61 363 CURVE SMOOTH",
"61 356 LINE",
"78 381 OFFCURVE",
"168 390 OFFCURVE",
"213 390 CURVE SMOOTH",
"307 390 OFFCURVE",
"366 379 OFFCURVE",
"363 229 CURVE",
"348 235 OFFCURVE",
"259 243 OFFCURVE",
"192 243 CURVE SMOOTH",
"78 243 OFFCURVE",
"42 219 OFFCURVE",
"42 118 CURVE SMOOTH",
"42 28 OFFCURVE",
"71 -8 OFFCURVE",
"209 -8 CURVE SMOOTH",
"305 -8 OFFCURVE",
"383 -5 OFFCURVE",
"383 36 CURVE"
);
},
{
closed = 1;
nodes = (
"78 6 OFFCURVE",
"61 43 OFFCURVE",
"61 119 CURVE SMOOTH",
"61 222 OFFCURVE",
"103 228 OFFCURVE",
"213 228 CURVE SMOOTH",
"261 228 OFFCURVE",
"348 218 OFFCURVE",
"363 211 CURVE",
"363 203 OFFCURVE",
"364 69 OFFCURVE",
"364 39 CURVE",
"364 21 OFFCURVE",
"326 6 OFFCURVE",
"208 6 CURVE SMOOTH"
);
}
);
};
layerId = "B4E8C596-9C01-4F8A-BDA4-90320E25C0E6";
paths = (
{
closed = 1;
nodes = (
"383 69 OFFCURVE",
"382 115 OFFCURVE",
"382 248 CURVE SMOOTH",
"382 393 OFFCURVE",
"315 405 OFFCURVE",
"209 405 CURVE SMOOTH",
"169 405 OFFCURVE",
"123 400 OFFCURVE",
"100 394 CURVE SMOOTH",
"85 390 OFFCURVE",
"61 385 OFFCURVE",
"61 363 CURVE SMOOTH",
"61 356 LINE",
"78 381 OFFCURVE",
"168 390 OFFCURVE",
"213 390 CURVE SMOOTH",
"307 390 OFFCURVE",
"366 379 OFFCURVE",
"363 229 CURVE",
"348 235 OFFCURVE",
"259 243 OFFCURVE",
"192 243 CURVE SMOOTH",
"78 243 OFFCURVE",
"42 219 OFFCURVE",
"42 118 CURVE SMOOTH",
"42 28 OFFCURVE",
"71 -8 OFFCURVE",
"209 -8 CURVE SMOOTH",
"305 -8 OFFCURVE",
"383 -5 OFFCURVE",
"383 36 CURVE"
);
},
{
closed = 1;
nodes = (
"78 6 OFFCURVE",
"61 43 OFFCURVE",
"61 119 CURVE SMOOTH",
"61 222 OFFCURVE",
"103 228 OFFCURVE",
"213 228 CURVE SMOOTH",
"261 228 OFFCURVE",
"348 218 OFFCURVE",
"363 211 CURVE",
"363 203 OFFCURVE",
"364 69 OFFCURVE",
"364 39 CURVE",
"364 21 OFFCURVE",
"326 6 OFFCURVE",
"208 6 CURVE SMOOTH"
);
}
);
width = 424;
}
);
leftKerningGroup = a;
note = a;
rightKerningGroup = n;
unicode = 0061;
},
{
glyphname = b;
lastChange = "2021-06-15 08:27:41 +0000";
layers = (
{
anchors = (
{
name = bottom;
position = "{289, 0}";
},
{
name = top;
position = "{289, 960}";
}
);
layerId = "C7668D88-AC50-4107-9C4B-DB5D26A8FA6C";
paths = (
{
closed = 1;
nodes = (
"31 193 LINE SMOOTH",
"31 47 OFFCURVE",
"52 -5 OFFCURVE",
"282 -5 CURVE SMOOTH",
"480 -5 OFFCURVE",
"548 3 OFFCURVE",
"548 181 CURVE SMOOTH",
"548 197 OFFCURVE",
"548 212 OFFCURVE",
"548 228 CURVE SMOOTH",
"548 402 OFFCURVE",
"451 400 OFFCURVE",
"308 400 CURVE SMOOTH",
"291 400 OFFCURVE",
"284 401 OFFCURVE",
"238 398 CURVE",
"238 434 OFFCURVE",
"238 469 OFFCURVE",
"238 505 CURVE",
"169 505 OFFCURVE",
"99 505 OFFCURVE",
"30 505 CURVE"
);
},
{
closed = 1;
nodes = (
"256 102 OFFCURVE",
"238 103 OFFCURVE",
"238 165 CURVE SMOOTH",
"238 291 LINE",
"251 291 OFFCURVE",
"264 291 OFFCURVE",
"277 291 CURVE SMOOTH",
"322 291 OFFCURVE",
"341 291 OFFCURVE",
"341 237 CURVE SMOOTH",
"341 211 OFFCURVE",
"341 184 OFFCURVE",
"341 158 CURVE SMOOTH",
"339 115 OFFCURVE",
"327 102 OFFCURVE",
"288 102 CURVE SMOOTH"
);
}
);
width = 578;
},
{
anchors = (
{
name = bottom;
position = "{212, 0}";
},
{
name = top;
position = "{212, 960}";
}
);
background = {
paths = (
{
closed = 1;
nodes = (
"43 201 LINE SMOOTH",
"43 17 OFFCURVE",
"66 -2 OFFCURVE",
"199 -2 CURVE SMOOTH",
"302 -2 OFFCURVE",
"382 -2 OFFCURVE",
"382 203 CURVE SMOOTH",
"382 206 OFFCURVE",
"382 209 OFFCURVE",
"382 212 CURVE SMOOTH",
"380 365 OFFCURVE",
"320 400 OFFCURVE",
"207 400 CURVE SMOOTH",
"174 400 OFFCURVE",
"66 395 OFFCURVE",
"60 394 CURVE",
"60 431 OFFCURVE",
"60 468 OFFCURVE",
"60 505 CURVE",
"54 505 OFFCURVE",
"48 505 OFFCURVE",
"42 505 CURVE"
);
},
{
closed = 1;
nodes = (
"72 12 OFFCURVE",
"61 37 OFFCURVE",
"61 193 CURVE SMOOTH",
"61 380 LINE",
"68 381 OFFCURVE",
"173 385 OFFCURVE",
"215 385 CURVE SMOOTH",
"311 385 OFFCURVE",
"364 339 OFFCURVE",
"364 208 CURVE SMOOTH",
"364 206 OFFCURVE",
"364 204 OFFCURVE",
"364 203 CURVE SMOOTH",
"363 39 OFFCURVE",
"323 12 OFFCURVE",
"199 12 CURVE SMOOTH"
);
}
);
};
layerId = "B4E8C596-9C01-4F8A-BDA4-90320E25C0E6";
paths = (
{
closed = 1;
nodes = (
"43 201 LINE SMOOTH",
"43 17 OFFCURVE",
"66 -2 OFFCURVE",
"199 -2 CURVE SMOOTH",
"302 -2 OFFCURVE",
"382 -2 OFFCURVE",
"382 203 CURVE SMOOTH",
"382 206 OFFCURVE",
"382 209 OFFCURVE",
"382 212 CURVE SMOOTH",
"380 365 OFFCURVE",
"320 400 OFFCURVE",
"207 400 CURVE SMOOTH",
"174 400 OFFCURVE",
"66 395 OFFCURVE",
"60 394 CURVE",
"60 431 OFFCURVE",
"60 468 OFFCURVE",
"60 505 CURVE",
"54 505 OFFCURVE",
"48 505 OFFCURVE",
"42 505 CURVE"
);
},
{
closed = 1;
nodes = (
"72 12 OFFCURVE",
"61 37 OFFCURVE",
"61 193 CURVE SMOOTH",
"61 380 LINE",
"68 381 OFFCURVE",
"173 385 OFFCURVE",
"215 385 CURVE SMOOTH",
"311 385 OFFCURVE",
"364 339 OFFCURVE",
"364 208 CURVE SMOOTH",
"364 206 OFFCURVE",
"364 204 OFFCURVE",
"364 203 CURVE SMOOTH",
"363 39 OFFCURVE",
"323 12 OFFCURVE",
"199 12 CURVE SMOOTH"
);
}
);
width = 424;
}
);
leftKerningGroup = parenleft;
note = b;
rightKerningGroup = o;
unicode = 0062;
},
{
glyphname = c;
lastChange = "2021-06-15 08:43:27 +0000";
layers = (
{
anchors = (
{
name = bottom;
position = "{268, 0}";
},
{
name = top;
position = "{302, 399}";
}
);
background = {
hints = (
{
horizontal = 1;
place = "{-4, 104}";
type = Stem;
},
{
horizontal = 1;
place = "{301, 99}";
type = Stem;
},
{
place = "{30, 201}";
type = Stem;
}
);
paths = (
{
closed = 1;
nodes = (
"30 -10 OFFCURVE",
"144 -4 OFFCURVE",
"326 -4 CURVE SMOOTH",
"468 -4 OFFCURVE",
"506 -5 OFFCURVE",
"506 98 CURVE SMOOTH",
"506 112 LINE",
"499 109 OFFCURVE",
"437 100 OFFCURVE",
"408 100 CURVE SMOOTH",
"379 98 OFFCURVE",
"350 99 OFFCURVE",
"322 101 CURVE SMOOTH",
"259 107 OFFCURVE",
"231 124 OFFCURVE",
"231 198 CURVE SMOOTH",
"231 295 OFFCURVE",
"274 301 OFFCURVE",
"366 301 CURVE SMOOTH",
"412 301 OFFCURVE",
"483 297 OFFCURVE",
"506 289 CURVE",
"506 292 OFFCURVE",
"506 296 OFFCURVE",
"506 299 CURVE SMOOTH",
"506 402 OFFCURVE",
"462 400 OFFCURVE",
"322 400 CURVE SMOOTH",
"163 400 OFFCURVE",
"30 391 OFFCURVE",
"30 194 CURVE SMOOTH"
);
}
);
};
layerId = "C7668D88-AC50-4107-9C4B-DB5D26A8FA6C";
paths = (
{
closed = 1;
nodes = (
"32 29 OFFCURVE",
"106 -7 OFFCURVE",
"302 -7 CURVE SMOOTH",
"419 -7 OFFCURVE",
"506 -7 OFFCURVE",
"506 59 CURVE SMOOTH",
"506 112 LINE",
"484 105 OFFCURVE",
"419 100 OFFCURVE",
"379 100 CURVE SMOOTH",
"266 100 OFFCURVE",
"231 125 OFFCURVE",
"231 202 CURVE SMOOTH",
"231 279 OFFCURVE",
"266 304 OFFCURVE",
"379 304 CURVE SMOOTH",
"419 304 OFFCURVE",
"484 299 OFFCURVE",
"506 292 CURVE",
"506 375 OFFCURVE",
"481 390 OFFCURVE",
"440 395 CURVE SMOOTH",
"386 402 OFFCURVE",
"357 405 OFFCURVE",
"302 405 CURVE SMOOTH",
"106 405 OFFCURVE",
"32 367 OFFCURVE",
"32 200 CURVE SMOOTH"
);
}
);
width = 536;
},
{
anchors = (
{
name = bottom;
position = "{232, 0}";
},
{
name = top;
position = "{231, 399}";
}
);
background = {
paths = (
{
closed = 1;
nodes = (
"39 29 OFFCURVE",
"93 -7 OFFCURVE",
"235 -7 CURVE SMOOTH",
"280 -7 OFFCURVE",
"383 -2 OFFCURVE",
"383 22 CURVE SMOOTH",
"383 30 LINE",
"358 17 OFFCURVE",
"280 7 OFFCURVE",
"233 7 CURVE SMOOTH",
"99 7 OFFCURVE",
"57 55 OFFCURVE",
"57 200 CURVE SMOOTH",
"57 344 OFFCURVE",
"99 391 OFFCURVE",
"233 391 CURVE SMOOTH",
"280 391 OFFCURVE",
"358 382 OFFCURVE",
"383 369 CURVE",
"383 384 OFFCURVE",
"382 390 OFFCURVE",
"352 395 CURVE SMOOTH",
"313 403 OFFCURVE",
"275 405 OFFCURVE",
"235 405 CURVE SMOOTH",
"93 405 OFFCURVE",
"39 367 OFFCURVE",
"39 200 CURVE SMOOTH"
);
}
);
};
layerId = "B4E8C596-9C01-4F8A-BDA4-90320E25C0E6";
paths = (
{
closed = 1;
nodes = (
"39 29 OFFCURVE",
"93 -7 OFFCURVE",
"235 -7 CURVE SMOOTH",
"280 -7 OFFCURVE",
"383 -2 OFFCURVE",
"383 22 CURVE SMOOTH",
"383 30 LINE",
"358 17 OFFCURVE",
"280 7 OFFCURVE",
"233 7 CURVE SMOOTH",
"99 7 OFFCURVE",
"57 55 OFFCURVE",
"57 200 CURVE SMOOTH",
"57 344 OFFCURVE",
"99 391 OFFCURVE",
"233 391 CURVE SMOOTH",
"280 391 OFFCURVE",
"358 382 OFFCURVE",
"383 369 CURVE",
"383 384 OFFCURVE",
"382 390 OFFCURVE",
"352 395 CURVE SMOOTH",
"313 403 OFFCURVE",
"275 405 OFFCURVE",
"235 405 CURVE SMOOTH",
"93 405 OFFCURVE",
"39 367 OFFCURVE",
"39 200 CURVE SMOOTH"
);
}
);
width = 420;
}
);
leftKerningGroup = c;
note = c;
rightKerningGroup = c;
unicode = 0063;
},
{
glyphname = d;
lastChange = "2021-06-15 08:27:41 +0000";
layers = (
{
anchors = (
{
name = bottom;
position = "{290, 0}";
},
{
name = center;
position = "{290, 200}";
},
{
name = top;
position = "{263, 505}";
},
{
name = topright;
position = "{587, 505}";
}
);
layerId = "C7668D88-AC50-4107-9C4B-DB5D26A8FA6C";
paths = (
{
closed = 1;
nodes = (
"30 0 OFFCURVE",
"110 -2 OFFCURVE",
"283 -2 CURVE SMOOTH",
"466 -2 OFFCURVE",
"549 18 OFFCURVE",
"549 201 CURVE SMOOTH",
"549 505 LINE",
"341 505 LINE",
"341 394 LINE",
"330 398 OFFCURVE",
"293 400 OFFCURVE",
"274 400 CURVE SMOOTH",
"111 400 OFFCURVE",
"30 366 OFFCURVE",
"30 198 CURVE SMOOTH"
);
},
{
closed = 1;
nodes = (
"240 102 OFFCURVE",
"237 134 OFFCURVE",
"237 215 CURVE SMOOTH",
"237 285 OFFCURVE",
"263 290 OFFCURVE",
"334 290 CURVE SMOOTH",
"336 290 OFFCURVE",
"339 290 OFFCURVE",
"341 290 CURVE",
"341 178 LINE SMOOTH",
"341 102 OFFCURVE",
"305 102 OFFCURVE",
"290 102 CURVE SMOOTH"
);
}
);
width = 579;
},
{
anchors = (
{
name = bottom;
position = "{212, 0}";
},
{
name = center;
position = "{212, 200}";
},
{
name = top;
position = "{365, 505}";
},
{
name = topright;
position = "{431, 505}";
}
);
background = {
paths = (
{
closed = 1;
nodes = (
"42 -7 OFFCURVE",
"109 -2 OFFCURVE",
"225 -2 CURVE SMOOTH",
"358 -2 OFFCURVE",
"381 17 OFFCURVE",
"381 201 CURVE SMOOTH",
"382 505 LINE",
"365 505 LINE",
"365 394 LINE",
"359 395 OFFCURVE",
"250 400 OFFCURVE",
"217 400 CURVE SMOOTH",
"102 400 OFFCURVE",
"42 364 OFFCURVE",
"42 203 CURVE SMOOTH"
);
},
{
closed = 1;
nodes = (
"91 12 OFFCURVE",
"60 37 OFFCURVE",
"60 199 CURVE SMOOTH",
"60 326 OFFCURVE",
"86 385 OFFCURVE",
"217 385 CURVE SMOOTH",
"260 385 OFFCURVE",
"358 379 OFFCURVE",
"365 378 CURVE",
"365 196 LINE SMOOTH",
"365 19 OFFCURVE",
"340 12 OFFCURVE",
"200 12 CURVE SMOOTH"
);
}
);
};
layerId = "B4E8C596-9C01-4F8A-BDA4-90320E25C0E6";
paths = (
{
closed = 1;
nodes = (
"42 -7 OFFCURVE",
"109 -2 OFFCURVE",
"225 -2 CURVE SMOOTH",
"358 -2 OFFCURVE",
"380 17 OFFCURVE",
"381 201 CURVE SMOOTH",
"382 505 LINE",
"365 505 LINE",
"365 394 LINE",
"359 395 OFFCURVE",
"250 400 OFFCURVE",
"217 400 CURVE SMOOTH",
"102 400 OFFCURVE",
"42 364 OFFCURVE",
"42 203 CURVE SMOOTH"
);
},
{
closed = 1;
nodes = (
"91 12 OFFCURVE",
"60 37 OFFCURVE",
"60 199 CURVE SMOOTH",
"60 326 OFFCURVE",
"86 385 OFFCURVE",
"217 385 CURVE SMOOTH",
"260 385 OFFCURVE",
"358 379 OFFCURVE",
"365 378 CURVE",
"365 196 LINE SMOOTH",
"365 19 OFFCURVE",
"340 12 OFFCURVE",
"200 12 CURVE SMOOTH"
);
}
);
width = 424;
}
);
leftKerningGroup = o;
note = d;
rightKerningGroup = l;
unicode = 0064;
},
{
glyphname = e;
lastChange = "2021-06-15 08:43:59 +0000";
layers = (
{
anchors = (
{
name = bottom;
position = "{290, 0}";
},
{
name = ogonek;
position = "{378, 10}";
},
{
name = top;
position = "{290, 399}";
}
);
layerId = "C7668D88-AC50-4107-9C4B-DB5D26A8FA6C";
paths = (
{
closed = 1;
nodes = (
"354 161 OFFCURVE",
"451 161 OFFCURVE",
"549 161 CURVE",
"549 198 OFFCURVE",
"549 236 OFFCURVE",
"549 273 CURVE SMOOTH",
"549 398 OFFCURVE",
"394 400 OFFCURVE",
"309 400 CURVE SMOOTH",
"142 400 OFFCURVE",
"30 380 OFFCURVE",
"30 185 CURVE SMOOTH",
"30 1 OFFCURVE",
"107 -5 OFFCURVE",
"296 -5 CURVE SMOOTH",
"435 -5 OFFCURVE",
"510 -2 OFFCURVE",
"530 22 CURVE SMOOTH",
"543 36 OFFCURVE",
"547 68 OFFCURVE",
"548 91 CURVE SMOOTH",
"548 101 OFFCURVE",
"548 109 OFFCURVE",
"548 114 CURVE",
"537 113 OFFCURVE",
"385 110 OFFCURVE",
"362 110 CURVE SMOOTH",
"262 110 OFFCURVE",
"239 106 OFFCURVE",
"239 189 CURVE SMOOTH",
"239 274 OFFCURVE",
"248 290 OFFCURVE",
"308 290 CURVE SMOOTH",
"364 290 OFFCURVE",
"366 265 OFFCURVE",
"366 226 CURVE",
"348 226 OFFCURVE",
"331 226 OFFCURVE",
"313 226 CURVE SMOOTH",
"258 226 OFFCURVE",
"256 188 OFFCURVE",
"256 161 CURVE"
);
}
);
width = 579;
},
{
anchors = (
{
name = bottom;
position = "{212, 0}";
},
{
name = ogonek;
position = "{227, 3}";
},
{
name = top;
position = "{212, 399}";
}
);
background = {
paths = (
{
closed = 1;
nodes = (
"194 197 OFFCURVE",
"293 197 OFFCURVE",
"391 197 CURVE",
"391 212 OFFCURVE",
"391 226 OFFCURVE",
"391 241 CURVE SMOOTH",
"389 351 OFFCURVE",
"346 405 OFFCURVE",
"233 405 CURVE SMOOTH",
"78 405 OFFCURVE",
"39 338 OFFCURVE",
"39 200 CURVE SMOOTH",
"39 29 OFFCURVE",
"93 -7 OFFCURVE",
"235 -7 CURVE SMOOTH",
"275 -7 OFFCURVE",
"313 -4 OFFCURVE",
"352 3 CURVE SMOOTH",
"378 8 OFFCURVE",
"383 14 OFFCURVE",
"383 22 CURVE SMOOTH",
"383 24 OFFCURVE",
"383 27 OFFCURVE",
"383 29 CURVE",
"358 16 OFFCURVE",
"281 8 OFFCURVE",
"234 8 CURVE SMOOTH",
"100 8 OFFCURVE",
"57 51 OFFCURVE",
"57 200 CURVE SMOOTH",
"57 336 OFFCURVE",
"99 391 OFFCURVE",
"234 391 CURVE SMOOTH",
"337 391 OFFCURVE",
"374 338 OFFCURVE",
"374 211 CURVE",
"285 211 OFFCURVE",
"196 211 OFFCURVE",
"107 211 CURVE SMOOTH",
"100 211 OFFCURVE",
"96 204 OFFCURVE",
"96 197 CURVE"
);
}
);
};
layerId = "B4E8C596-9C01-4F8A-BDA4-90320E25C0E6";
paths = (
{
closed = 1;
nodes = (
"194 197 OFFCURVE",
"293 197 OFFCURVE",
"391 197 CURVE",
"391 212 OFFCURVE",
"391 226 OFFCURVE",
"391 241 CURVE SMOOTH",
"389 351 OFFCURVE",
"346 405 OFFCURVE",
"233 405 CURVE SMOOTH",
"78 405 OFFCURVE",
"39 338 OFFCURVE",
"39 200 CURVE SMOOTH",
"39 29 OFFCURVE",
"93 -7 OFFCURVE",
"235 -7 CURVE SMOOTH",
"275 -7 OFFCURVE",
"313 -4 OFFCURVE",
"352 3 CURVE SMOOTH",
"378 8 OFFCURVE",
"383 14 OFFCURVE",
"383 22 CURVE SMOOTH",
"383 24 OFFCURVE",
"383 27 OFFCURVE",
"383 29 CURVE",
"358 16 OFFCURVE",
"281 8 OFFCURVE",
"234 8 CURVE SMOOTH",
"100 8 OFFCURVE",
"57 51 OFFCURVE",
"57 200 CURVE SMOOTH",
"57 336 OFFCURVE",
"99 391 OFFCURVE",
"234 391 CURVE SMOOTH",
"337 391 OFFCURVE",
"374 338 OFFCURVE",
"374 211 CURVE",
"285 211 OFFCURVE",
"196 211 OFFCURVE",
"107 211 CURVE SMOOTH",
"100 211 OFFCURVE",
"96 204 OFFCURVE",
"96 197 CURVE"
);
}
);
width = 424;
}
);
leftKerningGroup = e;
note = e;
rightKerningGroup = e;
unicode = 0065;
},
{
glyphname = f;
lastChange = "2021-06-15 08:27:41 +0000";
layers = (
{
anchors = (
{
name = bottom;
position = "{242, 0}";
},
{
name = top;
position = "{242, 960}";
}
);
layerId = "C7668D88-AC50-4107-9C4B-DB5D26A8FA6C";
paths = (
{
closed = 1;
nodes = (
"30 246 LINE",
"68 246 LINE",
"68 59 LINE SMOOTH",
"68 18 OFFCURVE",
"79 0 OFFCURVE",
"131 0 CURVE SMOOTH",
"276 0 LINE",
"276 246 LINE",
"463 246 LINE",
"463 352 LINE",
"276 352 LINE",
"276 365 LINE SMOOTH",
"276 383 OFFCURVE",
"282 399 OFFCURVE",
"311 399 CURVE SMOOTH",
"333 399 OFFCURVE",
"438 398 OFFCURVE",
"463 391 CURVE",
"463 497 LINE",
"396 503 OFFCURVE",
"264 510 OFFCURVE",
"179 505 CURVE SMOOTH",
"93 500 OFFCURVE",
"68 447 OFFCURVE",
"68 376 CURVE SMOOTH",
"68 352 LINE",
"30 352 LINE"
);
}
);
width = 483;
},
{
anchors = (
{
name = bottom;
position = "{122, 0}";
},
{
name = top;
position = "{122, 960}";
}
);
background = {
paths = (
{
closed = 1;
nodes = (
"42 338 LINE",
"73 338 LINE",
"73 15 LINE SMOOTH",
"73 2 OFFCURVE",
"76 0 OFFCURVE",
"84 0 CURVE SMOOTH",
"90 0 LINE",
"90 338 LINE",
"205 338 LINE",
"205 352 LINE",
"90 352 LINE",
"90 418 LINE SMOOTH",
"90 469 OFFCURVE",
"98 491 OFFCURVE",
"152 491 CURVE SMOOTH",
"180 491 OFFCURVE",
"205 484 OFFCURVE",
"205 484 CURVE",
"205 498 LINE",
"205 498 OFFCURVE",
"178 505 OFFCURVE",
"133 505 CURVE SMOOTH",
"81 505 OFFCURVE",
"73 467 OFFCURVE",
"73 424 CURVE SMOOTH",
"73 352 LINE",
"42 352 LINE"
);
}
);
};
layerId = "B4E8C596-9C01-4F8A-BDA4-90320E25C0E6";
paths = (
{
closed = 1;
nodes = (
"42 338 LINE",
"73 338 LINE",
"73 15 LINE SMOOTH",
"73 2 OFFCURVE",
"76 0 OFFCURVE",
"84 0 CURVE SMOOTH",
"90 0 LINE",
"90 338 LINE",
"205 338 LINE",
"205 352 LINE",
"90 352 LINE",
"90 418 LINE SMOOTH",
"90 469 OFFCURVE",
"98 491 OFFCURVE",
"152 491 CURVE SMOOTH",
"180 491 OFFCURVE",
"205 484 OFFCURVE",
"205 484 CURVE",
"205 498 LINE",
"205 498 OFFCURVE",
"178 505 OFFCURVE",
"133 505 CURVE SMOOTH",
"81 505 OFFCURVE",
"73 467 OFFCURVE",
"73 424 CURVE SMOOTH",
"73 352 LINE",
"42 352 LINE"
);
}
);
width = 244;
}
);
leftKerningGroup = f;
note = f;
rightKerningGroup = f;
unicode = 0066;
},
{
glyphname = g;
lastChange = "2021-06-15 08:44:22 +0000";
layers = (
{
anchors = (
{
name = bottom;
position = "{294, -350}";
},
{
name = top;
position = "{314, 399}";
}
);
layerId = "C7668D88-AC50-4107-9C4B-DB5D26A8FA6C";
paths = (
{
closed = 1;
nodes = (
"60 -7 OFFCURVE",
"60 -38 OFFCURVE",
"60 -47 CURVE SMOOTH",
"60 -120 OFFCURVE",
"195 -109 OFFCURVE",
"276 -109 CURVE SMOOTH",
"467 -109 OFFCURVE",
"558 -77 OFFCURVE",
"556 86 CURVE SMOOTH",
"556 166 OFFCURVE",
"556 246 OFFCURVE",
"556 326 CURVE SMOOTH",
"556 355 OFFCURVE",
"556 382 OFFCURVE",
"558 387 CURVE",
"535 389 OFFCURVE",
"384 401 OFFCURVE",
"332 401 CURVE SMOOTH",
"128 401 OFFCURVE",
"30 378 OFFCURVE",
"30 228 CURVE SMOOTH",
"30 70 OFFCURVE",
"93 49 OFFCURVE",
"234 49 CURVE SMOOTH",
"307 49 OFFCURVE",
"341 66 OFFCURVE",
"348 94 CURVE",
"348 -17 OFFCURVE",
"324 -21 OFFCURVE",
"227 -21 CURVE SMOOTH",
"168 -21 OFFCURVE",
"76 -7 OFFCURVE",
"60 0 CURVE"
);
},
{
closed = 1;
nodes = (
"349 212 LINE",
"349 152 OFFCURVE",
"314 142 OFFCURVE",
"296 142 CURVE SMOOTH",
"262 142 OFFCURVE",
"243 144 OFFCURVE",
"243 230 CURVE SMOOTH",
"243 282 OFFCURVE",
"256 294 OFFCURVE",
"294 294 CURVE SMOOTH",
"324 294 OFFCURVE",
"341 293 OFFCURVE",
"349 293 CURVE"
);
}
);
width = 588;
},
{
anchors = (
{
name = bottom;
position = "{214, -350}";
},
{
name = top;
position = "{214, 399}";
}
);
background = {
paths = (
{
closed = 1;
nodes = (
"66 -72 OFFCURVE",
"66 -76 OFFCURVE",
"66 -79 CURVE SMOOTH",
"66 -105 OFFCURVE",
"189 -111 OFFCURVE",
"213 -111 CURVE SMOOTH",
"274 -111 OFFCURVE",
"314 -99 OFFCURVE",
"339 -74 CURVE SMOOTH",
"388 -25 OFFCURVE",
"382 71 OFFCURVE",
"382 218 CURVE SMOOTH",
"382 286 OFFCURVE",
"382 382 OFFCURVE",
"385 390 CURVE",
"366 394 OFFCURVE",
"283 402 OFFCURVE",
"228 402 CURVE SMOOTH",
"99 402 OFFCURVE",
"42 379 OFFCURVE",
"42 222 CURVE SMOOTH",
"42 70 OFFCURVE",
"98 46 OFFCURVE",
"209 46 CURVE SMOOTH",
"240 46 OFFCURVE",
"326 51 OFFCURVE",
"364 101 CURVE",
"364 -60 OFFCURVE",
"312 -96 OFFCURVE",
"212 -96 CURVE SMOOTH",
"172 -96 OFFCURVE",
"98 -87 OFFCURVE",
"66 -69 CURVE"
);
},
{
closed = 1;
nodes = (
"361 141 LINE",
"353 69 OFFCURVE",
"246 61 OFFCURVE",
"202 61 CURVE SMOOTH",
"97 61 OFFCURVE",
"60 95 OFFCURVE",
"60 227 CURVE SMOOTH",
"60 351 OFFCURVE",
"102 387 OFFCURVE",
"225 387 CURVE SMOOTH",
"294 387 OFFCURVE",
"349 379 OFFCURVE",
"364 375 CURVE"
);
}
);
};
layerId = "B4E8C596-9C01-4F8A-BDA4-90320E25C0E6";
paths = (
{
closed = 1;
nodes = (
"66 -72 OFFCURVE",
"66 -76 OFFCURVE",
"66 -79 CURVE SMOOTH",
"66 -105 OFFCURVE",
"189 -111 OFFCURVE",
"213 -111 CURVE SMOOTH",
"274 -111 OFFCURVE",
"314 -99 OFFCURVE",
"339 -74 CURVE SMOOTH",
"388 -25 OFFCURVE",
"382 71 OFFCURVE",
"382 218 CURVE SMOOTH",
"382 286 OFFCURVE",
"382 382 OFFCURVE",
"385 390 CURVE",
"366 394 OFFCURVE",
"283 402 OFFCURVE",
"228 402 CURVE SMOOTH",
"99 402 OFFCURVE",
"42 379 OFFCURVE",
"42 222 CURVE SMOOTH",
"42 70 OFFCURVE",
"98 46 OFFCURVE",
"209 46 CURVE SMOOTH",
"240 46 OFFCURVE",
"326 51 OFFCURVE",
"364 101 CURVE",
"364 -60 OFFCURVE",
"312 -96 OFFCURVE",
"212 -96 CURVE SMOOTH",
"172 -96 OFFCURVE",
"98 -87 OFFCURVE",
"66 -69 CURVE"
);
},
{
closed = 1;
nodes = (
"361 141 LINE",
"353 69 OFFCURVE",
"246 61 OFFCURVE",
"202 61 CURVE SMOOTH",
"97 61 OFFCURVE",
"60 95 OFFCURVE",
"60 227 CURVE SMOOTH",
"60 351 OFFCURVE",
"102 387 OFFCURVE",
"225 387 CURVE SMOOTH",
"294 387 OFFCURVE",
"349 379 OFFCURVE",
"364 375 CURVE"
);
}
);
width = 427;
}
);
leftKerningGroup = g;
note = g;
rightKerningGroup = one;
unicode = 0067;
},
{
glyphname = h;
lastChange = "2021-06-15 08:44:54 +0000";
layers = (
{
anchors = (
{
name = bottom;
position = "{290, 0}";
},
{
name = center;
position = "{290, 480}";
},
{
name = top;
position = "{135, 505}";
}
);
layerId = "C7668D88-AC50-4107-9C4B-DB5D26A8FA6C";
paths = (
{
closed = 1;
nodes = (
"30 356 OFFCURVE",
"30 206 OFFCURVE",
"30 57 CURVE SMOOTH",
"30 -10 OFFCURVE",
"54 0 OFFCURVE",
"237 0 CURVE",
"237 99 OFFCURVE",
"237 199 OFFCURVE",
"237 298 CURVE",
"238 302 OFFCURVE",
"272 306 OFFCURVE",
"281 306 CURVE SMOOTH",
"347 306 OFFCURVE",
"347 281 OFFCURVE",
"347 225 CURVE SMOOTH",
"347 150 OFFCURVE",
"347 75 OFFCURVE",
"347 0 CURVE",
"516 0 OFFCURVE",
"549 -15 OFFCURVE",
"549 80 CURVE SMOOTH",
"549 93 OFFCURVE",
"549 151 OFFCURVE",
"549 198 CURVE SMOOTH",
"549 350 OFFCURVE",
"534 398 OFFCURVE",
"308 398 CURVE SMOOTH",
"293 398 OFFCURVE",
"257 398 OFFCURVE",
"237 396 CURVE",
"237 432 OFFCURVE",
"237 469 OFFCURVE",
"237 505 CURVE",
"168 505 OFFCURVE",
"99 505 OFFCURVE",
"30 505 CURVE"
);
}
);
width = 579;
},
{
anchors = (
{
name = bottom;
position = "{198, 0}";
},
{
name = center;
position = "{90, 480}";
},
{
name = top;
position = "{122, 460}";
}
);
background = {
paths = (
{
closed = 1;
nodes = (
"42 343 OFFCURVE",
"42 182 OFFCURVE",
"42 21 CURVE SMOOTH",
"42 0 OFFCURVE",
"43 0 OFFCURVE",
"60 0 CURVE",
"60 123 OFFCURVE",
"60 245 OFFCURVE",
"60 368 CURVE",
"87 380 OFFCURVE",
"141 385 OFFCURVE",
"182 385 CURVE SMOOTH",
"282 385 OFFCURVE",
"335 362 OFFCURVE",
"335 250 CURVE SMOOTH",
"335 167 OFFCURVE",
"335 83 OFFCURVE",
"335 0 CURVE",
"353 0 OFFCURVE",
"353 0 OFFCURVE",
"353 31 CURVE SMOOTH",
"353 100 OFFCURVE",
"353 168 OFFCURVE",
"353 237 CURVE SMOOTH",
"353 330 OFFCURVE",
"343 399 OFFCURVE",
"181 399 CURVE SMOOTH",
"133 399 OFFCURVE",
"84 394 OFFCURVE",
"60 383 CURVE",
"60 423 OFFCURVE",
"60 464 OFFCURVE",
"60 504 CURVE",
"54 504 OFFCURVE",
"48 504 OFFCURVE",
"42 504 CURVE"
);
}
);
};
layerId = "B4E8C596-9C01-4F8A-BDA4-90320E25C0E6";
paths = (
{
closed = 1;
nodes = (
"42 343 OFFCURVE",
"42 182 OFFCURVE",
"42 21 CURVE SMOOTH",
"42 0 OFFCURVE",
"43 0 OFFCURVE",
"60 0 CURVE",
"60 123 OFFCURVE",
"60 245 OFFCURVE",
"60 368 CURVE",
"87 380 OFFCURVE",
"141 385 OFFCURVE",
"182 385 CURVE SMOOTH",
"282 385 OFFCURVE",
"335 362 OFFCURVE",
"335 250 CURVE SMOOTH",
"335 167 OFFCURVE",
"335 83 OFFCURVE",
"335 0 CURVE",
"353 0 OFFCURVE",
"353 0 OFFCURVE",
"353 31 CURVE SMOOTH",
"353 100 OFFCURVE",
"353 168 OFFCURVE",
"353 237 CURVE SMOOTH",
"353 330 OFFCURVE",
"343 399 OFFCURVE",
"181 399 CURVE SMOOTH",
"133 399 OFFCURVE",
"84 394 OFFCURVE",
"60 383 CURVE",
"60 423 OFFCURVE",
"60 464 OFFCURVE",
"60 504 CURVE",
"54 504 OFFCURVE",
"48 504 OFFCURVE",
"42 504 CURVE"
);
}
);
width = 395;
}
);
leftKerningGroup = bracketleft;
note = h;
rightKerningGroup = h;
unicode = 0068;
},
{
glyphname = i;
lastChange = "2021-04-18 10:29:33 +0000";
layers = (
{
anchors = (
{
name = bottom;
position = "{181, 0}";
}
);
layerId = "C7668D88-AC50-4107-9C4B-DB5D26A8FA6C";
paths = (
{
closed = 1;
nodes = (
"200 399 OFFCURVE",
"131 399 OFFCURVE",
"62 399 CURVE",
"62 360 OFFCURVE",
"61 207 OFFCURVE",
"61 132 CURVE SMOOTH",
"61 69 OFFCURVE",
"27 -5 OFFCURVE",
"242 -5 CURVE SMOOTH",
"306 -5 OFFCURVE",
"330 5 OFFCURVE",
"341 7 CURVE",
"341 79 LINE",
"338 77 OFFCURVE",
"331 73 OFFCURVE",
"320 73 CURVE SMOOTH",
"270 73 OFFCURVE",
"269 99 OFFCURVE",
"269 152 CURVE SMOOTH",
"269 234 OFFCURVE",
"269 317 OFFCURVE",
"269 399 CURVE"
);
},
{
closed = 1;
nodes = (
"86 442 OFFCURVE",
"121 440 OFFCURVE",
"172 440 CURVE SMOOTH",
"222 440 OFFCURVE",
"257 442 OFFCURVE",
"257 494 CURVE SMOOTH",
"257 541 OFFCURVE",
"225 547 OFFCURVE",
"175 548 CURVE SMOOTH",
"125 548 OFFCURVE",
"86 543 OFFCURVE",
"86 494 CURVE SMOOTH"
);
}
);
width = 362;
},
{
anchors = (
{
name = bottom;
position = "{98, 0}";
}
);
background = {
paths = (
{
closed = 1;
nodes = (
"72 399 OFFCURVE",
"66 399 OFFCURVE",
"60 399 CURVE",
"60 299 OFFCURVE",
"60 198 OFFCURVE",
"60 98 CURVE SMOOTH",
"60 42 OFFCURVE",
"61 -3 OFFCURVE",
"109 -3 CURVE SMOOTH",
"117 -3 OFFCURVE",
"149 0 OFFCURVE",
"156 2 CURVE",
"156 16 LINE",
"151 13 OFFCURVE",
"127 11 OFFCURVE",
"120 11 CURVE SMOOTH",
"85 11 OFFCURVE",
"78 35 OFFCURVE",
"78 88 CURVE SMOOTH",
"78 192 OFFCURVE",
"78 295 OFFCURVE",
"78 399 CURVE"
);
},
{
closed = 1;
nodes = (
"51 465 OFFCURVE",
"62 464 OFFCURVE",
"69 464 CURVE SMOOTH",
"76 464 OFFCURVE",
"86 465 OFFCURVE",
"86 479 CURVE SMOOTH",
"86 494 OFFCURVE",
"77 495 OFFCURVE",
"68 495 CURVE SMOOTH",
"59 495 OFFCURVE",
"51 493 OFFCURVE",
"51 479 CURVE SMOOTH"
);
}
);
};
layerId = "B4E8C596-9C01-4F8A-BDA4-90320E25C0E6";
paths = (
{
closed = 1;
nodes = (
"72 399 OFFCURVE",
"66 399 OFFCURVE",
"60 399 CURVE",
"60 299 OFFCURVE",
"60 198 OFFCURVE",
"60 98 CURVE SMOOTH",
"60 42 OFFCURVE",
"61 -3 OFFCURVE",
"109 -3 CURVE SMOOTH",
"117 -3 OFFCURVE",
"149 0 OFFCURVE",
"156 2 CURVE",
"156 16 LINE",
"151 13 OFFCURVE",
"127 11 OFFCURVE",
"120 11 CURVE SMOOTH",
"85 11 OFFCURVE",
"78 35 OFFCURVE",
"78 88 CURVE SMOOTH",
"78 192 OFFCURVE",
"78 295 OFFCURVE",
"78 399 CURVE"
);
},
{
closed = 1;
nodes = (
"51 465 OFFCURVE",
"62 464 OFFCURVE",
"69 464 CURVE SMOOTH",
"76 464 OFFCURVE",
"86 465 OFFCURVE",
"86 479 CURVE SMOOTH",
"86 494 OFFCURVE",
"77 495 OFFCURVE",
"68 495 CURVE SMOOTH",
"59 495 OFFCURVE",
"51 493 OFFCURVE",
"51 479 CURVE SMOOTH"
);
}
);
width = 195;
}
);
leftKerningGroup = bracketleft;
note = i;
rightKerningGroup = i;
unicode = 0069;
},
{
glyphname = j;
lastChange = "2021-04-18 10:29:33 +0000";
layers = (
{
layerId = "C7668D88-AC50-4107-9C4B-DB5D26A8FA6C";
paths = (
{
closed = 1;
nodes = (
"0 -46 OFFCURVE",
"0 -70 OFFCURVE",
"0 -94 CURVE",
"11 -96 OFFCURVE",
"62 -106 OFFCURVE",
"126 -106 CURVE SMOOTH",
"341 -106 OFFCURVE",
"307 -3 OFFCURVE",
"307 60 CURVE SMOOTH",
"307 135 OFFCURVE",
"306 360 OFFCURVE",
"306 399 CURVE",
"261 399 OFFCURVE",
"215 399 OFFCURVE",
"170 399 CURVE SMOOTH",
"108 399 OFFCURVE",
"99 387 OFFCURVE",
"99 329 CURVE SMOOTH",
"99 236 OFFCURVE",
"99 144 OFFCURVE",
"99 51 CURVE SMOOTH",
"99 -2 OFFCURVE",
"98 -28 OFFCURVE",
"48 -28 CURVE SMOOTH",
"37 -28 OFFCURVE",
"9 -25 OFFCURVE",
"0 -22 CURVE"
);
},
{
closed = 1;
nodes = (
"119 442 OFFCURVE",
"154 440 OFFCURVE",
"205 440 CURVE SMOOTH",
"255 440 OFFCURVE",
"290 442 OFFCURVE",
"290 494 CURVE SMOOTH",
"290 541 OFFCURVE",
"258 547 OFFCURVE",
"208 548 CURVE SMOOTH",
"158 548 OFFCURVE",
"119 543 OFFCURVE",
"119 494 CURVE SMOOTH"
);
}
);
width = 344;
},
{
background = {
paths = (
{
closed = 1;
nodes = (
"20 -73 OFFCURVE",
"20 -77 OFFCURVE",
"20 -82 CURVE",
"28 -83 OFFCURVE",
"50 -85 OFFCURVE",
"69 -85 CURVE SMOOTH",
"124 -85 OFFCURVE",
"124 -50 OFFCURVE",
"124 27 CURVE SMOOTH",
"124 151 OFFCURVE",
"124 275 OFFCURVE",
"124 399 CURVE",
"122 399 OFFCURVE",
"120 399 OFFCURVE",
"118 399 CURVE SMOOTH",
"107 399 OFFCURVE",
"106 394 OFFCURVE",
"106 385 CURVE SMOOTH",
"106 259 OFFCURVE",
"106 132 OFFCURVE",
"106 6 CURVE SMOOTH",
"106 -47 OFFCURVE",
"104 -71 OFFCURVE",
"64 -71 CURVE SMOOTH",
"50 -71 OFFCURVE",
"27 -69 OFFCURVE",
"20 -68 CURVE"
);
},
{
closed = 1;
nodes = (
"98 465 OFFCURVE",
"109 464 OFFCURVE",
"116 464 CURVE SMOOTH",
"123 464 OFFCURVE",
"133 465 OFFCURVE",
"133 479 CURVE SMOOTH",
"133 494 OFFCURVE",
"124 495 OFFCURVE",
"115 495 CURVE SMOOTH",
"106 495 OFFCURVE",
"98 493 OFFCURVE",
"98 479 CURVE SMOOTH"
);
}
);
};
layerId = "B4E8C596-9C01-4F8A-BDA4-90320E25C0E6";
paths = (
{
closed = 1;
nodes = (
"20 -73 OFFCURVE",
"20 -77 OFFCURVE",
"20 -82 CURVE",
"28 -83 OFFCURVE",
"50 -85 OFFCURVE",
"69 -85 CURVE SMOOTH",
"124 -85 OFFCURVE",
"124 -50 OFFCURVE",
"124 27 CURVE SMOOTH",
"124 151 OFFCURVE",
"124 275 OFFCURVE",
"124 399 CURVE",
"122 399 OFFCURVE",
"120 399 OFFCURVE",
"118 399 CURVE SMOOTH",
"107 399 OFFCURVE",
"106 394 OFFCURVE",
"106 385 CURVE SMOOTH",
"106 259 OFFCURVE",
"106 132 OFFCURVE",
"106 6 CURVE SMOOTH",
"106 -47 OFFCURVE",
"104 -71 OFFCURVE",
"64 -71 CURVE SMOOTH",
"50 -71 OFFCURVE",
"27 -69 OFFCURVE",
"20 -68 CURVE"
);
},
{
closed = 1;
nodes = (
"98 465 OFFCURVE",
"109 464 OFFCURVE",
"116 464 CURVE SMOOTH",
"123 464 OFFCURVE",
"133 465 OFFCURVE",
"133 479 CURVE SMOOTH",
"133 494 OFFCURVE",
"124 495 OFFCURVE",
"115 495 CURVE SMOOTH",
"106 495 OFFCURVE",
"98 493 OFFCURVE",
"98 479 CURVE SMOOTH"
);
}
);
width = 193;
}
);
leftKerningGroup = bracketleft;
note = j;
rightKerningGroup = one;
unicode = 006A;
},
{
glyphname = k;
lastChange = "2021-06-15 08:27:41 +0000";
layers = (
{
anchors = (
{
name = bottom;
position = "{343, 0}";
},
{
name = top;
position = "{343, 960}";
}
);
layerId = "C7668D88-AC50-4107-9C4B-DB5D26A8FA6C";
paths = (
{
closed = 1;
nodes = (
"100 0 OFFCURVE",
"169 0 OFFCURVE",
"238 0 CURVE",
"238 39 OFFCURVE",
"238 77 OFFCURVE",
"238 116 CURVE",
"238 116 LINE SMOOTH",
"350 0 OFFCURVE",
"370 0 OFFCURVE",
"408 0 CURVE SMOOTH",
"490 0 OFFCURVE",
"575 -3 OFFCURVE",
"655 0 CURVE",
"652 2 OFFCURVE",
"624 23 OFFCURVE",
"634 15 CURVE",
"624 23 OFFCURVE",
"616 29 OFFCURVE",
"582 62 CURVE",
"477 164 OFFCURVE",
"438 210 OFFCURVE",
"398 249 CURVE",
"415 263 OFFCURVE",
"492 319 OFFCURVE",
"498 323 CURVE SMOOTH",
"546 358 OFFCURVE",
"602 394 OFFCURVE",
"607 399 CURVE",
"509 399 OFFCURVE",
"406 418 OFFCURVE",
"357 377 CURVE",
"357 383 OFFCURVE",
"238 272 OFFCURVE",
"238 276 CURVE",
"238 276 OFFCURVE",
"240 498 OFFCURVE",
"242 505 CURVE",
"193 505 OFFCURVE",
"143 505 OFFCURVE",
"100 505 CURVE SMOOTH",
"33 505 OFFCURVE",
"30 479 OFFCURVE",
"30 436 CURVE SMOOTH",
"30 401 OFFCURVE",
"31 22 OFFCURVE",
"31 0 CURVE"
);
}
);
width = 685;
},
{
anchors = (
{
name = bottom;
position = "{199, 0}";
},
{
name = top;
position = "{199, 960}";
}
);
background = {
paths = (
{
closed = 1;
nodes = (
"66 0 OFFCURVE",
"72 0 OFFCURVE",
"78 0 CURVE",
"78 42 OFFCURVE",
"78 84 OFFCURVE",
"78 126 CURVE",
"154 209 LINE",
"211 143 OFFCURVE",
"267 78 OFFCURVE",
"324 12 CURVE SMOOTH",
"333 2 OFFCURVE",
"337 -1 OFFCURVE",
"345 -1 CURVE SMOOTH",
"350 -1 OFFCURVE",
"358 0 OFFCURVE",
"358 0 CURVE",
"358 0 OFFCURVE",
"356 3 OFFCURVE",
"352 7 CURVE SMOOTH",
"324 40 OFFCURVE",
"207 176 OFFCURVE",
"167 223 CURVE",
"212 272 OFFCURVE",
"257 321 OFFCURVE",
"302 370 CURVE SMOOTH",
"312 381 OFFCURVE",
"326 395 OFFCURVE",
"331 399 CURVE",
"323 399 OFFCURVE",
"315 399 OFFCURVE",
"307 399 CURVE",
"193 272 OFFCURVE",
"103 173 OFFCURVE",
"78 146 CURVE",
"78 266 OFFCURVE",
"78 386 OFFCURVE",
"78 506 CURVE",
"75 506 OFFCURVE",
"73 506 OFFCURVE",
"70 506 CURVE SMOOTH",
"60 506 OFFCURVE",
"60 499 OFFCURVE",
"60 487 CURVE SMOOTH",
"60 325 OFFCURVE",
"60 162 OFFCURVE",
"60 0 CURVE"
);
}
);
};
layerId = "B4E8C596-9C01-4F8A-BDA4-90320E25C0E6";
paths = (
{
closed = 1;
nodes = (
"66 0 OFFCURVE",
"72 0 OFFCURVE",
"78 0 CURVE",
"78 42 OFFCURVE",
"78 84 OFFCURVE",
"78 126 CURVE",
"154 209 LINE",
"211 143 OFFCURVE",
"267 78 OFFCURVE",
"324 12 CURVE SMOOTH",
"333 2 OFFCURVE",
"337 -1 OFFCURVE",
"345 -1 CURVE SMOOTH",
"350 -1 OFFCURVE",
"358 0 OFFCURVE",
"358 0 CURVE",
"358 0 OFFCURVE",
"356 3 OFFCURVE",
"352 7 CURVE SMOOTH",
"324 40 OFFCURVE",
"207 176 OFFCURVE",
"167 223 CURVE",
"212 272 OFFCURVE",
"257 321 OFFCURVE",
"302 370 CURVE SMOOTH",
"312 381 OFFCURVE",
"326 395 OFFCURVE",
"331 399 CURVE",
"323 399 OFFCURVE",
"315 399 OFFCURVE",
"307 399 CURVE",
"193 272 OFFCURVE",
"103 173 OFFCURVE",
"78 146 CURVE",
"78 266 OFFCURVE",
"78 386 OFFCURVE",
"78 506 CURVE",
"75 506 OFFCURVE",
"73 506 OFFCURVE",
"70 506 CURVE SMOOTH",
"60 506 OFFCURVE",
"60 499 OFFCURVE",
"60 487 CURVE SMOOTH",
"60 325 OFFCURVE",
"60 162 OFFCURVE",
"60 0 CURVE"
);
}
);
width = 398;
}
);
leftKerningGroup = bracketleft;
note = k;
rightKerningGroup = k;
unicode = 006B;
},
{
glyphname = l;
lastChange = "2021-04-18 11:33:32 +0000";
layers = (
{
anchors = (
{
name = bottom;
position = "{162, 0}";
},
{
name = center;
position = "{162, 480}";
},
{
name = top;
position = "{133, 505}";
},
{
name = topright;
position = "{304, 505}";
}
);
layerId = "C7668D88-AC50-4107-9C4B-DB5D26A8FA6C";
paths = (
{
closed = 1;
nodes = (
"25 132 LINE SMOOTH",
"25 69 OFFCURVE",
"11 -5 OFFCURVE",
"205 -5 CURVE SMOOTH",
"269 -5 OFFCURVE",
"293 5 OFFCURVE",
"304 7 CURVE",
"304 79 LINE",
"301 77 OFFCURVE",
"288 73 OFFCURVE",
"278 73 CURVE SMOOTH",
"231 73 OFFCURVE",
"232 99 OFFCURVE",
"232 152 CURVE SMOOTH",
"232 426 LINE",
"232 426 OFFCURVE",
"234 498 OFFCURVE",
"236 505 CURVE",
"99 505 LINE SMOOTH",
"36 505 OFFCURVE",
"25 498 OFFCURVE",
"25 436 CURVE SMOOTH"
);
}
);
width = 324;
},
{
anchors = (
{
name = bottom;
position = "{98, 0}";
},
{
name = center;
position = "{98, 480}";
},
{
name = top;
position = "{72, 505}";
},
{
name = topright;
position = "{136, 505}";
}
);
background = {
paths = (
{
closed = 1;
nodes = (
"60 98 LINE SMOOTH",
"60 42 OFFCURVE",
"61 -3 OFFCURVE",
"109 -3 CURVE SMOOTH",
"117 -3 OFFCURVE",
"149 0 OFFCURVE",
"156 2 CURVE",
"156 16 LINE",
"151 13 OFFCURVE",
"127 11 OFFCURVE",
"120 11 CURVE SMOOTH",
"85 11 OFFCURVE",
"78 35 OFFCURVE",
"78 88 CURVE SMOOTH",
"78 476 LINE SMOOTH",
"78 496 OFFCURVE",
"79 505 OFFCURVE",
"79 505 CURVE",
"72 505 LINE SMOOTH",
"61 505 OFFCURVE",
"60 496 OFFCURVE",
"60 485 CURVE SMOOTH"
);
}
);
};
layerId = "B4E8C596-9C01-4F8A-BDA4-90320E25C0E6";
paths = (
{
closed = 1;
nodes = (
"60 98 LINE SMOOTH",
"60 42 OFFCURVE",
"61 -3 OFFCURVE",
"109 -3 CURVE SMOOTH",
"117 -3 OFFCURVE",
"149 0 OFFCURVE",
"156 2 CURVE",
"156 16 LINE",
"151 13 OFFCURVE",
"127 11 OFFCURVE",
"120 11 CURVE SMOOTH",
"85 11 OFFCURVE",
"78 35 OFFCURVE",
"78 88 CURVE SMOOTH",
"78 476 LINE SMOOTH",
"78 496 OFFCURVE",
"79 505 OFFCURVE",
"79 505 CURVE",
"72 505 LINE SMOOTH",
"61 505 OFFCURVE",
"60 496 OFFCURVE",
"60 485 CURVE SMOOTH"
);
}
);
width = 196;
}
);
leftKerningGroup = bracketleft;
note = l;
rightKerningGroup = i;
unicode = 006C;
},
{
glyphname = m;
lastChange = "2021-06-15 08:27:41 +0000";
layers = (
{
anchors = (
{
name = bottom;
position = "{405, 0}";
},
{
name = top;
position = "{405, 399}";
}
);
layerId = "C7668D88-AC50-4107-9C4B-DB5D26A8FA6C";
paths = (
{
closed = 1;
nodes = (
"30 276 OFFCURVE",
"30 174 OFFCURVE",
"30 73 CURVE SMOOTH",
"30 22 OFFCURVE",
"30 0 OFFCURVE",
"103 0 CURVE SMOOTH",
"148 0 OFFCURVE",
"192 0 OFFCURVE",
"237 0 CURVE",
"237 96 OFFCURVE",
"237 193 OFFCURVE",
"237 289 CURVE SMOOTH",
"237 301 OFFCURVE",
"248 303 OFFCURVE",
"262 303 CURVE SMOOTH",
"288 303 OFFCURVE",
"301 300 OFFCURVE",
"301 252 CURVE SMOOTH",
"301 178 OFFCURVE",
"301 103 OFFCURVE",
"301 29 CURVE SMOOTH",
"301 19 OFFCURVE",
"301 10 OFFCURVE",
"301 0 CURVE",
"370 0 OFFCURVE",
"440 0 OFFCURVE",
"509 0 CURVE",
"509 9 OFFCURVE",
"509 18 OFFCURVE",
"509 27 CURVE SMOOTH",
"509 115 OFFCURVE",
"509 203 OFFCURVE",
"509 291 CURVE SMOOTH",
"509 303 OFFCURVE",
"521 305 OFFCURVE",
"534 305 CURVE SMOOTH",
"559 305 OFFCURVE",
"572 300 OFFCURVE",
"573 252 CURVE SMOOTH",
"573 168 OFFCURVE",
"573 84 OFFCURVE",
"573 0 CURVE",
"618 0 OFFCURVE",
"662 0 OFFCURVE",
"707 0 CURVE SMOOTH",
"764 0 OFFCURVE",
"780 7 OFFCURVE",
"780 66 CURVE SMOOTH",
"780 126 OFFCURVE",
"780 185 OFFCURVE",
"780 245 CURVE SMOOTH",
"780 373 OFFCURVE",
"727 400 OFFCURVE",
"569 400 CURVE SMOOTH",
"533 400 OFFCURVE",
"459 396 OFFCURVE",
"423 343 CURVE",
"388 410 OFFCURVE",
"294 400 OFFCURVE",
"243 400 CURVE SMOOTH",
"209 400 OFFCURVE",
"83 392 OFFCURVE",
"30 377 CURVE"
);
}
);
width = 810;
},
{
anchors = (
{
name = bottom;
position = "{314, 0}";
},
{
name = top;
position = "{314, 399}";
}
);
background = {
paths = (
{
closed = 1;
nodes = (
"60 249 OFFCURVE",
"60 131 OFFCURVE",
"60 13 CURVE SMOOTH",
"60 1 OFFCURVE",
"65 0 OFFCURVE",
"73 0 CURVE SMOOTH",
"75 0 OFFCURVE",
"76 0 OFFCURVE",
"78 0 CURVE",
"78 116 OFFCURVE",
"78 233 OFFCURVE",
"78 349 CURVE",
"83 375 OFFCURVE",
"143 388 OFFCURVE",
"200 388 CURVE SMOOTH",
"257 388 OFFCURVE",
"305 360 OFFCURVE",
"305 336 CURVE SMOOTH",
"305 236 OFFCURVE",
"305 136 OFFCURVE",
"305 36 CURVE SMOOTH",
"305 21 OFFCURVE",
"305 5 OFFCURVE",
"304 0 CURVE",
"311 0 OFFCURVE",
"317 0 OFFCURVE",
"324 0 CURVE",
"323 5 OFFCURVE",
"323 20 OFFCURVE",
"323 36 CURVE SMOOTH",
"323 136 OFFCURVE",
"323 235 OFFCURVE",
"323 335 CURVE SMOOTH",
"323 368 OFFCURVE",
"398 388 OFFCURVE",
"446 388 CURVE SMOOTH",
"515 388 OFFCURVE",
"550 364 OFFCURVE",
"550 300 CURVE SMOOTH",
"550 200 OFFCURVE",
"550 100 OFFCURVE",
"550 0 CURVE",
"552 0 OFFCURVE",
"554 0 OFFCURVE",
"556 0 CURVE SMOOTH",
"564 0 OFFCURVE",
"568 4 OFFCURVE",
"568 13 CURVE SMOOTH",
"568 109 OFFCURVE",
"568 204 OFFCURVE",
"568 300 CURVE SMOOTH",
"568 370 OFFCURVE",
"539 403 OFFCURVE",
"445 403 CURVE SMOOTH",
"397 403 OFFCURVE",
"341 385 OFFCURVE",
"316 364 CURVE",
"295 385 OFFCURVE",
"252 402 OFFCURVE",
"202 402 CURVE SMOOTH",
"102 402 OFFCURVE",
"70 373 OFFCURVE",
"60 367 CURVE"
);
}
);
};
layerId = "B4E8C596-9C01-4F8A-BDA4-90320E25C0E6";
paths = (
{
closed = 1;
nodes = (
"60 249 OFFCURVE",
"60 131 OFFCURVE",
"60 13 CURVE SMOOTH",
"60 1 OFFCURVE",
"65 0 OFFCURVE",
"73 0 CURVE SMOOTH",
"75 0 OFFCURVE",
"76 0 OFFCURVE",
"78 0 CURVE",
"78 116 OFFCURVE",
"78 233 OFFCURVE",
"78 349 CURVE",
"83 375 OFFCURVE",
"143 388 OFFCURVE",
"200 388 CURVE SMOOTH",
"257 388 OFFCURVE",
"305 360 OFFCURVE",
"305 336 CURVE SMOOTH",
"305 236 OFFCURVE",
"305 136 OFFCURVE",
"305 36 CURVE SMOOTH",
"305 21 OFFCURVE",
"305 5 OFFCURVE",
"304 0 CURVE",
"311 0 OFFCURVE",
"317 0 OFFCURVE",
"324 0 CURVE",
"323 5 OFFCURVE",
"323 20 OFFCURVE",
"323 36 CURVE SMOOTH",
"323 136 OFFCURVE",
"323 235 OFFCURVE",
"323 335 CURVE SMOOTH",
"323 368 OFFCURVE",
"398 388 OFFCURVE",
"446 388 CURVE SMOOTH",
"515 388 OFFCURVE",
"550 364 OFFCURVE",
"550 300 CURVE SMOOTH",
"550 200 OFFCURVE",
"550 100 OFFCURVE",
"550 0 CURVE",
"552 0 OFFCURVE",
"554 0 OFFCURVE",
"556 0 CURVE SMOOTH",
"564 0 OFFCURVE",
"568 4 OFFCURVE",
"568 13 CURVE SMOOTH",
"568 109 OFFCURVE",
"568 204 OFFCURVE",
"568 300 CURVE SMOOTH",
"568 370 OFFCURVE",
"539 403 OFFCURVE",
"445 403 CURVE SMOOTH",
"397 403 OFFCURVE",
"341 385 OFFCURVE",
"316 364 CURVE",
"295 385 OFFCURVE",
"252 402 OFFCURVE",
"202 402 CURVE SMOOTH",
"102 402 OFFCURVE",
"70 373 OFFCURVE",
"60 367 CURVE"
);
}
);
width = 628;
}
);
leftKerningGroup = n;
note = m;
rightKerningGroup = n;
unicode = 006D;
},
{
glyphname = n;
lastChange = "2021-06-15 08:27:41 +0000";
layers = (
{
anchors = (
{
name = bottom;
position = "{281, 0}";
},
{
name = top;
position = "{281, 399}";
}
);
layerId = "C7668D88-AC50-4107-9C4B-DB5D26A8FA6C";
paths = (
{
closed = 1;
nodes = (
"30 277 OFFCURVE",
"30 175 OFFCURVE",
"30 73 CURVE SMOOTH",
"30 25 OFFCURVE",
"34 -1 OFFCURVE",
"79 -1 CURVE SMOOTH",
"90 -1 OFFCURVE",
"232 0 OFFCURVE",
"237 0 CURVE",
"237 94 OFFCURVE",
"237 187 OFFCURVE",
"237 281 CURVE",
"247 288 OFFCURVE",
"265 293 OFFCURVE",
"279 293 CURVE SMOOTH",
"299 293 OFFCURVE",
"324 282 OFFCURVE",
"324 245 CURVE SMOOTH",
"324 171 OFFCURVE",
"324 98 OFFCURVE",
"324 24 CURVE SMOOTH",
"324 16 OFFCURVE",
"324 7.994 OFFCURVE",
"324 0 CURVE",
"326 0 OFFCURVE",
"447 -1 OFFCURVE",
"454 -1 CURVE SMOOTH",
"526 -1 OFFCURVE",
"531 15 OFFCURVE",
"531 75 CURVE SMOOTH",
"531 115 OFFCURVE",
"531 154 OFFCURVE",
"531 194 CURVE SMOOTH",
"531 358 OFFCURVE",
"517 402 OFFCURVE",
"278 402 CURVE SMOOTH",
"171 402 OFFCURVE",
"71 390 OFFCURVE",
"30 379 CURVE"
);
}
);
width = 561;
},
{
anchors = (
{
name = bottom;
position = "{218, 0}";
},
{
name = top;
position = "{218, 399}";
}
);
background = {
paths = (
{
closed = 1;
nodes = (
"60 249 OFFCURVE",
"60 131 OFFCURVE",
"60 13 CURVE SMOOTH",
"60 1 OFFCURVE",
"65 0 OFFCURVE",
"73 0 CURVE SMOOTH",
"75 0 OFFCURVE",
"76 0 OFFCURVE",
"78 0 CURVE",
"78 116 OFFCURVE",
"78 233 OFFCURVE",
"78 349 CURVE",
"83 375 OFFCURVE",
"152 388 OFFCURVE",
"226 388 CURVE SMOOTH",
"313 388 OFFCURVE",
"358 360 OFFCURVE",
"358 296 CURVE SMOOTH",
"358 209 OFFCURVE",
"358 121 OFFCURVE",
"358 34 CURVE SMOOTH",
"358 30 OFFCURVE",
"358 10 OFFCURVE",
"357 0 CURVE",
"358 0 OFFCURVE",
"359 0 OFFCURVE",
"360 0 CURVE SMOOTH",
"366 0 OFFCURVE",
"376 2 OFFCURVE",
"376 13 CURVE SMOOTH",
"376 107 OFFCURVE",
"376 202 OFFCURVE",
"376 296 CURVE SMOOTH",
"376 366 OFFCURVE",
"348 402 OFFCURVE",
"229 402 CURVE SMOOTH",
"99 402 OFFCURVE",
"70 373 OFFCURVE",
"60 367 CURVE"
);
}
);
};
layerId = "B4E8C596-9C01-4F8A-BDA4-90320E25C0E6";
paths = (
{
closed = 1;
nodes = (
"60 249 OFFCURVE",
"60 131 OFFCURVE",
"60 13 CURVE SMOOTH",
"60 1 OFFCURVE",
"65 0 OFFCURVE",
"73 0 CURVE SMOOTH",
"75 0 OFFCURVE",
"76 0 OFFCURVE",
"78 0 CURVE",
"78 116 OFFCURVE",
"78 233 OFFCURVE",
"78 349 CURVE",
"83 375 OFFCURVE",
"152 388 OFFCURVE",
"226 388 CURVE SMOOTH",
"313 388 OFFCURVE",
"358 360 OFFCURVE",
"358 296 CURVE SMOOTH",
"358 209 OFFCURVE",
"358 121 OFFCURVE",
"358 34 CURVE SMOOTH",
"358 30 OFFCURVE",
"358 10 OFFCURVE",
"357 0 CURVE",
"358 0 OFFCURVE",
"359 0 OFFCURVE",
"360 0 CURVE SMOOTH",
"366 0 OFFCURVE",
"376 2 OFFCURVE",
"376 13 CURVE SMOOTH",
"376 107 OFFCURVE",
"376 202 OFFCURVE",
"376 296 CURVE SMOOTH",
"376 366 OFFCURVE",
"348 402 OFFCURVE",
"229 402 CURVE SMOOTH",
"99 402 OFFCURVE",
"70 373 OFFCURVE",
"60 367 CURVE"
);
}
);
width = 436;
}
);
leftKerningGroup = n;
note = n;
rightKerningGroup = h;
unicode = 006E;
},
{
glyphname = o;
lastChange = "2021-04-18 10:29:33 +0000";
layers = (
{
anchors = (
{
name = bottom;
position = "{289, 0}";
},
{
name = center;
position = "{289, 200}";
},
{
name = ogonek;
position = "{520, 10}";
},
{
name = top;
position = "{289, 399}";
},
{
name = topright;
position = "{380, 399}";
}
);
layerId = "C7668D88-AC50-4107-9C4B-DB5D26A8FA6C";
paths = (
{
closed = 1;
nodes = (
"26 12 OFFCURVE",
"138 -7 OFFCURVE",
"282 -7 CURVE SMOOTH",
"425 -7 OFFCURVE",
"551 7 OFFCURVE",
"551 199 CURVE SMOOTH",
"551 387 OFFCURVE",
"437 405 OFFCURVE",
"294 405 CURVE SMOOTH",
"153 405 OFFCURVE",
"26 391 OFFCURVE",
"26 199 CURVE SMOOTH"
);
},
{
closed = 1;
nodes = (
"351 103 OFFCURVE",
"327 90 OFFCURVE",
"289 90 CURVE SMOOTH",
"250 90 OFFCURVE",
"225 103 OFFCURVE",
"225 197 CURVE SMOOTH",
"225 291 OFFCURVE",
"250 304 OFFCURVE",
"289 304 CURVE SMOOTH",
"327 304 OFFCURVE",
"351 291 OFFCURVE",
"351 197 CURVE SMOOTH"
);
}
);
width = 578;
},
{
anchors = (
{
name = bottom;
position = "{212, 0}";
},
{
name = center;
position = "{212, 200}";
},
{
name = ogonek;
position = "{382, 10}";
},
{
name = top;
position = "{212, 399}";
},
{
name = topright;
position = "{272, 399}";
}
);
background = {
paths = (
{
closed = 1;
nodes = (
"35 14 OFFCURVE",
"111 -5 OFFCURVE",
"207 -5 CURVE SMOOTH",
"303 -5 OFFCURVE",
"389 9 OFFCURVE",
"389 199 CURVE SMOOTH",
"389 384 OFFCURVE",
"313 403 OFFCURVE",
"217 403 CURVE SMOOTH",
"121 403 OFFCURVE",
"35 389 OFFCURVE",
"35 199 CURVE SMOOTH"
);
},
{
closed = 1;
nodes = (
"370 31 OFFCURVE",
"312 9 OFFCURVE",
"211 9 CURVE SMOOTH",
"111 9 OFFCURVE",
"55 31 OFFCURVE",
"55 198 CURVE SMOOTH",
"55 366 OFFCURVE",
"111 389 OFFCURVE",
"211 389 CURVE SMOOTH",
"312 389 OFFCURVE",
"370 366 OFFCURVE",
"370 198 CURVE SMOOTH"
);
}
);
};
layerId = "B4E8C596-9C01-4F8A-BDA4-90320E25C0E6";
paths = (
{
closed = 1;
nodes = (
"35 14 OFFCURVE",
"111 -5 OFFCURVE",
"207 -5 CURVE SMOOTH",
"303 -5 OFFCURVE",
"389 9 OFFCURVE",
"389 199 CURVE SMOOTH",
"389 384 OFFCURVE",
"313 403 OFFCURVE",
"217 403 CURVE SMOOTH",
"121 403 OFFCURVE",
"35 389 OFFCURVE",
"35 199 CURVE SMOOTH"
);
},
{
closed = 1;
nodes = (
"370 31 OFFCURVE",
"312 9 OFFCURVE",
"211 9 CURVE SMOOTH",
"111 9 OFFCURVE",
"55 31 OFFCURVE",
"55 198 CURVE SMOOTH",
"55 366 OFFCURVE",
"111 389 OFFCURVE",
"211 389 CURVE SMOOTH",
"312 389 OFFCURVE",
"370 366 OFFCURVE",
"370 198 CURVE SMOOTH"
);
}
);
width = 424;
}
);
leftKerningGroup = e;
note = o;
rightKerningGroup = o;
unicode = 006F;
},
{
glyphname = p;
lastChange = "2021-06-15 08:27:41 +0000";
layers = (
{
anchors = (
{
name = bottom;
position = "{294, 0}";
},
{
name = top;
position = "{294, 399}";
}
);
layerId = "C7668D88-AC50-4107-9C4B-DB5D26A8FA6C";
paths = (
{
closed = 1;
nodes = (
"32 384 OFFCURVE",
"33 357 OFFCURVE",
"33 328 CURVE SMOOTH",
"33 204 LINE",
"31 -107 LINE",
"240 -107 LINE",
"240 96 LINE",
"246 67 OFFCURVE",
"282 51 OFFCURVE",
"354 51 CURVE SMOOTH",
"495 51 OFFCURVE",
"558 72 OFFCURVE",
"558 230 CURVE SMOOTH",
"558 380 OFFCURVE",
"461 403 OFFCURVE",
"257 403 CURVE SMOOTH",
"205 403 OFFCURVE",
"55 394 OFFCURVE",
"30 389 CURVE"
);
},
{
closed = 1;
nodes = (
"239 295 LINE",
"257 295 OFFCURVE",
"276 296 OFFCURVE",
"294 296 CURVE SMOOTH",
"333 296 OFFCURVE",
"346 284 OFFCURVE",
"346 232 CURVE SMOOTH",
"346 146 OFFCURVE",
"326 144 OFFCURVE",
"292 144 CURVE SMOOTH",
"274 144 OFFCURVE",
"239 154 OFFCURVE",
"239 214 CURVE SMOOTH"
);
}
);
width = 588;
},
{
anchors = (
{
name = bottom;
position = "{219, 0}";
},
{
name = top;
position = "{219, 399}";
}
);
background = {
paths = (
{
closed = 1;
nodes = (
"53 386 OFFCURVE",
"54 350 OFFCURVE",
"54 311 CURVE SMOOTH",
"54 158 LINE",
"53 -107 LINE",
"73 -107 LINE",
"73 114 LINE",
"90 60 OFFCURVE",
"155 50 OFFCURVE",
"223 50 CURVE SMOOTH",
"337 50 OFFCURVE",
"393 84 OFFCURVE",
"393 228 CURVE SMOOTH",
"393 380 OFFCURVE",
"334 402 OFFCURVE",
"209 402 CURVE SMOOTH",
"153 402 OFFCURVE",
"71 394 OFFCURVE",
"52 390 CURVE"
);
},
{
closed = 1;
nodes = (
"73 378 LINE",
"92 381 OFFCURVE",
"170 387 OFFCURVE",
"205 387 CURVE SMOOTH",
"333 387 OFFCURVE",
"375 355 OFFCURVE",
"375 231 CURVE SMOOTH",
"375 112 OFFCURVE",
"341 64 OFFCURVE",
"226 64 CURVE SMOOTH",
"167 64 OFFCURVE",
"73 66 OFFCURVE",
"73 185 CURVE SMOOTH"
);
}
);
};
layerId = "B4E8C596-9C01-4F8A-BDA4-90320E25C0E6";
paths = (
{
closed = 1;
nodes = (
"53 386 OFFCURVE",
"54 350 OFFCURVE",
"54 311 CURVE SMOOTH",
"54 158 LINE",
"53 -107 LINE",
"73 -107 LINE",
"73 114 LINE",
"90 60 OFFCURVE",
"155 50 OFFCURVE",
"223 50 CURVE SMOOTH",
"337 50 OFFCURVE",
"393 84 OFFCURVE",
"393 228 CURVE SMOOTH",
"393 380 OFFCURVE",
"334 402 OFFCURVE",
"209 402 CURVE SMOOTH",
"153 402 OFFCURVE",
"71 394 OFFCURVE",
"52 390 CURVE"
);
},
{
closed = 1;
nodes = (
"73 378 LINE",
"92 381 OFFCURVE",
"170 387 OFFCURVE",
"205 387 CURVE SMOOTH",
"333 387 OFFCURVE",
"375 355 OFFCURVE",
"375 231 CURVE SMOOTH",
"375 112 OFFCURVE",
"341 64 OFFCURVE",
"226 64 CURVE SMOOTH",
"167 64 OFFCURVE",
"73 66 OFFCURVE",
"73 185 CURVE SMOOTH"
);
}
);
width = 437;
}
);
leftKerningGroup = bracketleft;
note = p;
rightKerningGroup = o;
unicode = 0070;
},
{
glyphname = q;
lastChange = "2021-06-15 08:27:41 +0000";
layers = (
{
anchors = (
{
name = bottom;
position = "{291, 0}";
},
{
name = top;
position = "{291, 399}";
}
);
layerId = "C7668D88-AC50-4107-9C4B-DB5D26A8FA6C";
paths = (
{
closed = 1;
nodes = (
"98 402 OFFCURVE",
"30 394 OFFCURVE",
"30 216 CURVE SMOOTH",
"30 200 OFFCURVE",
"30 185 OFFCURVE",
"30 169 CURVE SMOOTH",
"30 -5 OFFCURVE",
"127 -3 OFFCURVE",
"270 -3 CURVE SMOOTH",
"287 -3 OFFCURVE",
"294 -4 OFFCURVE",
"340 -1 CURVE",
"340 -37 OFFCURVE",
"340 -72 OFFCURVE",
"340 -108 CURVE",
"548 -108 LINE",
"548 -6 OFFCURVE",
"547 97 OFFCURVE",
"547 199 CURVE SMOOTH",
"547 219 OFFCURVE",
"545 358 OFFCURVE",
"552 401 CURVE",
"533 399 OFFCURVE",
"371 402 OFFCURVE",
"296 402 CURVE SMOOTH"
);
},
{
closed = 1;
nodes = (
"307 295 OFFCURVE",
"323 295 OFFCURVE",
"340 295 CURVE",
"340 232 OFFCURVE",
"340 169 OFFCURVE",
"340 106 CURVE",
"336 106 OFFCURVE",
"332 106 OFFCURVE",
"328 106 CURVE SMOOTH",
"256 106 OFFCURVE",
"237 106 OFFCURVE",
"237 199 CURVE SMOOTH",
"239 282 OFFCURVE",
"251 295 OFFCURVE",
"290 295 CURVE SMOOTH"
);
}
);
width = 582;
},
{
anchors = (
{
name = bottom;
position = "{232, 0}";
},
{
name = top;
position = "{232, 399}";
}
);
background = {
paths = (
{
closed = 1;
nodes = (
"141 400 OFFCURVE",
"63 398 OFFCURVE",
"60 210 CURVE SMOOTH",
"60 207 OFFCURVE",
"60 203 OFFCURVE",
"60 200 CURVE SMOOTH",
"60 32 OFFCURVE",
"119 -2 OFFCURVE",
"238 -2 CURVE SMOOTH",
"271 -2 OFFCURVE",
"368 3 OFFCURVE",
"382 4 CURVE",
"382 -33 OFFCURVE",
"382 -70 OFFCURVE",
"382 -107 CURVE",
"400 -107 LINE",
"400 48 OFFCURVE",
"400 202 OFFCURVE",
"400 357 CURVE SMOOTH",
"400 385 OFFCURVE",
"401 397 OFFCURVE",
"403 401 CURVE",
"397 398 OFFCURVE",
"304 400 OFFCURVE",
"244 400 CURVE SMOOTH"
);
},
{
closed = 1;
nodes = (
"363 386 OFFCURVE",
"367 384 OFFCURVE",
"382 384 CURVE",
"382 263 OFFCURVE",
"382 141 OFFCURVE",
"382 20 CURVE",
"375 19 OFFCURVE",
"269 12 OFFCURVE",
"227 12 CURVE SMOOTH",
"131 12 OFFCURVE",
"78 57 OFFCURVE",
"78 190 CURVE SMOOTH",
"78 359 OFFCURVE",
"118 386 OFFCURVE",
"243 386 CURVE SMOOTH"
);
}
);
};
layerId = "B4E8C596-9C01-4F8A-BDA4-90320E25C0E6";
paths = (
{
closed = 1;
nodes = (
"141 400 OFFCURVE",
"63 398 OFFCURVE",
"60 210 CURVE SMOOTH",
"60 207 OFFCURVE",
"60 203 OFFCURVE",
"60 200 CURVE SMOOTH",
"60 32 OFFCURVE",
"119 -2 OFFCURVE",
"238 -2 CURVE SMOOTH",
"271 -2 OFFCURVE",
"368 3 OFFCURVE",
"382 4 CURVE",
"382 -33 OFFCURVE",
"382 -70 OFFCURVE",
"382 -107 CURVE",
"400 -107 LINE",
"400 48 OFFCURVE",
"400 202 OFFCURVE",
"400 357 CURVE SMOOTH",
"400 385 OFFCURVE",
"401 397 OFFCURVE",
"403 401 CURVE",
"397 398 OFFCURVE",
"304 400 OFFCURVE",
"244 400 CURVE SMOOTH"
);
},
{
closed = 1;
nodes = (
"363 386 OFFCURVE",
"367 384 OFFCURVE",
"382 384 CURVE",
"382 263 OFFCURVE",
"382 141 OFFCURVE",
"382 20 CURVE",
"375 19 OFFCURVE",
"269 12 OFFCURVE",
"227 12 CURVE SMOOTH",
"131 12 OFFCURVE",
"78 57 OFFCURVE",
"78 190 CURVE SMOOTH",
"78 359 OFFCURVE",
"118 386 OFFCURVE",
"243 386 CURVE SMOOTH"
);
}
);
width = 463;
}
);
leftKerningGroup = o;
note = q;
rightKerningGroup = one;
unicode = 0071;
},
